G04 #@! TF.GenerationSoftware,KiCad,Pcbnew,(6.0.4)*
G04 #@! TF.CreationDate,2022-03-19T22:36:38+01:00*
G04 #@! TF.ProjectId,FlyballDisplay,466c7962-616c-46c4-9469-73706c61792e,rev?*
G04 #@! TF.SameCoordinates,Original*
G04 #@! TF.FileFunction,Legend,Top*
G04 #@! TF.FilePolarity,Positive*
%FSLAX46Y46*%
G04 Gerber Fmt 4.6, Leading zero omitted, Abs format (unit mm)*
G04 Created by KiCad (PCBNEW (6.0.4)) date 2022-03-19 22:36:38*
%MOMM*%
%LPD*%
G01*
G04 APERTURE LIST*
G04 Aperture macros list*
%AMRoundRect*
0 Rectangle with rounded corners*
0 $1 Rounding radius*
0 $2 $3 $4 $5 $6 $7 $8 $9 X,Y pos of 4 corners*
0 Add a 4 corners polygon primitive as box body*
4,1,4,$2,$3,$4,$5,$6,$7,$8,$9,$2,$3,0*
0 Add four circle primitives for the rounded corners*
1,1,$1+$1,$2,$3*
1,1,$1+$1,$4,$5*
1,1,$1+$1,$6,$7*
1,1,$1+$1,$8,$9*
0 Add four rect primitives between the rounded corners*
20,1,$1+$1,$2,$3,$4,$5,0*
20,1,$1+$1,$4,$5,$6,$7,0*
20,1,$1+$1,$6,$7,$8,$9,0*
20,1,$1+$1,$8,$9,$2,$3,0*%
G04 Aperture macros list end*
%ADD10C,0.142240*%
%ADD11C,0.150000*%
%ADD12C,0.050800*%
%ADD13C,0.081280*%
%ADD14C,0.113792*%
%ADD15C,0.060960*%
%ADD16C,0.127000*%
%ADD17C,0.121920*%
%ADD18C,0.120000*%
%ADD19C,0.203200*%
%ADD20C,0.152400*%
%ADD21C,0.254000*%
%ADD22RoundRect,0.301000X-0.750000X0.600000X-0.750000X-0.600000X0.750000X-0.600000X0.750000X0.600000X0*%
%ADD23O,2.102000X1.802000*%
%ADD24O,3.962400X2.133600*%
%ADD25C,3.302000*%
%ADD26C,2.235200*%
%ADD27O,3.336800X1.820800*%
%ADD28C,3.102000*%
%ADD29RoundRect,0.152400X1.250000X1.250000X-1.250000X1.250000X-1.250000X-1.250000X1.250000X-1.250000X0*%
%ADD30O,1.820800X3.336800*%
%ADD31RoundRect,0.152400X0.775000X-0.650000X0.775000X0.650000X-0.775000X0.650000X-0.775000X-0.650000X0*%
G04 APERTURE END LIST*
D10*
X120920170Y-81810285D02*
X120520170Y-81810285D01*
X120520170Y-82438857D02*
X120520170Y-81238857D01*
X121091598Y-81238857D01*
X121720170Y-82438857D02*
X121605884Y-82381714D01*
X121548741Y-82267428D01*
X121548741Y-81238857D01*
X122063027Y-81638857D02*
X122348741Y-82438857D01*
X122634456Y-81638857D02*
X122348741Y-82438857D01*
X122234456Y-82724571D01*
X122177313Y-82781714D01*
X122063027Y-82838857D01*
X123091598Y-82438857D02*
X123091598Y-81238857D01*
X123091598Y-81696000D02*
X123205884Y-81638857D01*
X123434456Y-81638857D01*
X123548741Y-81696000D01*
X123605884Y-81753142D01*
X123663027Y-81867428D01*
X123663027Y-82210285D01*
X123605884Y-82324571D01*
X123548741Y-82381714D01*
X123434456Y-82438857D01*
X123205884Y-82438857D01*
X123091598Y-82381714D01*
X124691598Y-82438857D02*
X124691598Y-81810285D01*
X124634456Y-81696000D01*
X124520170Y-81638857D01*
X124291598Y-81638857D01*
X124177313Y-81696000D01*
X124691598Y-82381714D02*
X124577313Y-82438857D01*
X124291598Y-82438857D01*
X124177313Y-82381714D01*
X124120170Y-82267428D01*
X124120170Y-82153142D01*
X124177313Y-82038857D01*
X124291598Y-81981714D01*
X124577313Y-81981714D01*
X124691598Y-81924571D01*
X125434456Y-82438857D02*
X125320170Y-82381714D01*
X125263027Y-82267428D01*
X125263027Y-81238857D01*
X126063027Y-82438857D02*
X125948741Y-82381714D01*
X125891598Y-82267428D01*
X125891598Y-81238857D01*
X126520170Y-82438857D02*
X126520170Y-81238857D01*
X126805884Y-81238857D01*
X126977313Y-81296000D01*
X127091598Y-81410285D01*
X127148741Y-81524571D01*
X127205884Y-81753142D01*
X127205884Y-81924571D01*
X127148741Y-82153142D01*
X127091598Y-82267428D01*
X126977313Y-82381714D01*
X126805884Y-82438857D01*
X126520170Y-82438857D01*
X127720170Y-82438857D02*
X127720170Y-81638857D01*
X127720170Y-81238857D02*
X127663027Y-81296000D01*
X127720170Y-81353142D01*
X127777313Y-81296000D01*
X127720170Y-81238857D01*
X127720170Y-81353142D01*
X128234456Y-82381714D02*
X128348741Y-82438857D01*
X128577313Y-82438857D01*
X128691598Y-82381714D01*
X128748741Y-82267428D01*
X128748741Y-82210285D01*
X128691598Y-82096000D01*
X128577313Y-82038857D01*
X128405884Y-82038857D01*
X128291598Y-81981714D01*
X128234456Y-81867428D01*
X128234456Y-81810285D01*
X128291598Y-81696000D01*
X128405884Y-81638857D01*
X128577313Y-81638857D01*
X128691598Y-81696000D01*
X129263027Y-81638857D02*
X129263027Y-82838857D01*
X129263027Y-81696000D02*
X129377313Y-81638857D01*
X129605884Y-81638857D01*
X129720170Y-81696000D01*
X129777313Y-81753142D01*
X129834456Y-81867428D01*
X129834456Y-82210285D01*
X129777313Y-82324571D01*
X129720170Y-82381714D01*
X129605884Y-82438857D01*
X129377313Y-82438857D01*
X129263027Y-82381714D01*
X130520170Y-82438857D02*
X130405884Y-82381714D01*
X130348741Y-82267428D01*
X130348741Y-81238857D01*
X131491598Y-82438857D02*
X131491598Y-81810285D01*
X131434456Y-81696000D01*
X131320170Y-81638857D01*
X131091598Y-81638857D01*
X130977313Y-81696000D01*
X131491598Y-82381714D02*
X131377313Y-82438857D01*
X131091598Y-82438857D01*
X130977313Y-82381714D01*
X130920170Y-82267428D01*
X130920170Y-82153142D01*
X130977313Y-82038857D01*
X131091598Y-81981714D01*
X131377313Y-81981714D01*
X131491598Y-81924571D01*
X131948741Y-81638857D02*
X132234456Y-82438857D01*
X132520170Y-81638857D02*
X132234456Y-82438857D01*
X132120170Y-82724571D01*
X132063027Y-82781714D01*
X131948741Y-82838857D01*
X133891598Y-82438857D02*
X133891598Y-81238857D01*
X133891598Y-81696000D02*
X134005884Y-81638857D01*
X134234456Y-81638857D01*
X134348741Y-81696000D01*
X134405884Y-81753142D01*
X134463027Y-81867428D01*
X134463027Y-82210285D01*
X134405884Y-82324571D01*
X134348741Y-82381714D01*
X134234456Y-82438857D01*
X134005884Y-82438857D01*
X133891598Y-82381714D01*
X135148741Y-82438857D02*
X135034456Y-82381714D01*
X134977313Y-82324571D01*
X134920170Y-82210285D01*
X134920170Y-81867428D01*
X134977313Y-81753142D01*
X135034456Y-81696000D01*
X135148741Y-81638857D01*
X135320170Y-81638857D01*
X135434456Y-81696000D01*
X135491598Y-81753142D01*
X135548741Y-81867428D01*
X135548741Y-82210285D01*
X135491598Y-82324571D01*
X135434456Y-82381714D01*
X135320170Y-82438857D01*
X135148741Y-82438857D01*
X136577313Y-82438857D02*
X136577313Y-81810285D01*
X136520170Y-81696000D01*
X136405884Y-81638857D01*
X136177313Y-81638857D01*
X136063027Y-81696000D01*
X136577313Y-82381714D02*
X136463027Y-82438857D01*
X136177313Y-82438857D01*
X136063027Y-82381714D01*
X136005884Y-82267428D01*
X136005884Y-82153142D01*
X136063027Y-82038857D01*
X136177313Y-81981714D01*
X136463027Y-81981714D01*
X136577313Y-81924571D01*
X137148741Y-82438857D02*
X137148741Y-81638857D01*
X137148741Y-81867428D02*
X137205884Y-81753142D01*
X137263027Y-81696000D01*
X137377313Y-81638857D01*
X137491598Y-81638857D01*
X138405884Y-82438857D02*
X138405884Y-81238857D01*
X138405884Y-82381714D02*
X138291598Y-82438857D01*
X138063027Y-82438857D01*
X137948741Y-82381714D01*
X137891598Y-82324571D01*
X137834456Y-82210285D01*
X137834456Y-81867428D01*
X137891598Y-81753142D01*
X137948741Y-81696000D01*
X138063027Y-81638857D01*
X138291598Y-81638857D01*
X138405884Y-81696000D01*
X139777313Y-81638857D02*
X140063027Y-82438857D01*
X140348741Y-81638857D01*
X141434456Y-82438857D02*
X140748741Y-82438857D01*
X141091598Y-82438857D02*
X141091598Y-81238857D01*
X140977313Y-81410285D01*
X140863027Y-81524571D01*
X140748741Y-81581714D01*
X120520170Y-84370857D02*
X120520170Y-83170857D01*
X121034456Y-84370857D02*
X121034456Y-83742285D01*
X120977313Y-83628000D01*
X120863027Y-83570857D01*
X120691598Y-83570857D01*
X120577313Y-83628000D01*
X120520170Y-83685142D01*
X121434456Y-83570857D02*
X121891598Y-83570857D01*
X121605884Y-83170857D02*
X121605884Y-84199428D01*
X121663027Y-84313714D01*
X121777313Y-84370857D01*
X121891598Y-84370857D01*
X122120170Y-83570857D02*
X122577313Y-83570857D01*
X122291598Y-83170857D02*
X122291598Y-84199428D01*
X122348741Y-84313714D01*
X122463027Y-84370857D01*
X122577313Y-84370857D01*
X122977313Y-83570857D02*
X122977313Y-84770857D01*
X122977313Y-83628000D02*
X123091598Y-83570857D01*
X123320170Y-83570857D01*
X123434456Y-83628000D01*
X123491598Y-83685142D01*
X123548741Y-83799428D01*
X123548741Y-84142285D01*
X123491598Y-84256571D01*
X123434456Y-84313714D01*
X123320170Y-84370857D01*
X123091598Y-84370857D01*
X122977313Y-84313714D01*
X124063027Y-84256571D02*
X124120170Y-84313714D01*
X124063027Y-84370857D01*
X124005884Y-84313714D01*
X124063027Y-84256571D01*
X124063027Y-84370857D01*
X124063027Y-83628000D02*
X124120170Y-83685142D01*
X124063027Y-83742285D01*
X124005884Y-83685142D01*
X124063027Y-83628000D01*
X124063027Y-83742285D01*
X125491598Y-83113714D02*
X124463027Y-84656571D01*
X126748741Y-83113714D02*
X125720170Y-84656571D01*
X127148741Y-84370857D02*
X127148741Y-83170857D01*
X127148741Y-83628000D02*
X127263027Y-83570857D01*
X127491598Y-83570857D01*
X127605884Y-83628000D01*
X127663027Y-83685142D01*
X127720170Y-83799428D01*
X127720170Y-84142285D01*
X127663027Y-84256571D01*
X127605884Y-84313714D01*
X127491598Y-84370857D01*
X127263027Y-84370857D01*
X127148741Y-84313714D01*
X128234456Y-84370857D02*
X128234456Y-83570857D01*
X128234456Y-83170857D02*
X128177313Y-83228000D01*
X128234456Y-83285142D01*
X128291598Y-83228000D01*
X128234456Y-83170857D01*
X128234456Y-83285142D01*
X128634456Y-83570857D02*
X129091598Y-83570857D01*
X128805884Y-83170857D02*
X128805884Y-84199428D01*
X128863027Y-84313714D01*
X128977313Y-84370857D01*
X129091598Y-84370857D01*
X129491598Y-84256571D02*
X129548741Y-84313714D01*
X129491598Y-84370857D01*
X129434456Y-84313714D01*
X129491598Y-84256571D01*
X129491598Y-84370857D01*
X130234456Y-84370857D02*
X130120170Y-84313714D01*
X130063027Y-84199428D01*
X130063027Y-83170857D01*
X130577313Y-83570857D02*
X130863027Y-84370857D01*
X131148741Y-83570857D02*
X130863027Y-84370857D01*
X130748741Y-84656571D01*
X130691598Y-84713714D01*
X130577313Y-84770857D01*
X132463027Y-83113714D02*
X131434456Y-84656571D01*
X132691598Y-83570857D02*
X133148741Y-83570857D01*
X132863027Y-84370857D02*
X132863027Y-83342285D01*
X132920170Y-83228000D01*
X133034456Y-83170857D01*
X133148741Y-83170857D01*
X133548741Y-84370857D02*
X133548741Y-83170857D01*
X133548741Y-83628000D02*
X133663027Y-83570857D01*
X133891598Y-83570857D01*
X134005884Y-83628000D01*
X134063027Y-83685142D01*
X134120170Y-83799428D01*
X134120170Y-84142285D01*
X134063027Y-84256571D01*
X134005884Y-84313714D01*
X133891598Y-84370857D01*
X133663027Y-84370857D01*
X133548741Y-84313714D01*
X135148741Y-84370857D02*
X135148741Y-83170857D01*
X135148741Y-84313714D02*
X135034456Y-84370857D01*
X134805884Y-84370857D01*
X134691598Y-84313714D01*
X134634456Y-84256571D01*
X134577313Y-84142285D01*
X134577313Y-83799428D01*
X134634456Y-83685142D01*
X134691598Y-83628000D01*
X134805884Y-83570857D01*
X135034456Y-83570857D01*
X135148741Y-83628000D01*
X135720170Y-84370857D02*
X135720170Y-83570857D01*
X135720170Y-83170857D02*
X135663027Y-83228000D01*
X135720170Y-83285142D01*
X135777313Y-83228000D01*
X135720170Y-83170857D01*
X135720170Y-83285142D01*
X136234456Y-84313714D02*
X136348741Y-84370857D01*
X136577313Y-84370857D01*
X136691598Y-84313714D01*
X136748741Y-84199428D01*
X136748741Y-84142285D01*
X136691598Y-84028000D01*
X136577313Y-83970857D01*
X136405884Y-83970857D01*
X136291598Y-83913714D01*
X136234456Y-83799428D01*
X136234456Y-83742285D01*
X136291598Y-83628000D01*
X136405884Y-83570857D01*
X136577313Y-83570857D01*
X136691598Y-83628000D01*
X137263027Y-83570857D02*
X137263027Y-84770857D01*
X137263027Y-83628000D02*
X137377313Y-83570857D01*
X137605884Y-83570857D01*
X137720170Y-83628000D01*
X137777313Y-83685142D01*
X137834456Y-83799428D01*
X137834456Y-84142285D01*
X137777313Y-84256571D01*
X137720170Y-84313714D01*
X137605884Y-84370857D01*
X137377313Y-84370857D01*
X137263027Y-84313714D01*
X138520170Y-84370857D02*
X138405884Y-84313714D01*
X138348741Y-84199428D01*
X138348741Y-83170857D01*
X139491598Y-84370857D02*
X139491598Y-83742285D01*
X139434456Y-83628000D01*
X139320170Y-83570857D01*
X139091598Y-83570857D01*
X138977313Y-83628000D01*
X139491598Y-84313714D02*
X139377313Y-84370857D01*
X139091598Y-84370857D01*
X138977313Y-84313714D01*
X138920170Y-84199428D01*
X138920170Y-84085142D01*
X138977313Y-83970857D01*
X139091598Y-83913714D01*
X139377313Y-83913714D01*
X139491598Y-83856571D01*
X139948741Y-83570857D02*
X140234456Y-84370857D01*
X140520170Y-83570857D02*
X140234456Y-84370857D01*
X140120170Y-84656571D01*
X140063027Y-84713714D01*
X139948741Y-84770857D01*
X121091598Y-86302857D02*
X120520170Y-86302857D01*
X120520170Y-85102857D01*
X121491598Y-86302857D02*
X121491598Y-85102857D01*
X122748741Y-86188571D02*
X122691598Y-86245714D01*
X122520170Y-86302857D01*
X122405884Y-86302857D01*
X122234456Y-86245714D01*
X122120170Y-86131428D01*
X122063027Y-86017142D01*
X122005884Y-85788571D01*
X122005884Y-85617142D01*
X122063027Y-85388571D01*
X122120170Y-85274285D01*
X122234456Y-85160000D01*
X122405884Y-85102857D01*
X122520170Y-85102857D01*
X122691598Y-85160000D01*
X122748741Y-85217142D01*
X123263027Y-85674285D02*
X123663027Y-85674285D01*
X123834456Y-86302857D02*
X123263027Y-86302857D01*
X123263027Y-85102857D01*
X123834456Y-85102857D01*
X124348741Y-86302857D02*
X124348741Y-85102857D01*
X125034456Y-86302857D01*
X125034456Y-85102857D01*
X125548741Y-86245714D02*
X125720170Y-86302857D01*
X126005884Y-86302857D01*
X126120170Y-86245714D01*
X126177313Y-86188571D01*
X126234456Y-86074285D01*
X126234456Y-85960000D01*
X126177313Y-85845714D01*
X126120170Y-85788571D01*
X126005884Y-85731428D01*
X125777313Y-85674285D01*
X125663027Y-85617142D01*
X125605884Y-85560000D01*
X125548741Y-85445714D01*
X125548741Y-85331428D01*
X125605884Y-85217142D01*
X125663027Y-85160000D01*
X125777313Y-85102857D01*
X126063027Y-85102857D01*
X126234456Y-85160000D01*
X126748741Y-85674285D02*
X127148741Y-85674285D01*
X127320170Y-86302857D02*
X126748741Y-86302857D01*
X126748741Y-85102857D01*
X127320170Y-85102857D01*
X127834456Y-86188571D02*
X127891598Y-86245714D01*
X127834456Y-86302857D01*
X127777313Y-86245714D01*
X127834456Y-86188571D01*
X127834456Y-86302857D01*
X127834456Y-85560000D02*
X127891598Y-85617142D01*
X127834456Y-85674285D01*
X127777313Y-85617142D01*
X127834456Y-85560000D01*
X127834456Y-85674285D01*
X130005884Y-86188571D02*
X129948741Y-86245714D01*
X129777313Y-86302857D01*
X129663027Y-86302857D01*
X129491598Y-86245714D01*
X129377313Y-86131428D01*
X129320170Y-86017142D01*
X129263027Y-85788571D01*
X129263027Y-85617142D01*
X129320170Y-85388571D01*
X129377313Y-85274285D01*
X129491598Y-85160000D01*
X129663027Y-85102857D01*
X129777313Y-85102857D01*
X129948741Y-85160000D01*
X130005884Y-85217142D01*
X131205884Y-86188571D02*
X131148741Y-86245714D01*
X130977313Y-86302857D01*
X130863027Y-86302857D01*
X130691598Y-86245714D01*
X130577313Y-86131428D01*
X130520170Y-86017142D01*
X130463027Y-85788571D01*
X130463027Y-85617142D01*
X130520170Y-85388571D01*
X130577313Y-85274285D01*
X130691598Y-85160000D01*
X130863027Y-85102857D01*
X130977313Y-85102857D01*
X131148741Y-85160000D01*
X131205884Y-85217142D01*
X131720170Y-85845714D02*
X132634456Y-85845714D01*
X133605884Y-85674285D02*
X133777313Y-85731428D01*
X133834456Y-85788571D01*
X133891598Y-85902857D01*
X133891598Y-86074285D01*
X133834456Y-86188571D01*
X133777313Y-86245714D01*
X133663027Y-86302857D01*
X133205884Y-86302857D01*
X133205884Y-85102857D01*
X133605884Y-85102857D01*
X133720170Y-85160000D01*
X133777313Y-85217142D01*
X133834456Y-85331428D01*
X133834456Y-85445714D01*
X133777313Y-85560000D01*
X133720170Y-85617142D01*
X133605884Y-85674285D01*
X133205884Y-85674285D01*
X134634456Y-85731428D02*
X134634456Y-86302857D01*
X134234456Y-85102857D02*
X134634456Y-85731428D01*
X135034456Y-85102857D01*
X135434456Y-85845714D02*
X136348741Y-85845714D01*
X136863027Y-86245714D02*
X137034456Y-86302857D01*
X137320170Y-86302857D01*
X137434456Y-86245714D01*
X137491598Y-86188571D01*
X137548741Y-86074285D01*
X137548741Y-85960000D01*
X137491598Y-85845714D01*
X137434456Y-85788571D01*
X137320170Y-85731428D01*
X137091598Y-85674285D01*
X136977313Y-85617142D01*
X136920170Y-85560000D01*
X136863027Y-85445714D01*
X136863027Y-85331428D01*
X136920170Y-85217142D01*
X136977313Y-85160000D01*
X137091598Y-85102857D01*
X137377313Y-85102857D01*
X137548741Y-85160000D01*
X138005884Y-85960000D02*
X138577313Y-85960000D01*
X137891598Y-86302857D02*
X138291598Y-85102857D01*
X138691598Y-86302857D01*
D11*
X194502380Y-86879523D02*
X193502380Y-86879523D01*
X193502380Y-86498571D01*
X193550000Y-86403333D01*
X193597619Y-86355714D01*
X193692857Y-86308095D01*
X193835714Y-86308095D01*
X193930952Y-86355714D01*
X193978571Y-86403333D01*
X194026190Y-86498571D01*
X194026190Y-86879523D01*
X193502380Y-85974761D02*
X194502380Y-85736666D01*
X193788095Y-85546190D01*
X194502380Y-85355714D01*
X193502380Y-85117619D01*
X194502380Y-84165238D02*
X194026190Y-84498571D01*
X194502380Y-84736666D02*
X193502380Y-84736666D01*
X193502380Y-84355714D01*
X193550000Y-84260476D01*
X193597619Y-84212857D01*
X193692857Y-84165238D01*
X193835714Y-84165238D01*
X193930952Y-84212857D01*
X193978571Y-84260476D01*
X194026190Y-84355714D01*
X194026190Y-84736666D01*
X194502380Y-83212857D02*
X194502380Y-83784285D01*
X194502380Y-83498571D02*
X193502380Y-83498571D01*
X193645238Y-83593809D01*
X193740476Y-83689047D01*
X193788095Y-83784285D01*
D12*
X99453851Y-117262282D02*
X99252767Y-116975020D01*
X99109136Y-117262282D02*
X99109136Y-116659032D01*
X99338946Y-116659032D01*
X99396398Y-116687759D01*
X99425125Y-116716485D01*
X99453851Y-116773937D01*
X99453851Y-116860116D01*
X99425125Y-116917568D01*
X99396398Y-116946294D01*
X99338946Y-116975020D01*
X99109136Y-116975020D01*
X99712386Y-116946294D02*
X99913470Y-116946294D01*
X99999648Y-117262282D02*
X99712386Y-117262282D01*
X99712386Y-116659032D01*
X99999648Y-116659032D01*
X100229458Y-117233556D02*
X100315636Y-117262282D01*
X100459267Y-117262282D01*
X100516720Y-117233556D01*
X100545446Y-117204830D01*
X100574172Y-117147378D01*
X100574172Y-117089925D01*
X100545446Y-117032473D01*
X100516720Y-117003747D01*
X100459267Y-116975020D01*
X100344363Y-116946294D01*
X100286910Y-116917568D01*
X100258184Y-116888842D01*
X100229458Y-116831389D01*
X100229458Y-116773937D01*
X100258184Y-116716485D01*
X100286910Y-116687759D01*
X100344363Y-116659032D01*
X100487994Y-116659032D01*
X100574172Y-116687759D01*
X100832708Y-116946294D02*
X101033791Y-116946294D01*
X101119970Y-117262282D02*
X100832708Y-117262282D01*
X100832708Y-116659032D01*
X101119970Y-116659032D01*
X101292327Y-116659032D02*
X101637041Y-116659032D01*
X101464684Y-117262282D02*
X101464684Y-116659032D01*
X98821875Y-118204789D02*
X98908053Y-118233515D01*
X99051684Y-118233515D01*
X99109136Y-118204789D01*
X99137863Y-118176063D01*
X99166589Y-118118611D01*
X99166589Y-118061158D01*
X99137863Y-118003706D01*
X99109136Y-117974980D01*
X99051684Y-117946253D01*
X98936779Y-117917527D01*
X98879327Y-117888801D01*
X98850601Y-117860075D01*
X98821875Y-117802622D01*
X98821875Y-117745170D01*
X98850601Y-117687718D01*
X98879327Y-117658992D01*
X98936779Y-117630265D01*
X99080410Y-117630265D01*
X99166589Y-117658992D01*
X99367672Y-117630265D02*
X99511303Y-118233515D01*
X99626208Y-117802622D01*
X99741113Y-118233515D01*
X99884744Y-117630265D01*
X100114553Y-118233515D02*
X100114553Y-117630265D01*
X100315636Y-117630265D02*
X100660351Y-117630265D01*
X100487994Y-118233515D02*
X100487994Y-117630265D01*
X101206148Y-118176063D02*
X101177422Y-118204789D01*
X101091244Y-118233515D01*
X101033791Y-118233515D01*
X100947613Y-118204789D01*
X100890160Y-118147337D01*
X100861434Y-118089884D01*
X100832708Y-117974980D01*
X100832708Y-117888801D01*
X100861434Y-117773896D01*
X100890160Y-117716444D01*
X100947613Y-117658992D01*
X101033791Y-117630265D01*
X101091244Y-117630265D01*
X101177422Y-117658992D01*
X101206148Y-117687718D01*
X101464684Y-118233515D02*
X101464684Y-117630265D01*
X101464684Y-117917527D02*
X101809398Y-117917527D01*
X101809398Y-118233515D02*
X101809398Y-117630265D01*
D13*
X108637009Y-117439452D02*
X108637009Y-118220804D01*
X108682971Y-118312728D01*
X108728933Y-118358690D01*
X108820857Y-118404652D01*
X109004704Y-118404652D01*
X109096628Y-118358690D01*
X109142590Y-118312728D01*
X109188552Y-118220804D01*
X109188552Y-117439452D01*
X109602209Y-118358690D02*
X109740095Y-118404652D01*
X109969904Y-118404652D01*
X110061828Y-118358690D01*
X110107790Y-118312728D01*
X110153752Y-118220804D01*
X110153752Y-118128880D01*
X110107790Y-118036956D01*
X110061828Y-117990994D01*
X109969904Y-117945033D01*
X109786057Y-117899071D01*
X109694133Y-117853109D01*
X109648171Y-117807147D01*
X109602209Y-117715223D01*
X109602209Y-117623299D01*
X109648171Y-117531375D01*
X109694133Y-117485414D01*
X109786057Y-117439452D01*
X110015866Y-117439452D01*
X110153752Y-117485414D01*
X110889142Y-117899071D02*
X111027028Y-117945033D01*
X111072990Y-117990994D01*
X111118952Y-118082918D01*
X111118952Y-118220804D01*
X111072990Y-118312728D01*
X111027028Y-118358690D01*
X110935104Y-118404652D01*
X110567409Y-118404652D01*
X110567409Y-117439452D01*
X110889142Y-117439452D01*
X110981066Y-117485414D01*
X111027028Y-117531375D01*
X111072990Y-117623299D01*
X111072990Y-117715223D01*
X111027028Y-117807147D01*
X110981066Y-117853109D01*
X110889142Y-117899071D01*
X110567409Y-117899071D01*
X107832676Y-119958624D02*
X107832676Y-118993424D01*
X108154409Y-119682852D01*
X108476142Y-118993424D01*
X108476142Y-119958624D01*
X108935761Y-119958624D02*
X108935761Y-118993424D01*
X109946923Y-119866700D02*
X109900961Y-119912662D01*
X109763076Y-119958624D01*
X109671152Y-119958624D01*
X109533266Y-119912662D01*
X109441342Y-119820738D01*
X109395380Y-119728814D01*
X109349419Y-119544966D01*
X109349419Y-119407081D01*
X109395380Y-119223233D01*
X109441342Y-119131309D01*
X109533266Y-119039386D01*
X109671152Y-118993424D01*
X109763076Y-118993424D01*
X109900961Y-119039386D01*
X109946923Y-119085347D01*
X110912123Y-119958624D02*
X110590390Y-119499005D01*
X110360580Y-119958624D02*
X110360580Y-118993424D01*
X110728276Y-118993424D01*
X110820200Y-119039386D01*
X110866161Y-119085347D01*
X110912123Y-119177271D01*
X110912123Y-119315157D01*
X110866161Y-119407081D01*
X110820200Y-119453043D01*
X110728276Y-119499005D01*
X110360580Y-119499005D01*
X111509628Y-118993424D02*
X111693476Y-118993424D01*
X111785400Y-119039386D01*
X111877323Y-119131309D01*
X111923285Y-119315157D01*
X111923285Y-119636890D01*
X111877323Y-119820738D01*
X111785400Y-119912662D01*
X111693476Y-119958624D01*
X111509628Y-119958624D01*
X111417704Y-119912662D01*
X111325780Y-119820738D01*
X111279819Y-119636890D01*
X111279819Y-119315157D01*
X111325780Y-119131309D01*
X111417704Y-119039386D01*
X111509628Y-118993424D01*
D14*
X105704640Y-88672433D02*
X106348106Y-88672433D01*
X105575946Y-89058513D02*
X106026373Y-87707233D01*
X106476800Y-89058513D01*
X106927226Y-89058513D02*
X106927226Y-87707233D01*
X107699386Y-89058513D01*
X107699386Y-87707233D01*
X108149813Y-87707233D02*
X108921973Y-87707233D01*
X108535893Y-89058513D02*
X108535893Y-87707233D01*
X109372400Y-88350700D02*
X109822826Y-88350700D01*
X110015866Y-89058513D02*
X109372400Y-89058513D01*
X109372400Y-87707233D01*
X110015866Y-87707233D01*
X110594986Y-89058513D02*
X110594986Y-87707233D01*
X111367146Y-89058513D01*
X111367146Y-87707233D01*
X112010613Y-89058513D02*
X112010613Y-87707233D01*
X112782773Y-89058513D01*
X112782773Y-87707233D01*
X113361893Y-88672433D02*
X114005360Y-88672433D01*
X113233200Y-89058513D02*
X113683626Y-87707233D01*
X114134053Y-89058513D01*
X103999453Y-91234074D02*
X103999453Y-89882794D01*
X104771613Y-91234074D02*
X104192493Y-90461914D01*
X104771613Y-89882794D02*
X103999453Y-90654954D01*
X105350733Y-90526261D02*
X105801160Y-90526261D01*
X105994200Y-91234074D02*
X105350733Y-91234074D01*
X105350733Y-89882794D01*
X105994200Y-89882794D01*
X106573320Y-90526261D02*
X107023746Y-90526261D01*
X107216786Y-91234074D02*
X106573320Y-91234074D01*
X106573320Y-89882794D01*
X107216786Y-89882794D01*
X107795906Y-91234074D02*
X107795906Y-89882794D01*
X108310680Y-89882794D01*
X108439373Y-89947141D01*
X108503720Y-90011487D01*
X108568066Y-90140181D01*
X108568066Y-90333221D01*
X108503720Y-90461914D01*
X108439373Y-90526261D01*
X108310680Y-90590607D01*
X107795906Y-90590607D01*
X110948893Y-91105381D02*
X110884546Y-91169727D01*
X110691506Y-91234074D01*
X110562813Y-91234074D01*
X110369773Y-91169727D01*
X110241080Y-91041034D01*
X110176733Y-90912341D01*
X110112386Y-90654954D01*
X110112386Y-90461914D01*
X110176733Y-90204527D01*
X110241080Y-90075834D01*
X110369773Y-89947141D01*
X110562813Y-89882794D01*
X110691506Y-89882794D01*
X110884546Y-89947141D01*
X110948893Y-90011487D01*
X112171480Y-91234074D02*
X111528013Y-91234074D01*
X111528013Y-89882794D01*
X112621906Y-90526261D02*
X113072333Y-90526261D01*
X113265373Y-91234074D02*
X112621906Y-91234074D01*
X112621906Y-89882794D01*
X113265373Y-89882794D01*
X113780146Y-90847994D02*
X114423613Y-90847994D01*
X113651453Y-91234074D02*
X114101880Y-89882794D01*
X114552306Y-91234074D01*
X115774893Y-91234074D02*
X115324466Y-90590607D01*
X115002733Y-91234074D02*
X115002733Y-89882794D01*
X115517506Y-89882794D01*
X115646200Y-89947141D01*
X115710546Y-90011487D01*
X115774893Y-90140181D01*
X115774893Y-90333221D01*
X115710546Y-90461914D01*
X115646200Y-90526261D01*
X115517506Y-90590607D01*
X115002733Y-90590607D01*
D15*
X118803347Y-94580528D02*
X119217004Y-94580528D01*
X119010176Y-95304428D02*
X119010176Y-94580528D01*
X119389361Y-94580528D02*
X119871961Y-95304428D01*
X119871961Y-94580528D02*
X119389361Y-95304428D01*
X119148061Y-97844428D02*
X118906761Y-97499714D01*
X118734404Y-97844428D02*
X118734404Y-97120528D01*
X119010176Y-97120528D01*
X119079118Y-97155000D01*
X119113590Y-97189471D01*
X119148061Y-97258414D01*
X119148061Y-97361828D01*
X119113590Y-97430771D01*
X119079118Y-97465242D01*
X119010176Y-97499714D01*
X118734404Y-97499714D01*
X119389361Y-97120528D02*
X119871961Y-97844428D01*
X119871961Y-97120528D02*
X119389361Y-97844428D01*
X118734404Y-100384428D02*
X118734404Y-99660528D01*
X118906761Y-99660528D01*
X119010176Y-99695000D01*
X119079118Y-99763942D01*
X119113590Y-99832885D01*
X119148061Y-99970771D01*
X119148061Y-100074185D01*
X119113590Y-100212071D01*
X119079118Y-100281014D01*
X119010176Y-100349957D01*
X118906761Y-100384428D01*
X118734404Y-100384428D01*
X119837490Y-100384428D02*
X119423833Y-100384428D01*
X119630661Y-100384428D02*
X119630661Y-99660528D01*
X119561718Y-99763942D01*
X119492776Y-99832885D01*
X119423833Y-99867357D01*
X118734404Y-102924428D02*
X118734404Y-102200528D01*
X118906761Y-102200528D01*
X119010176Y-102235000D01*
X119079118Y-102303942D01*
X119113590Y-102372885D01*
X119148061Y-102510771D01*
X119148061Y-102614185D01*
X119113590Y-102752071D01*
X119079118Y-102821014D01*
X119010176Y-102889957D01*
X118906761Y-102924428D01*
X118734404Y-102924428D01*
X119423833Y-102269471D02*
X119458304Y-102235000D01*
X119527247Y-102200528D01*
X119699604Y-102200528D01*
X119768547Y-102235000D01*
X119803018Y-102269471D01*
X119837490Y-102338414D01*
X119837490Y-102407357D01*
X119803018Y-102510771D01*
X119389361Y-102924428D01*
X119837490Y-102924428D01*
X118734404Y-105464428D02*
X118734404Y-104740528D01*
X118906761Y-104740528D01*
X119010176Y-104775000D01*
X119079118Y-104843942D01*
X119113590Y-104912885D01*
X119148061Y-105050771D01*
X119148061Y-105154185D01*
X119113590Y-105292071D01*
X119079118Y-105361014D01*
X119010176Y-105429957D01*
X118906761Y-105464428D01*
X118734404Y-105464428D01*
X119389361Y-104740528D02*
X119837490Y-104740528D01*
X119596190Y-105016300D01*
X119699604Y-105016300D01*
X119768547Y-105050771D01*
X119803018Y-105085242D01*
X119837490Y-105154185D01*
X119837490Y-105326542D01*
X119803018Y-105395485D01*
X119768547Y-105429957D01*
X119699604Y-105464428D01*
X119492776Y-105464428D01*
X119423833Y-105429957D01*
X119389361Y-105395485D01*
X118734404Y-108004428D02*
X118734404Y-107280528D01*
X118906761Y-107280528D01*
X119010176Y-107315000D01*
X119079118Y-107383942D01*
X119113590Y-107452885D01*
X119148061Y-107590771D01*
X119148061Y-107694185D01*
X119113590Y-107832071D01*
X119079118Y-107901014D01*
X119010176Y-107969957D01*
X118906761Y-108004428D01*
X118734404Y-108004428D01*
X119768547Y-107521828D02*
X119768547Y-108004428D01*
X119596190Y-107246057D02*
X119423833Y-107763128D01*
X119871961Y-107763128D01*
X118320747Y-109855000D02*
X118251804Y-109820528D01*
X118148390Y-109820528D01*
X118044976Y-109855000D01*
X117976033Y-109923942D01*
X117941561Y-109992885D01*
X117907090Y-110130771D01*
X117907090Y-110234185D01*
X117941561Y-110372071D01*
X117976033Y-110441014D01*
X118044976Y-110509957D01*
X118148390Y-110544428D01*
X118217333Y-110544428D01*
X118320747Y-110509957D01*
X118355218Y-110475485D01*
X118355218Y-110234185D01*
X118217333Y-110234185D01*
X118665461Y-110544428D02*
X118665461Y-109820528D01*
X119079118Y-110544428D01*
X119079118Y-109820528D01*
X119423833Y-110544428D02*
X119423833Y-109820528D01*
X119596190Y-109820528D01*
X119699604Y-109855000D01*
X119768547Y-109923942D01*
X119803018Y-109992885D01*
X119837490Y-110130771D01*
X119837490Y-110234185D01*
X119803018Y-110372071D01*
X119768547Y-110441014D01*
X119699604Y-110509957D01*
X119596190Y-110544428D01*
X119423833Y-110544428D01*
X119182533Y-112360528D02*
X118837818Y-112360528D01*
X118803347Y-112705242D01*
X118837818Y-112670771D01*
X118906761Y-112636300D01*
X119079118Y-112636300D01*
X119148061Y-112670771D01*
X119182533Y-112705242D01*
X119217004Y-112774185D01*
X119217004Y-112946542D01*
X119182533Y-113015485D01*
X119148061Y-113049957D01*
X119079118Y-113084428D01*
X118906761Y-113084428D01*
X118837818Y-113049957D01*
X118803347Y-113015485D01*
X119423833Y-112360528D02*
X119665133Y-113084428D01*
X119906433Y-112360528D01*
X99838038Y-111998578D02*
X100286166Y-111998578D01*
X100044866Y-112274350D01*
X100148281Y-112274350D01*
X100217224Y-112308821D01*
X100251695Y-112343292D01*
X100286166Y-112412235D01*
X100286166Y-112584592D01*
X100251695Y-112653535D01*
X100217224Y-112688007D01*
X100148281Y-112722478D01*
X99941452Y-112722478D01*
X99872509Y-112688007D01*
X99838038Y-112653535D01*
X100492995Y-111998578D02*
X100734295Y-112722478D01*
X100975595Y-111998578D01*
X101147952Y-111998578D02*
X101596081Y-111998578D01*
X101354781Y-112274350D01*
X101458195Y-112274350D01*
X101527138Y-112308821D01*
X101561609Y-112343292D01*
X101596081Y-112412235D01*
X101596081Y-112584592D01*
X101561609Y-112653535D01*
X101527138Y-112688007D01*
X101458195Y-112722478D01*
X101251366Y-112722478D01*
X101182424Y-112688007D01*
X101147952Y-112653535D01*
X99906981Y-110182478D02*
X99906981Y-109458578D01*
X100079338Y-109458578D01*
X100182752Y-109493050D01*
X100251695Y-109561992D01*
X100286166Y-109630935D01*
X100320638Y-109768821D01*
X100320638Y-109872235D01*
X100286166Y-110010121D01*
X100251695Y-110079064D01*
X100182752Y-110148007D01*
X100079338Y-110182478D01*
X99906981Y-110182478D01*
X100734295Y-109768821D02*
X100665352Y-109734350D01*
X100630881Y-109699878D01*
X100596409Y-109630935D01*
X100596409Y-109596464D01*
X100630881Y-109527521D01*
X100665352Y-109493050D01*
X100734295Y-109458578D01*
X100872181Y-109458578D01*
X100941124Y-109493050D01*
X100975595Y-109527521D01*
X101010066Y-109596464D01*
X101010066Y-109630935D01*
X100975595Y-109699878D01*
X100941124Y-109734350D01*
X100872181Y-109768821D01*
X100734295Y-109768821D01*
X100665352Y-109803292D01*
X100630881Y-109837764D01*
X100596409Y-109906707D01*
X100596409Y-110044592D01*
X100630881Y-110113535D01*
X100665352Y-110148007D01*
X100734295Y-110182478D01*
X100872181Y-110182478D01*
X100941124Y-110148007D01*
X100975595Y-110113535D01*
X101010066Y-110044592D01*
X101010066Y-109906707D01*
X100975595Y-109837764D01*
X100941124Y-109803292D01*
X100872181Y-109768821D01*
X99906981Y-107642478D02*
X99906981Y-106918578D01*
X100079338Y-106918578D01*
X100182752Y-106953050D01*
X100251695Y-107021992D01*
X100286166Y-107090935D01*
X100320638Y-107228821D01*
X100320638Y-107332235D01*
X100286166Y-107470121D01*
X100251695Y-107539064D01*
X100182752Y-107608007D01*
X100079338Y-107642478D01*
X99906981Y-107642478D01*
X100561938Y-106918578D02*
X101044538Y-106918578D01*
X100734295Y-107642478D01*
X99906981Y-105102478D02*
X99906981Y-104378578D01*
X100079338Y-104378578D01*
X100182752Y-104413050D01*
X100251695Y-104481992D01*
X100286166Y-104550935D01*
X100320638Y-104688821D01*
X100320638Y-104792235D01*
X100286166Y-104930121D01*
X100251695Y-104999064D01*
X100182752Y-105068007D01*
X100079338Y-105102478D01*
X99906981Y-105102478D01*
X100941124Y-104378578D02*
X100803238Y-104378578D01*
X100734295Y-104413050D01*
X100699824Y-104447521D01*
X100630881Y-104550935D01*
X100596409Y-104688821D01*
X100596409Y-104964592D01*
X100630881Y-105033535D01*
X100665352Y-105068007D01*
X100734295Y-105102478D01*
X100872181Y-105102478D01*
X100941124Y-105068007D01*
X100975595Y-105033535D01*
X101010066Y-104964592D01*
X101010066Y-104792235D01*
X100975595Y-104723292D01*
X100941124Y-104688821D01*
X100872181Y-104654350D01*
X100734295Y-104654350D01*
X100665352Y-104688821D01*
X100630881Y-104723292D01*
X100596409Y-104792235D01*
X99906981Y-102562478D02*
X99906981Y-101838578D01*
X100079338Y-101838578D01*
X100182752Y-101873050D01*
X100251695Y-101941992D01*
X100286166Y-102010935D01*
X100320638Y-102148821D01*
X100320638Y-102252235D01*
X100286166Y-102390121D01*
X100251695Y-102459064D01*
X100182752Y-102528007D01*
X100079338Y-102562478D01*
X99906981Y-102562478D01*
X100975595Y-101838578D02*
X100630881Y-101838578D01*
X100596409Y-102183292D01*
X100630881Y-102148821D01*
X100699824Y-102114350D01*
X100872181Y-102114350D01*
X100941124Y-102148821D01*
X100975595Y-102183292D01*
X101010066Y-102252235D01*
X101010066Y-102424592D01*
X100975595Y-102493535D01*
X100941124Y-102528007D01*
X100872181Y-102562478D01*
X100699824Y-102562478D01*
X100630881Y-102528007D01*
X100596409Y-102493535D01*
X99906981Y-100022478D02*
X99906981Y-99298578D01*
X100079338Y-99298578D01*
X100182752Y-99333050D01*
X100251695Y-99401992D01*
X100286166Y-99470935D01*
X100320638Y-99608821D01*
X100320638Y-99712235D01*
X100286166Y-99850121D01*
X100251695Y-99919064D01*
X100182752Y-99988007D01*
X100079338Y-100022478D01*
X99906981Y-100022478D01*
X100768766Y-99298578D02*
X100837709Y-99298578D01*
X100906652Y-99333050D01*
X100941124Y-99367521D01*
X100975595Y-99436464D01*
X101010066Y-99574350D01*
X101010066Y-99746707D01*
X100975595Y-99884592D01*
X100941124Y-99953535D01*
X100906652Y-99988007D01*
X100837709Y-100022478D01*
X100768766Y-100022478D01*
X100699824Y-99988007D01*
X100665352Y-99953535D01*
X100630881Y-99884592D01*
X100596409Y-99746707D01*
X100596409Y-99574350D01*
X100630881Y-99436464D01*
X100665352Y-99367521D01*
X100699824Y-99333050D01*
X100768766Y-99298578D01*
X99872509Y-97275650D02*
X100217224Y-97275650D01*
X99803566Y-97482478D02*
X100044866Y-96758578D01*
X100286166Y-97482478D01*
X100665352Y-96758578D02*
X100734295Y-96758578D01*
X100803238Y-96793050D01*
X100837709Y-96827521D01*
X100872181Y-96896464D01*
X100906652Y-97034350D01*
X100906652Y-97206707D01*
X100872181Y-97344592D01*
X100837709Y-97413535D01*
X100803238Y-97448007D01*
X100734295Y-97482478D01*
X100665352Y-97482478D01*
X100596409Y-97448007D01*
X100561938Y-97413535D01*
X100527466Y-97344592D01*
X100492995Y-97206707D01*
X100492995Y-97034350D01*
X100527466Y-96896464D01*
X100561938Y-96827521D01*
X100596409Y-96793050D01*
X100665352Y-96758578D01*
X100320638Y-94942478D02*
X100079338Y-94597764D01*
X99906981Y-94942478D02*
X99906981Y-94218578D01*
X100182752Y-94218578D01*
X100251695Y-94253050D01*
X100286166Y-94287521D01*
X100320638Y-94356464D01*
X100320638Y-94459878D01*
X100286166Y-94528821D01*
X100251695Y-94563292D01*
X100182752Y-94597764D01*
X99906981Y-94597764D01*
X100596409Y-94908007D02*
X100699824Y-94942478D01*
X100872181Y-94942478D01*
X100941124Y-94908007D01*
X100975595Y-94873535D01*
X101010066Y-94804592D01*
X101010066Y-94735650D01*
X100975595Y-94666707D01*
X100941124Y-94632235D01*
X100872181Y-94597764D01*
X100734295Y-94563292D01*
X100665352Y-94528821D01*
X100630881Y-94494350D01*
X100596409Y-94425407D01*
X100596409Y-94356464D01*
X100630881Y-94287521D01*
X100665352Y-94253050D01*
X100734295Y-94218578D01*
X100906652Y-94218578D01*
X101010066Y-94253050D01*
X101216895Y-94218578D02*
X101630552Y-94218578D01*
X101423724Y-94942478D02*
X101423724Y-94218578D01*
D14*
X114261595Y-119049800D02*
X115291141Y-119435880D01*
X114261595Y-119821960D01*
X115934608Y-119950653D02*
X115934608Y-118599373D01*
X116706768Y-119950653D01*
X116706768Y-118599373D01*
X117929355Y-119950653D02*
X117929355Y-119242840D01*
X117865008Y-119114146D01*
X117736315Y-119049800D01*
X117478928Y-119049800D01*
X117350235Y-119114146D01*
X117929355Y-119886306D02*
X117800661Y-119950653D01*
X117478928Y-119950653D01*
X117350235Y-119886306D01*
X117285888Y-119757613D01*
X117285888Y-119628920D01*
X117350235Y-119500226D01*
X117478928Y-119435880D01*
X117800661Y-119435880D01*
X117929355Y-119371533D01*
X118572821Y-119950653D02*
X118572821Y-119049800D01*
X118572821Y-119178493D02*
X118637168Y-119114146D01*
X118765861Y-119049800D01*
X118958901Y-119049800D01*
X119087595Y-119114146D01*
X119151941Y-119242840D01*
X119151941Y-119950653D01*
X119151941Y-119242840D02*
X119216288Y-119114146D01*
X119344981Y-119049800D01*
X119538021Y-119049800D01*
X119666715Y-119114146D01*
X119731061Y-119242840D01*
X119731061Y-119950653D01*
X120889301Y-119886306D02*
X120760608Y-119950653D01*
X120503221Y-119950653D01*
X120374528Y-119886306D01*
X120310181Y-119757613D01*
X120310181Y-119242840D01*
X120374528Y-119114146D01*
X120503221Y-119049800D01*
X120760608Y-119049800D01*
X120889301Y-119114146D01*
X120953648Y-119242840D01*
X120953648Y-119371533D01*
X120310181Y-119500226D01*
X106312004Y-104993812D02*
X106633738Y-106345092D01*
X106891124Y-105379892D01*
X107148511Y-106345092D01*
X107470244Y-104993812D01*
X108499791Y-106280745D02*
X108371098Y-106345092D01*
X108113711Y-106345092D01*
X107985018Y-106280745D01*
X107920671Y-106152052D01*
X107920671Y-105637279D01*
X107985018Y-105508585D01*
X108113711Y-105444239D01*
X108371098Y-105444239D01*
X108499791Y-105508585D01*
X108564138Y-105637279D01*
X108564138Y-105765972D01*
X107920671Y-105894665D01*
X109143258Y-106345092D02*
X109143258Y-104993812D01*
X109593684Y-105959012D01*
X110044111Y-104993812D01*
X110044111Y-106345092D01*
X110880618Y-106345092D02*
X110751924Y-106280745D01*
X110687578Y-106216399D01*
X110623231Y-106087705D01*
X110623231Y-105701625D01*
X110687578Y-105572932D01*
X110751924Y-105508585D01*
X110880618Y-105444239D01*
X111073658Y-105444239D01*
X111202351Y-105508585D01*
X111266698Y-105572932D01*
X111331044Y-105701625D01*
X111331044Y-106087705D01*
X111266698Y-106216399D01*
X111202351Y-106280745D01*
X111073658Y-106345092D01*
X110880618Y-106345092D01*
X111845818Y-106280745D02*
X111974511Y-106345092D01*
X112231898Y-106345092D01*
X112360591Y-106280745D01*
X112424938Y-106152052D01*
X112424938Y-106087705D01*
X112360591Y-105959012D01*
X112231898Y-105894665D01*
X112038858Y-105894665D01*
X111910164Y-105830319D01*
X111845818Y-105701625D01*
X111845818Y-105637279D01*
X111910164Y-105508585D01*
X112038858Y-105444239D01*
X112231898Y-105444239D01*
X112360591Y-105508585D01*
X113004058Y-106216399D02*
X113068404Y-106280745D01*
X113004058Y-106345092D01*
X112939711Y-106280745D01*
X113004058Y-106216399D01*
X113004058Y-106345092D01*
X114226644Y-106280745D02*
X114097951Y-106345092D01*
X113840564Y-106345092D01*
X113711871Y-106280745D01*
X113647524Y-106216399D01*
X113583178Y-106087705D01*
X113583178Y-105701625D01*
X113647524Y-105572932D01*
X113711871Y-105508585D01*
X113840564Y-105444239D01*
X114097951Y-105444239D01*
X114226644Y-105508585D01*
X115384884Y-106280745D02*
X115256191Y-106345092D01*
X114998804Y-106345092D01*
X114870111Y-106280745D01*
X114805764Y-106216399D01*
X114741418Y-106087705D01*
X114741418Y-105701625D01*
X114805764Y-105572932D01*
X114870111Y-105508585D01*
X114998804Y-105444239D01*
X115256191Y-105444239D01*
X115384884Y-105508585D01*
X106440698Y-108520653D02*
X106440698Y-107169373D01*
X106762431Y-107169373D01*
X106955471Y-107233720D01*
X107084164Y-107362413D01*
X107148511Y-107491106D01*
X107212858Y-107748493D01*
X107212858Y-107941533D01*
X107148511Y-108198920D01*
X107084164Y-108327613D01*
X106955471Y-108456306D01*
X106762431Y-108520653D01*
X106440698Y-108520653D01*
X108499791Y-108520653D02*
X107727631Y-108520653D01*
X108113711Y-108520653D02*
X108113711Y-107169373D01*
X107985018Y-107362413D01*
X107856324Y-107491106D01*
X107727631Y-107555453D01*
X110108458Y-108520653D02*
X110108458Y-107619800D01*
X110108458Y-107748493D02*
X110172804Y-107684146D01*
X110301498Y-107619800D01*
X110494538Y-107619800D01*
X110623231Y-107684146D01*
X110687578Y-107812840D01*
X110687578Y-108520653D01*
X110687578Y-107812840D02*
X110751924Y-107684146D01*
X110880618Y-107619800D01*
X111073658Y-107619800D01*
X111202351Y-107684146D01*
X111266698Y-107812840D01*
X111266698Y-108520653D01*
X111910164Y-108520653D02*
X111910164Y-107619800D01*
X111910164Y-107169373D02*
X111845818Y-107233720D01*
X111910164Y-107298066D01*
X111974511Y-107233720D01*
X111910164Y-107169373D01*
X111910164Y-107298066D01*
X112553631Y-107619800D02*
X112553631Y-108520653D01*
X112553631Y-107748493D02*
X112617978Y-107684146D01*
X112746671Y-107619800D01*
X112939711Y-107619800D01*
X113068404Y-107684146D01*
X113132751Y-107812840D01*
X113132751Y-108520653D01*
X113776218Y-108520653D02*
X113776218Y-107619800D01*
X113776218Y-107169373D02*
X113711871Y-107233720D01*
X113776218Y-107298066D01*
X113840564Y-107233720D01*
X113776218Y-107169373D01*
X113776218Y-107298066D01*
D16*
X127577447Y-113362759D02*
X128439233Y-113362759D01*
X128611590Y-113420211D01*
X128726495Y-113535116D01*
X128783947Y-113707473D01*
X128783947Y-113822378D01*
X128783947Y-112788235D02*
X127577447Y-112788235D01*
X127577447Y-112328616D01*
X127634900Y-112213711D01*
X127692352Y-112156259D01*
X127807257Y-112098807D01*
X127979614Y-112098807D01*
X128094519Y-112156259D01*
X128151971Y-112213711D01*
X128209423Y-112328616D01*
X128209423Y-112788235D01*
X128783947Y-110949759D02*
X128783947Y-111639188D01*
X128783947Y-111294473D02*
X127577447Y-111294473D01*
X127749804Y-111409378D01*
X127864709Y-111524283D01*
X127922161Y-111639188D01*
X139223347Y-120235273D02*
X140085133Y-120235273D01*
X140257490Y-120292726D01*
X140372395Y-120407630D01*
X140429847Y-120579988D01*
X140429847Y-120694892D01*
X140429847Y-119660750D02*
X139223347Y-119660750D01*
X139223347Y-119201130D01*
X139280800Y-119086226D01*
X139338252Y-119028773D01*
X139453157Y-118971321D01*
X139625514Y-118971321D01*
X139740419Y-119028773D01*
X139797871Y-119086226D01*
X139855323Y-119201130D01*
X139855323Y-119660750D01*
X139338252Y-118511702D02*
X139280800Y-118454250D01*
X139223347Y-118339345D01*
X139223347Y-118052083D01*
X139280800Y-117937178D01*
X139338252Y-117879726D01*
X139453157Y-117822273D01*
X139568061Y-117822273D01*
X139740419Y-117879726D01*
X140429847Y-118569154D01*
X140429847Y-117822273D01*
X147897447Y-113362759D02*
X148759233Y-113362759D01*
X148931590Y-113420211D01*
X149046495Y-113535116D01*
X149103947Y-113707473D01*
X149103947Y-113822378D01*
X149103947Y-112788235D02*
X147897447Y-112788235D01*
X147897447Y-112328616D01*
X147954900Y-112213711D01*
X148012352Y-112156259D01*
X148127257Y-112098807D01*
X148299614Y-112098807D01*
X148414519Y-112156259D01*
X148471971Y-112213711D01*
X148529423Y-112328616D01*
X148529423Y-112788235D01*
X147897447Y-111696640D02*
X147897447Y-110949759D01*
X148357066Y-111351926D01*
X148357066Y-111179569D01*
X148414519Y-111064664D01*
X148471971Y-111007211D01*
X148586876Y-110949759D01*
X148874138Y-110949759D01*
X148989042Y-111007211D01*
X149046495Y-111064664D01*
X149103947Y-111179569D01*
X149103947Y-111524283D01*
X149046495Y-111639188D01*
X148989042Y-111696640D01*
X158273347Y-120235273D02*
X159135133Y-120235273D01*
X159307490Y-120292726D01*
X159422395Y-120407630D01*
X159479847Y-120579988D01*
X159479847Y-120694892D01*
X159479847Y-119660750D02*
X158273347Y-119660750D01*
X158273347Y-119201130D01*
X158330800Y-119086226D01*
X158388252Y-119028773D01*
X158503157Y-118971321D01*
X158675514Y-118971321D01*
X158790419Y-119028773D01*
X158847871Y-119086226D01*
X158905323Y-119201130D01*
X158905323Y-119660750D01*
X158675514Y-117937178D02*
X159479847Y-117937178D01*
X158215895Y-118224440D02*
X159077680Y-118511702D01*
X159077680Y-117764821D01*
X166947447Y-113362759D02*
X167809233Y-113362759D01*
X167981590Y-113420211D01*
X168096495Y-113535116D01*
X168153947Y-113707473D01*
X168153947Y-113822378D01*
X168153947Y-112788235D02*
X166947447Y-112788235D01*
X166947447Y-112328616D01*
X167004900Y-112213711D01*
X167062352Y-112156259D01*
X167177257Y-112098807D01*
X167349614Y-112098807D01*
X167464519Y-112156259D01*
X167521971Y-112213711D01*
X167579423Y-112328616D01*
X167579423Y-112788235D01*
X166947447Y-111007211D02*
X166947447Y-111581735D01*
X167521971Y-111639188D01*
X167464519Y-111581735D01*
X167407066Y-111466830D01*
X167407066Y-111179569D01*
X167464519Y-111064664D01*
X167521971Y-111007211D01*
X167636876Y-110949759D01*
X167924138Y-110949759D01*
X168039042Y-111007211D01*
X168096495Y-111064664D01*
X168153947Y-111179569D01*
X168153947Y-111466830D01*
X168096495Y-111581735D01*
X168039042Y-111639188D01*
X177323347Y-120235273D02*
X178185133Y-120235273D01*
X178357490Y-120292726D01*
X178472395Y-120407630D01*
X178529847Y-120579988D01*
X178529847Y-120694892D01*
X178529847Y-119660750D02*
X177323347Y-119660750D01*
X177323347Y-119201130D01*
X177380800Y-119086226D01*
X177438252Y-119028773D01*
X177553157Y-118971321D01*
X177725514Y-118971321D01*
X177840419Y-119028773D01*
X177897871Y-119086226D01*
X177955323Y-119201130D01*
X177955323Y-119660750D01*
X177323347Y-117937178D02*
X177323347Y-118166988D01*
X177380800Y-118281892D01*
X177438252Y-118339345D01*
X177610609Y-118454250D01*
X177840419Y-118511702D01*
X178300038Y-118511702D01*
X178414942Y-118454250D01*
X178472395Y-118396797D01*
X178529847Y-118281892D01*
X178529847Y-118052083D01*
X178472395Y-117937178D01*
X178414942Y-117879726D01*
X178300038Y-117822273D01*
X178012776Y-117822273D01*
X177897871Y-117879726D01*
X177840419Y-117937178D01*
X177782966Y-118052083D01*
X177782966Y-118281892D01*
X177840419Y-118396797D01*
X177897871Y-118454250D01*
X178012776Y-118511702D01*
X185997447Y-113362759D02*
X186859233Y-113362759D01*
X187031590Y-113420211D01*
X187146495Y-113535116D01*
X187203947Y-113707473D01*
X187203947Y-113822378D01*
X187203947Y-112788235D02*
X185997447Y-112788235D01*
X185997447Y-112328616D01*
X186054900Y-112213711D01*
X186112352Y-112156259D01*
X186227257Y-112098807D01*
X186399614Y-112098807D01*
X186514519Y-112156259D01*
X186571971Y-112213711D01*
X186629423Y-112328616D01*
X186629423Y-112788235D01*
X185997447Y-111696640D02*
X185997447Y-110892307D01*
X187203947Y-111409378D01*
X196373347Y-120235273D02*
X197235133Y-120235273D01*
X197407490Y-120292726D01*
X197522395Y-120407630D01*
X197579847Y-120579988D01*
X197579847Y-120694892D01*
X197579847Y-119660750D02*
X196373347Y-119660750D01*
X196373347Y-119201130D01*
X196430800Y-119086226D01*
X196488252Y-119028773D01*
X196603157Y-118971321D01*
X196775514Y-118971321D01*
X196890419Y-119028773D01*
X196947871Y-119086226D01*
X197005323Y-119201130D01*
X197005323Y-119660750D01*
X196890419Y-118281892D02*
X196832966Y-118396797D01*
X196775514Y-118454250D01*
X196660609Y-118511702D01*
X196603157Y-118511702D01*
X196488252Y-118454250D01*
X196430800Y-118396797D01*
X196373347Y-118281892D01*
X196373347Y-118052083D01*
X196430800Y-117937178D01*
X196488252Y-117879726D01*
X196603157Y-117822273D01*
X196660609Y-117822273D01*
X196775514Y-117879726D01*
X196832966Y-117937178D01*
X196890419Y-118052083D01*
X196890419Y-118281892D01*
X196947871Y-118396797D01*
X197005323Y-118454250D01*
X197120228Y-118511702D01*
X197350038Y-118511702D01*
X197464942Y-118454250D01*
X197522395Y-118396797D01*
X197579847Y-118281892D01*
X197579847Y-118052083D01*
X197522395Y-117937178D01*
X197464942Y-117879726D01*
X197350038Y-117822273D01*
X197120228Y-117822273D01*
X197005323Y-117879726D01*
X196947871Y-117937178D01*
X196890419Y-118052083D01*
D10*
X143296116Y-93352700D02*
X143296116Y-93030966D01*
X143376550Y-92870100D01*
X143537416Y-92709233D01*
X143859150Y-92628800D01*
X144422183Y-92628800D01*
X144743916Y-92709233D01*
X144904783Y-92870100D01*
X144985216Y-93030966D01*
X144985216Y-93352700D01*
X144904783Y-93513566D01*
X144743916Y-93674433D01*
X144422183Y-93754866D01*
X143859150Y-93754866D01*
X143537416Y-93674433D01*
X143376550Y-93513566D01*
X143296116Y-93352700D01*
X143296116Y-91904900D02*
X144663483Y-91904900D01*
X144824350Y-91824466D01*
X144904783Y-91744033D01*
X144985216Y-91583166D01*
X144985216Y-91261433D01*
X144904783Y-91100566D01*
X144824350Y-91020133D01*
X144663483Y-90939700D01*
X143296116Y-90939700D01*
X143296116Y-90376666D02*
X143296116Y-89411466D01*
X144985216Y-89894066D02*
X143296116Y-89894066D01*
X184355216Y-92548366D02*
X182666116Y-92548366D01*
X184355216Y-91744033D02*
X182666116Y-91744033D01*
X184355216Y-90778833D01*
X182666116Y-90778833D01*
D16*
X185789711Y-95667728D02*
X186708950Y-95667728D01*
X186249330Y-96127347D02*
X186249330Y-95208109D01*
X187226021Y-95035752D02*
X187283473Y-94978300D01*
X187398378Y-94920847D01*
X187685640Y-94920847D01*
X187800545Y-94978300D01*
X187857997Y-95035752D01*
X187915450Y-95150657D01*
X187915450Y-95265561D01*
X187857997Y-95437919D01*
X187168569Y-96127347D01*
X187915450Y-96127347D01*
X188949592Y-95323014D02*
X188949592Y-96127347D01*
X188662330Y-94863395D02*
X188375069Y-95725180D01*
X189121950Y-95725180D01*
X189409211Y-94920847D02*
X189811378Y-96127347D01*
X190213545Y-94920847D01*
X191247688Y-96127347D02*
X190558259Y-96127347D01*
X190902973Y-96127347D02*
X190902973Y-94920847D01*
X190788069Y-95093204D01*
X190673164Y-95208109D01*
X190558259Y-95265561D01*
D17*
X131246054Y-93485868D02*
X131218477Y-93513445D01*
X131135745Y-93541022D01*
X131080591Y-93541022D01*
X130997860Y-93513445D01*
X130942705Y-93458291D01*
X130915128Y-93403137D01*
X130887551Y-93292828D01*
X130887551Y-93210097D01*
X130915128Y-93099788D01*
X130942705Y-93044634D01*
X130997860Y-92989480D01*
X131080591Y-92961902D01*
X131135745Y-92961902D01*
X131218477Y-92989480D01*
X131246054Y-93017057D01*
X131576980Y-93541022D02*
X131521825Y-93513445D01*
X131494248Y-93485868D01*
X131466671Y-93430714D01*
X131466671Y-93265251D01*
X131494248Y-93210097D01*
X131521825Y-93182520D01*
X131576980Y-93154942D01*
X131659711Y-93154942D01*
X131714865Y-93182520D01*
X131742442Y-93210097D01*
X131770020Y-93265251D01*
X131770020Y-93430714D01*
X131742442Y-93485868D01*
X131714865Y-93513445D01*
X131659711Y-93541022D01*
X131576980Y-93541022D01*
X132018214Y-93154942D02*
X132018214Y-93541022D01*
X132018214Y-93210097D02*
X132045791Y-93182520D01*
X132100945Y-93154942D01*
X132183677Y-93154942D01*
X132238831Y-93182520D01*
X132266408Y-93237674D01*
X132266408Y-93541022D01*
X132459448Y-93154942D02*
X132680065Y-93154942D01*
X132542180Y-93541022D02*
X132542180Y-93044634D01*
X132569757Y-92989480D01*
X132624911Y-92961902D01*
X132680065Y-92961902D01*
X132873105Y-93541022D02*
X132873105Y-93154942D01*
X132873105Y-92961902D02*
X132845528Y-92989480D01*
X132873105Y-93017057D01*
X132900682Y-92989480D01*
X132873105Y-92961902D01*
X132873105Y-93017057D01*
X133397071Y-93154942D02*
X133397071Y-93623754D01*
X133369494Y-93678908D01*
X133341917Y-93706485D01*
X133286762Y-93734062D01*
X133204031Y-93734062D01*
X133148877Y-93706485D01*
X133397071Y-93513445D02*
X133341917Y-93541022D01*
X133231608Y-93541022D01*
X133176454Y-93513445D01*
X133148877Y-93485868D01*
X133121300Y-93430714D01*
X133121300Y-93265251D01*
X133148877Y-93210097D01*
X133176454Y-93182520D01*
X133231608Y-93154942D01*
X133341917Y-93154942D01*
X133397071Y-93182520D01*
D18*
X190700000Y-88870000D02*
X190700000Y-88120000D01*
X190700000Y-88120000D02*
X187750000Y-88120000D01*
X187750000Y-88120000D02*
X187750000Y-85070000D01*
X190700000Y-82020000D02*
X187750000Y-82020000D01*
X192950000Y-85570000D02*
X192950000Y-84570000D01*
X192950000Y-84570000D02*
X192200000Y-84570000D01*
X192200000Y-84570000D02*
X192200000Y-85570000D01*
X192200000Y-87070000D02*
X192200000Y-88870000D01*
X192950000Y-88870000D02*
X192950000Y-87070000D01*
X193250000Y-80970000D02*
X192000000Y-80970000D01*
X192960000Y-81260000D02*
X186990000Y-81260000D01*
X192950000Y-81270000D02*
X192200000Y-81270000D01*
X186990000Y-81260000D02*
X186990000Y-88880000D01*
X192200000Y-85570000D02*
X192950000Y-85570000D01*
X190700000Y-81270000D02*
X190700000Y-82020000D01*
X192200000Y-81270000D02*
X192200000Y-83070000D01*
X193250000Y-82220000D02*
X193250000Y-80970000D01*
X192200000Y-88870000D02*
X192950000Y-88870000D01*
X192950000Y-83070000D02*
X192950000Y-81270000D01*
X192960000Y-88880000D02*
X192960000Y-81260000D01*
X187750000Y-82020000D02*
X187750000Y-85070000D01*
X192950000Y-87070000D02*
X192200000Y-87070000D01*
X186990000Y-88880000D02*
X192960000Y-88880000D01*
X192200000Y-83070000D02*
X192950000Y-83070000D01*
D19*
X102235000Y-120015000D02*
X102235000Y-114935000D01*
X98425000Y-120015000D02*
X102235000Y-120015000D01*
X98425000Y-114935000D02*
X98425000Y-120015000D01*
X102235000Y-114935000D02*
X98425000Y-114935000D01*
X106045000Y-116205000D02*
X106045000Y-121285000D01*
X113665000Y-116205000D02*
X106045000Y-116205000D01*
X113665000Y-121285000D02*
X113665000Y-116205000D01*
X106045000Y-121285000D02*
X113665000Y-121285000D01*
D16*
X101752400Y-111125000D02*
X117729000Y-111125000D01*
X97155000Y-121285000D02*
X122555000Y-121285000D01*
X97155000Y-89535000D02*
X97155000Y-121285000D01*
X122555000Y-89535000D02*
G75*
G03*
X120015000Y-86995000I-2540000J0D01*
G01*
X99695000Y-86995000D02*
G75*
G03*
X97155000Y-89535000I0J-2540000D01*
G01*
X99695000Y-86995000D02*
X120015000Y-86995000D01*
X122555000Y-89535000D02*
X122555000Y-121285000D01*
X117754400Y-92811600D02*
X117754400Y-111125000D01*
X117729000Y-92811600D02*
X117754400Y-92811600D01*
X101752400Y-92811600D02*
X101752400Y-111125000D01*
X101755000Y-92819000D02*
X117755000Y-92819000D01*
X101755000Y-87019000D02*
X117755000Y-87019000D01*
X101755000Y-92819000D02*
X101755000Y-87019000D01*
X117755000Y-87019000D02*
X117755000Y-92819000D01*
D19*
X134061100Y-103093600D02*
G75*
G03*
X135331100Y-103093600I635000J0D01*
G01*
X137236100Y-128493600D02*
X137236100Y-103093600D01*
X132156100Y-128493600D02*
X137236100Y-128493600D01*
X132156100Y-103093600D02*
X132156100Y-128493600D01*
X132156100Y-103093600D02*
X134061100Y-103093600D01*
X137236100Y-103093600D02*
X135331100Y-103093600D01*
X153111100Y-103093600D02*
G75*
G03*
X154381100Y-103093600I635000J0D01*
G01*
X156286100Y-128493600D02*
X156286100Y-103093600D01*
X151206100Y-128493600D02*
X156286100Y-128493600D01*
X151206100Y-103093600D02*
X151206100Y-128493600D01*
X151206100Y-103093600D02*
X153111100Y-103093600D01*
X156286100Y-103093600D02*
X154381100Y-103093600D01*
D20*
X124536100Y-120238600D02*
X124536100Y-118968600D01*
X125171100Y-118333600D02*
X124536100Y-118968600D01*
X127076100Y-118968600D02*
X126441100Y-118333600D01*
X125171100Y-120873600D02*
X124536100Y-120238600D01*
X126441100Y-120873600D02*
X125171100Y-120873600D01*
X127076100Y-120238600D02*
X126441100Y-120873600D01*
X127076100Y-118968600D02*
X127076100Y-120238600D01*
X124536100Y-112618600D02*
X124536100Y-111348600D01*
X125171100Y-110713600D02*
X124536100Y-111348600D01*
X127076100Y-111348600D02*
X126441100Y-110713600D01*
X126441100Y-110713600D02*
X125171100Y-110713600D01*
X124536100Y-113888600D02*
X125171100Y-113253600D01*
X124536100Y-115158600D02*
X124536100Y-113888600D01*
X125171100Y-115793600D02*
X124536100Y-115158600D01*
X126441100Y-115793600D02*
X125171100Y-115793600D01*
X127076100Y-115158600D02*
X126441100Y-115793600D01*
X127076100Y-113888600D02*
X127076100Y-115158600D01*
X126441100Y-113253600D02*
X127076100Y-113888600D01*
X125171100Y-113253600D02*
X124536100Y-112618600D01*
X126441100Y-113253600D02*
X125171100Y-113253600D01*
X127076100Y-112618600D02*
X126441100Y-113253600D01*
X127076100Y-111348600D02*
X127076100Y-112618600D01*
X124536100Y-116428600D02*
X125171100Y-115793600D01*
X124536100Y-117698600D02*
X124536100Y-116428600D01*
X125171100Y-118333600D02*
X124536100Y-117698600D01*
X126441100Y-118333600D02*
X125171100Y-118333600D01*
X127076100Y-117698600D02*
X126441100Y-118333600D01*
X127076100Y-116428600D02*
X127076100Y-117698600D01*
X126441100Y-115793600D02*
X127076100Y-116428600D01*
X143586100Y-111348600D02*
X143586100Y-112618600D01*
X142951100Y-113253600D02*
X143586100Y-112618600D01*
X141046100Y-112618600D02*
X141681100Y-113253600D01*
X142951100Y-110713600D02*
X143586100Y-111348600D01*
X141681100Y-110713600D02*
X142951100Y-110713600D01*
X141046100Y-111348600D02*
X141681100Y-110713600D01*
X141046100Y-112618600D02*
X141046100Y-111348600D01*
X143586100Y-118968600D02*
X143586100Y-120238600D01*
X142951100Y-120873600D02*
X143586100Y-120238600D01*
X141046100Y-120238600D02*
X141681100Y-120873600D01*
X141681100Y-120873600D02*
X142951100Y-120873600D01*
X143586100Y-117698600D02*
X142951100Y-118333600D01*
X143586100Y-116428600D02*
X143586100Y-117698600D01*
X142951100Y-115793600D02*
X143586100Y-116428600D01*
X141681100Y-115793600D02*
X142951100Y-115793600D01*
X141046100Y-116428600D02*
X141681100Y-115793600D01*
X141046100Y-117698600D02*
X141046100Y-116428600D01*
X141681100Y-118333600D02*
X141046100Y-117698600D01*
X142951100Y-118333600D02*
X143586100Y-118968600D01*
X141681100Y-118333600D02*
X142951100Y-118333600D01*
X141046100Y-118968600D02*
X141681100Y-118333600D01*
X141046100Y-120238600D02*
X141046100Y-118968600D01*
X143586100Y-115158600D02*
X142951100Y-115793600D01*
X143586100Y-113888600D02*
X143586100Y-115158600D01*
X142951100Y-113253600D02*
X143586100Y-113888600D01*
X141681100Y-113253600D02*
X142951100Y-113253600D01*
X141046100Y-113888600D02*
X141681100Y-113253600D01*
X141046100Y-115158600D02*
X141046100Y-113888600D01*
X141681100Y-115793600D02*
X141046100Y-115158600D01*
X144856100Y-120238600D02*
X144856100Y-118968600D01*
X145491100Y-118333600D02*
X144856100Y-118968600D01*
X147396100Y-118968600D02*
X146761100Y-118333600D01*
X145491100Y-120873600D02*
X144856100Y-120238600D01*
X146761100Y-120873600D02*
X145491100Y-120873600D01*
X147396100Y-120238600D02*
X146761100Y-120873600D01*
X147396100Y-118968600D02*
X147396100Y-120238600D01*
X144856100Y-112618600D02*
X144856100Y-111348600D01*
X145491100Y-110713600D02*
X144856100Y-111348600D01*
X147396100Y-111348600D02*
X146761100Y-110713600D01*
X146761100Y-110713600D02*
X145491100Y-110713600D01*
X144856100Y-113888600D02*
X145491100Y-113253600D01*
X144856100Y-115158600D02*
X144856100Y-113888600D01*
X145491100Y-115793600D02*
X144856100Y-115158600D01*
X146761100Y-115793600D02*
X145491100Y-115793600D01*
X147396100Y-115158600D02*
X146761100Y-115793600D01*
X147396100Y-113888600D02*
X147396100Y-115158600D01*
X146761100Y-113253600D02*
X147396100Y-113888600D01*
X145491100Y-113253600D02*
X144856100Y-112618600D01*
X146761100Y-113253600D02*
X145491100Y-113253600D01*
X147396100Y-112618600D02*
X146761100Y-113253600D01*
X147396100Y-111348600D02*
X147396100Y-112618600D01*
X144856100Y-116428600D02*
X145491100Y-115793600D01*
X144856100Y-117698600D02*
X144856100Y-116428600D01*
X145491100Y-118333600D02*
X144856100Y-117698600D01*
X146761100Y-118333600D02*
X145491100Y-118333600D01*
X147396100Y-117698600D02*
X146761100Y-118333600D01*
X147396100Y-116428600D02*
X147396100Y-117698600D01*
X146761100Y-115793600D02*
X147396100Y-116428600D01*
X162636100Y-111348600D02*
X162636100Y-112618600D01*
X162001100Y-113253600D02*
X162636100Y-112618600D01*
X160096100Y-112618600D02*
X160731100Y-113253600D01*
X162001100Y-110713600D02*
X162636100Y-111348600D01*
X160731100Y-110713600D02*
X162001100Y-110713600D01*
X160096100Y-111348600D02*
X160731100Y-110713600D01*
X160096100Y-112618600D02*
X160096100Y-111348600D01*
X162636100Y-118968600D02*
X162636100Y-120238600D01*
X162001100Y-120873600D02*
X162636100Y-120238600D01*
X160096100Y-120238600D02*
X160731100Y-120873600D01*
X160731100Y-120873600D02*
X162001100Y-120873600D01*
X162636100Y-117698600D02*
X162001100Y-118333600D01*
X162636100Y-116428600D02*
X162636100Y-117698600D01*
X162001100Y-115793600D02*
X162636100Y-116428600D01*
X160731100Y-115793600D02*
X162001100Y-115793600D01*
X160096100Y-116428600D02*
X160731100Y-115793600D01*
X160096100Y-117698600D02*
X160096100Y-116428600D01*
X160731100Y-118333600D02*
X160096100Y-117698600D01*
X162001100Y-118333600D02*
X162636100Y-118968600D01*
X160731100Y-118333600D02*
X162001100Y-118333600D01*
X160096100Y-118968600D02*
X160731100Y-118333600D01*
X160096100Y-120238600D02*
X160096100Y-118968600D01*
X162636100Y-115158600D02*
X162001100Y-115793600D01*
X162636100Y-113888600D02*
X162636100Y-115158600D01*
X162001100Y-113253600D02*
X162636100Y-113888600D01*
X160731100Y-113253600D02*
X162001100Y-113253600D01*
X160096100Y-113888600D02*
X160731100Y-113253600D01*
X160096100Y-115158600D02*
X160096100Y-113888600D01*
X160731100Y-115793600D02*
X160096100Y-115158600D01*
D19*
X172161100Y-103093600D02*
G75*
G03*
X173431100Y-103093600I635000J0D01*
G01*
X175336100Y-128493600D02*
X175336100Y-103093600D01*
X170256100Y-128493600D02*
X175336100Y-128493600D01*
X170256100Y-103093600D02*
X170256100Y-128493600D01*
X170256100Y-103093600D02*
X172161100Y-103093600D01*
X175336100Y-103093600D02*
X173431100Y-103093600D01*
D20*
X163906100Y-120238600D02*
X163906100Y-118968600D01*
X164541100Y-118333600D02*
X163906100Y-118968600D01*
X166446100Y-118968600D02*
X165811100Y-118333600D01*
X164541100Y-120873600D02*
X163906100Y-120238600D01*
X165811100Y-120873600D02*
X164541100Y-120873600D01*
X166446100Y-120238600D02*
X165811100Y-120873600D01*
X166446100Y-118968600D02*
X166446100Y-120238600D01*
X163906100Y-112618600D02*
X163906100Y-111348600D01*
X164541100Y-110713600D02*
X163906100Y-111348600D01*
X166446100Y-111348600D02*
X165811100Y-110713600D01*
X165811100Y-110713600D02*
X164541100Y-110713600D01*
X163906100Y-113888600D02*
X164541100Y-113253600D01*
X163906100Y-115158600D02*
X163906100Y-113888600D01*
X164541100Y-115793600D02*
X163906100Y-115158600D01*
X165811100Y-115793600D02*
X164541100Y-115793600D01*
X166446100Y-115158600D02*
X165811100Y-115793600D01*
X166446100Y-113888600D02*
X166446100Y-115158600D01*
X165811100Y-113253600D02*
X166446100Y-113888600D01*
X164541100Y-113253600D02*
X163906100Y-112618600D01*
X165811100Y-113253600D02*
X164541100Y-113253600D01*
X166446100Y-112618600D02*
X165811100Y-113253600D01*
X166446100Y-111348600D02*
X166446100Y-112618600D01*
X163906100Y-116428600D02*
X164541100Y-115793600D01*
X163906100Y-117698600D02*
X163906100Y-116428600D01*
X164541100Y-118333600D02*
X163906100Y-117698600D01*
X165811100Y-118333600D02*
X164541100Y-118333600D01*
X166446100Y-117698600D02*
X165811100Y-118333600D01*
X166446100Y-116428600D02*
X166446100Y-117698600D01*
X165811100Y-115793600D02*
X166446100Y-116428600D01*
X181686100Y-111348600D02*
X181686100Y-112618600D01*
X181051100Y-113253600D02*
X181686100Y-112618600D01*
X179146100Y-112618600D02*
X179781100Y-113253600D01*
X181051100Y-110713600D02*
X181686100Y-111348600D01*
X179781100Y-110713600D02*
X181051100Y-110713600D01*
X179146100Y-111348600D02*
X179781100Y-110713600D01*
X179146100Y-112618600D02*
X179146100Y-111348600D01*
X181686100Y-118968600D02*
X181686100Y-120238600D01*
X181051100Y-120873600D02*
X181686100Y-120238600D01*
X179146100Y-120238600D02*
X179781100Y-120873600D01*
X179781100Y-120873600D02*
X181051100Y-120873600D01*
X181686100Y-117698600D02*
X181051100Y-118333600D01*
X181686100Y-116428600D02*
X181686100Y-117698600D01*
X181051100Y-115793600D02*
X181686100Y-116428600D01*
X179781100Y-115793600D02*
X181051100Y-115793600D01*
X179146100Y-116428600D02*
X179781100Y-115793600D01*
X179146100Y-117698600D02*
X179146100Y-116428600D01*
X179781100Y-118333600D02*
X179146100Y-117698600D01*
X181051100Y-118333600D02*
X181686100Y-118968600D01*
X179781100Y-118333600D02*
X181051100Y-118333600D01*
X179146100Y-118968600D02*
X179781100Y-118333600D01*
X179146100Y-120238600D02*
X179146100Y-118968600D01*
X181686100Y-115158600D02*
X181051100Y-115793600D01*
X181686100Y-113888600D02*
X181686100Y-115158600D01*
X181051100Y-113253600D02*
X181686100Y-113888600D01*
X179781100Y-113253600D02*
X181051100Y-113253600D01*
X179146100Y-113888600D02*
X179781100Y-113253600D01*
X179146100Y-115158600D02*
X179146100Y-113888600D01*
X179781100Y-115793600D02*
X179146100Y-115158600D01*
D19*
X191211100Y-103093600D02*
G75*
G03*
X192481100Y-103093600I635000J0D01*
G01*
X194386100Y-128493600D02*
X194386100Y-103093600D01*
X189306100Y-128493600D02*
X194386100Y-128493600D01*
X189306100Y-103093600D02*
X189306100Y-128493600D01*
X189306100Y-103093600D02*
X191211100Y-103093600D01*
X194386100Y-103093600D02*
X192481100Y-103093600D01*
D20*
X182956100Y-120238600D02*
X182956100Y-118968600D01*
X183591100Y-118333600D02*
X182956100Y-118968600D01*
X185496100Y-118968600D02*
X184861100Y-118333600D01*
X183591100Y-120873600D02*
X182956100Y-120238600D01*
X184861100Y-120873600D02*
X183591100Y-120873600D01*
X185496100Y-120238600D02*
X184861100Y-120873600D01*
X185496100Y-118968600D02*
X185496100Y-120238600D01*
X182956100Y-112618600D02*
X182956100Y-111348600D01*
X183591100Y-110713600D02*
X182956100Y-111348600D01*
X185496100Y-111348600D02*
X184861100Y-110713600D01*
X184861100Y-110713600D02*
X183591100Y-110713600D01*
X182956100Y-113888600D02*
X183591100Y-113253600D01*
X182956100Y-115158600D02*
X182956100Y-113888600D01*
X183591100Y-115793600D02*
X182956100Y-115158600D01*
X184861100Y-115793600D02*
X183591100Y-115793600D01*
X185496100Y-115158600D02*
X184861100Y-115793600D01*
X185496100Y-113888600D02*
X185496100Y-115158600D01*
X184861100Y-113253600D02*
X185496100Y-113888600D01*
X183591100Y-113253600D02*
X182956100Y-112618600D01*
X184861100Y-113253600D02*
X183591100Y-113253600D01*
X185496100Y-112618600D02*
X184861100Y-113253600D01*
X185496100Y-111348600D02*
X185496100Y-112618600D01*
X182956100Y-116428600D02*
X183591100Y-115793600D01*
X182956100Y-117698600D02*
X182956100Y-116428600D01*
X183591100Y-118333600D02*
X182956100Y-117698600D01*
X184861100Y-118333600D02*
X183591100Y-118333600D01*
X185496100Y-117698600D02*
X184861100Y-118333600D01*
X185496100Y-116428600D02*
X185496100Y-117698600D01*
X184861100Y-115793600D02*
X185496100Y-116428600D01*
X200736100Y-111348600D02*
X200736100Y-112618600D01*
X200101100Y-113253600D02*
X200736100Y-112618600D01*
X198196100Y-112618600D02*
X198831100Y-113253600D01*
X200101100Y-110713600D02*
X200736100Y-111348600D01*
X198831100Y-110713600D02*
X200101100Y-110713600D01*
X198196100Y-111348600D02*
X198831100Y-110713600D01*
X198196100Y-112618600D02*
X198196100Y-111348600D01*
X200736100Y-118968600D02*
X200736100Y-120238600D01*
X200101100Y-120873600D02*
X200736100Y-120238600D01*
X198196100Y-120238600D02*
X198831100Y-120873600D01*
X198831100Y-120873600D02*
X200101100Y-120873600D01*
X200736100Y-117698600D02*
X200101100Y-118333600D01*
X200736100Y-116428600D02*
X200736100Y-117698600D01*
X200101100Y-115793600D02*
X200736100Y-116428600D01*
X198831100Y-115793600D02*
X200101100Y-115793600D01*
X198196100Y-116428600D02*
X198831100Y-115793600D01*
X198196100Y-117698600D02*
X198196100Y-116428600D01*
X198831100Y-118333600D02*
X198196100Y-117698600D01*
X200101100Y-118333600D02*
X200736100Y-118968600D01*
X198831100Y-118333600D02*
X200101100Y-118333600D01*
X198196100Y-118968600D02*
X198831100Y-118333600D01*
X198196100Y-120238600D02*
X198196100Y-118968600D01*
X200736100Y-115158600D02*
X200101100Y-115793600D01*
X200736100Y-113888600D02*
X200736100Y-115158600D01*
X200101100Y-113253600D02*
X200736100Y-113888600D01*
X198831100Y-113253600D02*
X200101100Y-113253600D01*
X198196100Y-113888600D02*
X198831100Y-113253600D01*
X198196100Y-115158600D02*
X198196100Y-113888600D01*
X198831100Y-115793600D02*
X198196100Y-115158600D01*
D21*
X184226100Y-98013600D02*
X182956100Y-98013600D01*
X183591100Y-98648600D02*
X183591100Y-97378600D01*
X144221100Y-84678600D02*
X144221100Y-85948600D01*
X183591100Y-84678600D02*
X183591100Y-85948600D01*
X144856100Y-98013600D02*
X143586100Y-98013600D01*
X144221100Y-98648600D02*
X144221100Y-97378600D01*
D16*
X185496100Y-81249600D02*
X185496100Y-102077600D01*
X142316100Y-81249600D02*
X185496100Y-81249600D01*
X142316100Y-102077600D02*
X142316100Y-81249600D01*
X185496100Y-102077600D02*
X142316100Y-102077600D01*
D20*
X197561100Y-99283600D02*
X196291100Y-99283600D01*
X195656100Y-98648600D02*
X196291100Y-99283600D01*
X196291100Y-96743600D02*
X195656100Y-97378600D01*
X198196100Y-98648600D02*
X197561100Y-99283600D01*
X198196100Y-97378600D02*
X198196100Y-98648600D01*
X197561100Y-96743600D02*
X198196100Y-97378600D01*
X196291100Y-96743600D02*
X197561100Y-96743600D01*
X187401100Y-99283600D02*
X186131100Y-99283600D01*
X185496100Y-98648600D02*
X186131100Y-99283600D01*
X186131100Y-96743600D02*
X185496100Y-97378600D01*
X185496100Y-97378600D02*
X185496100Y-98648600D01*
X188671100Y-99283600D02*
X188036100Y-98648600D01*
X189941100Y-99283600D02*
X188671100Y-99283600D01*
X190576100Y-98648600D02*
X189941100Y-99283600D01*
X190576100Y-97378600D02*
X190576100Y-98648600D01*
X189941100Y-96743600D02*
X190576100Y-97378600D01*
X188671100Y-96743600D02*
X189941100Y-96743600D01*
X188036100Y-97378600D02*
X188671100Y-96743600D01*
X188036100Y-98648600D02*
X187401100Y-99283600D01*
X188036100Y-97378600D02*
X188036100Y-98648600D01*
X187401100Y-96743600D02*
X188036100Y-97378600D01*
X186131100Y-96743600D02*
X187401100Y-96743600D01*
X195021100Y-99283600D02*
X193751100Y-99283600D01*
X193116100Y-98648600D02*
X193751100Y-99283600D01*
X193751100Y-96743600D02*
X193116100Y-97378600D01*
X191211100Y-99283600D02*
X190576100Y-98648600D01*
X192481100Y-99283600D02*
X191211100Y-99283600D01*
X193116100Y-98648600D02*
X192481100Y-99283600D01*
X193116100Y-97378600D02*
X193116100Y-98648600D01*
X192481100Y-96743600D02*
X193116100Y-97378600D01*
X191211100Y-96743600D02*
X192481100Y-96743600D01*
X190576100Y-97378600D02*
X191211100Y-96743600D01*
X195656100Y-98648600D02*
X195021100Y-99283600D01*
X195656100Y-97378600D02*
X195656100Y-98648600D01*
X195021100Y-96743600D02*
X195656100Y-97378600D01*
X193751100Y-96743600D02*
X195021100Y-96743600D01*
D19*
X133906100Y-96743600D02*
G75*
G03*
X133906100Y-96743600I-1750000J0D01*
G01*
X129156100Y-93743600D02*
X129156100Y-99743600D01*
X135156100Y-93743600D02*
X129156100Y-93743600D01*
X135156100Y-99743600D02*
X135156100Y-93743600D01*
X129156100Y-99743600D02*
X135156100Y-99743600D01*
%LPC*%
D22*
X190500000Y-83820000D03*
D23*
X190500000Y-86320000D03*
D24*
X98425000Y-94615000D03*
X98425000Y-97155000D03*
X98425000Y-99695000D03*
X98425000Y-102235000D03*
X98425000Y-104775000D03*
X98425000Y-107315000D03*
X98425000Y-109855000D03*
X98425000Y-112395000D03*
X121285000Y-94615000D03*
X121285000Y-97155000D03*
X121285000Y-99695000D03*
X121285000Y-102235000D03*
X121285000Y-104775000D03*
X121285000Y-107315000D03*
X121285000Y-109855000D03*
X121285000Y-112395000D03*
D25*
X182880000Y-125095000D03*
X98425000Y-126365000D03*
X198120000Y-83820000D03*
X98425000Y-83185000D03*
D26*
X138506100Y-127223600D03*
X138506100Y-124683600D03*
X138506100Y-122143600D03*
X138506100Y-119603600D03*
X138506100Y-117063600D03*
X138506100Y-114523600D03*
X138506100Y-111983600D03*
X138506100Y-109443600D03*
X138506100Y-106903600D03*
X138506100Y-104363600D03*
X130886100Y-127223600D03*
X130886100Y-124683600D03*
X130886100Y-122143600D03*
X130886100Y-119603600D03*
X130886100Y-117063600D03*
X130886100Y-114523600D03*
X130886100Y-111983600D03*
X130886100Y-109443600D03*
X130886100Y-106903600D03*
X130886100Y-104363600D03*
X157556100Y-127223600D03*
X157556100Y-124683600D03*
X157556100Y-122143600D03*
X157556100Y-119603600D03*
X157556100Y-117063600D03*
X157556100Y-114523600D03*
X157556100Y-111983600D03*
X157556100Y-109443600D03*
X157556100Y-106903600D03*
X157556100Y-104363600D03*
X149936100Y-127223600D03*
X149936100Y-124683600D03*
X149936100Y-122143600D03*
X149936100Y-119603600D03*
X149936100Y-117063600D03*
X149936100Y-114523600D03*
X149936100Y-111983600D03*
X149936100Y-109443600D03*
X149936100Y-106903600D03*
X149936100Y-104363600D03*
D27*
X125806100Y-119603600D03*
X125806100Y-117063600D03*
X125806100Y-114523600D03*
X125806100Y-111983600D03*
X142316100Y-111983600D03*
X142316100Y-114523600D03*
X142316100Y-117063600D03*
X142316100Y-119603600D03*
X146126100Y-119603600D03*
X146126100Y-117063600D03*
X146126100Y-114523600D03*
X146126100Y-111983600D03*
X161366100Y-111983600D03*
X161366100Y-114523600D03*
X161366100Y-117063600D03*
X161366100Y-119603600D03*
D26*
X176606100Y-127223600D03*
X176606100Y-124683600D03*
X176606100Y-122143600D03*
X176606100Y-119603600D03*
X176606100Y-117063600D03*
X176606100Y-114523600D03*
X176606100Y-111983600D03*
X176606100Y-109443600D03*
X176606100Y-106903600D03*
X176606100Y-104363600D03*
X168986100Y-127223600D03*
X168986100Y-124683600D03*
X168986100Y-122143600D03*
X168986100Y-119603600D03*
X168986100Y-117063600D03*
X168986100Y-114523600D03*
X168986100Y-111983600D03*
X168986100Y-109443600D03*
X168986100Y-106903600D03*
X168986100Y-104363600D03*
D27*
X165176100Y-119603600D03*
X165176100Y-117063600D03*
X165176100Y-114523600D03*
X165176100Y-111983600D03*
X180416100Y-111983600D03*
X180416100Y-114523600D03*
X180416100Y-117063600D03*
X180416100Y-119603600D03*
D26*
X195656100Y-127223600D03*
X195656100Y-124683600D03*
X195656100Y-122143600D03*
X195656100Y-119603600D03*
X195656100Y-117063600D03*
X195656100Y-114523600D03*
X195656100Y-111983600D03*
X195656100Y-109443600D03*
X195656100Y-106903600D03*
X195656100Y-104363600D03*
X188036100Y-127223600D03*
X188036100Y-124683600D03*
X188036100Y-122143600D03*
X188036100Y-119603600D03*
X188036100Y-117063600D03*
X188036100Y-114523600D03*
X188036100Y-111983600D03*
X188036100Y-109443600D03*
X188036100Y-106903600D03*
X188036100Y-104363600D03*
D27*
X184226100Y-119603600D03*
X184226100Y-117063600D03*
X184226100Y-114523600D03*
X184226100Y-111983600D03*
X199466100Y-111983600D03*
X199466100Y-114523600D03*
X199466100Y-117063600D03*
X199466100Y-119603600D03*
D28*
X148666100Y-84043600D03*
X178384100Y-99283600D03*
D29*
X144094100Y-100299600D03*
X144094100Y-83027600D03*
X183718100Y-83027600D03*
X183718100Y-100299600D03*
D30*
X196926100Y-98013600D03*
X194386100Y-98013600D03*
X191846100Y-98013600D03*
X189306100Y-98013600D03*
X186766100Y-98013600D03*
D31*
X136131100Y-94493600D03*
X128181100Y-94493600D03*
X136131100Y-98993600D03*
X128181100Y-98993600D03*
M02*
