G04 #@! TF.GenerationSoftware,KiCad,Pcbnew,(5.1.4)-1*
G04 #@! TF.CreationDate,2020-02-08T01:02:29+01:00*
G04 #@! TF.ProjectId,FlyballDisplay,466c7962-616c-46c4-9469-73706c61792e,rev?*
G04 #@! TF.SameCoordinates,Original*
G04 #@! TF.FileFunction,Soldermask,Top*
G04 #@! TF.FilePolarity,Negative*
%FSLAX46Y46*%
G04 Gerber Fmt 4.6, Leading zero omitted, Abs format (unit mm)*
G04 Created by KiCad (PCBNEW (5.1.4)-1) date 2020-02-08 01:02:29*
%MOMM*%
%LPD*%
G04 APERTURE LIST*
%ADD10C,0.100000*%
G04 APERTURE END LIST*
D10*
G36*
X131026900Y-126112112D02*
G01*
X131212092Y-126148948D01*
X131415482Y-126233195D01*
X131598529Y-126355503D01*
X131754197Y-126511171D01*
X131876505Y-126694218D01*
X131960752Y-126897608D01*
X132003700Y-127113526D01*
X132003700Y-127333674D01*
X131960752Y-127549592D01*
X131876505Y-127752982D01*
X131754197Y-127936029D01*
X131598529Y-128091697D01*
X131415482Y-128214005D01*
X131212092Y-128298252D01*
X131026900Y-128335088D01*
X130996175Y-128341200D01*
X130776025Y-128341200D01*
X130745300Y-128335088D01*
X130560108Y-128298252D01*
X130356718Y-128214005D01*
X130173671Y-128091697D01*
X130018003Y-127936029D01*
X129895695Y-127752982D01*
X129811448Y-127549592D01*
X129768500Y-127333674D01*
X129768500Y-127113526D01*
X129811448Y-126897608D01*
X129895695Y-126694218D01*
X130018003Y-126511171D01*
X130173671Y-126355503D01*
X130356718Y-126233195D01*
X130560108Y-126148948D01*
X130745300Y-126112112D01*
X130776025Y-126106000D01*
X130996175Y-126106000D01*
X131026900Y-126112112D01*
X131026900Y-126112112D01*
G37*
G36*
X188176900Y-126112112D02*
G01*
X188362092Y-126148948D01*
X188565482Y-126233195D01*
X188748529Y-126355503D01*
X188904197Y-126511171D01*
X189026505Y-126694218D01*
X189110752Y-126897608D01*
X189153700Y-127113526D01*
X189153700Y-127333674D01*
X189110752Y-127549592D01*
X189026505Y-127752982D01*
X188904197Y-127936029D01*
X188748529Y-128091697D01*
X188565482Y-128214005D01*
X188362092Y-128298252D01*
X188176900Y-128335088D01*
X188146175Y-128341200D01*
X187926025Y-128341200D01*
X187895300Y-128335088D01*
X187710108Y-128298252D01*
X187506718Y-128214005D01*
X187323671Y-128091697D01*
X187168003Y-127936029D01*
X187045695Y-127752982D01*
X186961448Y-127549592D01*
X186918500Y-127333674D01*
X186918500Y-127113526D01*
X186961448Y-126897608D01*
X187045695Y-126694218D01*
X187168003Y-126511171D01*
X187323671Y-126355503D01*
X187506718Y-126233195D01*
X187710108Y-126148948D01*
X187895300Y-126112112D01*
X187926025Y-126106000D01*
X188146175Y-126106000D01*
X188176900Y-126112112D01*
X188176900Y-126112112D01*
G37*
G36*
X169126900Y-126112112D02*
G01*
X169312092Y-126148948D01*
X169515482Y-126233195D01*
X169698529Y-126355503D01*
X169854197Y-126511171D01*
X169976505Y-126694218D01*
X170060752Y-126897608D01*
X170103700Y-127113526D01*
X170103700Y-127333674D01*
X170060752Y-127549592D01*
X169976505Y-127752982D01*
X169854197Y-127936029D01*
X169698529Y-128091697D01*
X169515482Y-128214005D01*
X169312092Y-128298252D01*
X169126900Y-128335088D01*
X169096175Y-128341200D01*
X168876025Y-128341200D01*
X168845300Y-128335088D01*
X168660108Y-128298252D01*
X168456718Y-128214005D01*
X168273671Y-128091697D01*
X168118003Y-127936029D01*
X167995695Y-127752982D01*
X167911448Y-127549592D01*
X167868500Y-127333674D01*
X167868500Y-127113526D01*
X167911448Y-126897608D01*
X167995695Y-126694218D01*
X168118003Y-126511171D01*
X168273671Y-126355503D01*
X168456718Y-126233195D01*
X168660108Y-126148948D01*
X168845300Y-126112112D01*
X168876025Y-126106000D01*
X169096175Y-126106000D01*
X169126900Y-126112112D01*
X169126900Y-126112112D01*
G37*
G36*
X176746900Y-126112112D02*
G01*
X176932092Y-126148948D01*
X177135482Y-126233195D01*
X177318529Y-126355503D01*
X177474197Y-126511171D01*
X177596505Y-126694218D01*
X177680752Y-126897608D01*
X177723700Y-127113526D01*
X177723700Y-127333674D01*
X177680752Y-127549592D01*
X177596505Y-127752982D01*
X177474197Y-127936029D01*
X177318529Y-128091697D01*
X177135482Y-128214005D01*
X176932092Y-128298252D01*
X176746900Y-128335088D01*
X176716175Y-128341200D01*
X176496025Y-128341200D01*
X176465300Y-128335088D01*
X176280108Y-128298252D01*
X176076718Y-128214005D01*
X175893671Y-128091697D01*
X175738003Y-127936029D01*
X175615695Y-127752982D01*
X175531448Y-127549592D01*
X175488500Y-127333674D01*
X175488500Y-127113526D01*
X175531448Y-126897608D01*
X175615695Y-126694218D01*
X175738003Y-126511171D01*
X175893671Y-126355503D01*
X176076718Y-126233195D01*
X176280108Y-126148948D01*
X176465300Y-126112112D01*
X176496025Y-126106000D01*
X176716175Y-126106000D01*
X176746900Y-126112112D01*
X176746900Y-126112112D01*
G37*
G36*
X150076900Y-126112112D02*
G01*
X150262092Y-126148948D01*
X150465482Y-126233195D01*
X150648529Y-126355503D01*
X150804197Y-126511171D01*
X150926505Y-126694218D01*
X151010752Y-126897608D01*
X151053700Y-127113526D01*
X151053700Y-127333674D01*
X151010752Y-127549592D01*
X150926505Y-127752982D01*
X150804197Y-127936029D01*
X150648529Y-128091697D01*
X150465482Y-128214005D01*
X150262092Y-128298252D01*
X150076900Y-128335088D01*
X150046175Y-128341200D01*
X149826025Y-128341200D01*
X149795300Y-128335088D01*
X149610108Y-128298252D01*
X149406718Y-128214005D01*
X149223671Y-128091697D01*
X149068003Y-127936029D01*
X148945695Y-127752982D01*
X148861448Y-127549592D01*
X148818500Y-127333674D01*
X148818500Y-127113526D01*
X148861448Y-126897608D01*
X148945695Y-126694218D01*
X149068003Y-126511171D01*
X149223671Y-126355503D01*
X149406718Y-126233195D01*
X149610108Y-126148948D01*
X149795300Y-126112112D01*
X149826025Y-126106000D01*
X150046175Y-126106000D01*
X150076900Y-126112112D01*
X150076900Y-126112112D01*
G37*
G36*
X157696900Y-126112112D02*
G01*
X157882092Y-126148948D01*
X158085482Y-126233195D01*
X158268529Y-126355503D01*
X158424197Y-126511171D01*
X158546505Y-126694218D01*
X158630752Y-126897608D01*
X158673700Y-127113526D01*
X158673700Y-127333674D01*
X158630752Y-127549592D01*
X158546505Y-127752982D01*
X158424197Y-127936029D01*
X158268529Y-128091697D01*
X158085482Y-128214005D01*
X157882092Y-128298252D01*
X157696900Y-128335088D01*
X157666175Y-128341200D01*
X157446025Y-128341200D01*
X157415300Y-128335088D01*
X157230108Y-128298252D01*
X157026718Y-128214005D01*
X156843671Y-128091697D01*
X156688003Y-127936029D01*
X156565695Y-127752982D01*
X156481448Y-127549592D01*
X156438500Y-127333674D01*
X156438500Y-127113526D01*
X156481448Y-126897608D01*
X156565695Y-126694218D01*
X156688003Y-126511171D01*
X156843671Y-126355503D01*
X157026718Y-126233195D01*
X157230108Y-126148948D01*
X157415300Y-126112112D01*
X157446025Y-126106000D01*
X157666175Y-126106000D01*
X157696900Y-126112112D01*
X157696900Y-126112112D01*
G37*
G36*
X195796900Y-126112112D02*
G01*
X195982092Y-126148948D01*
X196185482Y-126233195D01*
X196368529Y-126355503D01*
X196524197Y-126511171D01*
X196646505Y-126694218D01*
X196730752Y-126897608D01*
X196773700Y-127113526D01*
X196773700Y-127333674D01*
X196730752Y-127549592D01*
X196646505Y-127752982D01*
X196524197Y-127936029D01*
X196368529Y-128091697D01*
X196185482Y-128214005D01*
X195982092Y-128298252D01*
X195796900Y-128335088D01*
X195766175Y-128341200D01*
X195546025Y-128341200D01*
X195515300Y-128335088D01*
X195330108Y-128298252D01*
X195126718Y-128214005D01*
X194943671Y-128091697D01*
X194788003Y-127936029D01*
X194665695Y-127752982D01*
X194581448Y-127549592D01*
X194538500Y-127333674D01*
X194538500Y-127113526D01*
X194581448Y-126897608D01*
X194665695Y-126694218D01*
X194788003Y-126511171D01*
X194943671Y-126355503D01*
X195126718Y-126233195D01*
X195330108Y-126148948D01*
X195515300Y-126112112D01*
X195546025Y-126106000D01*
X195766175Y-126106000D01*
X195796900Y-126112112D01*
X195796900Y-126112112D01*
G37*
G36*
X138646900Y-126112112D02*
G01*
X138832092Y-126148948D01*
X139035482Y-126233195D01*
X139218529Y-126355503D01*
X139374197Y-126511171D01*
X139496505Y-126694218D01*
X139580752Y-126897608D01*
X139623700Y-127113526D01*
X139623700Y-127333674D01*
X139580752Y-127549592D01*
X139496505Y-127752982D01*
X139374197Y-127936029D01*
X139218529Y-128091697D01*
X139035482Y-128214005D01*
X138832092Y-128298252D01*
X138646900Y-128335088D01*
X138616175Y-128341200D01*
X138396025Y-128341200D01*
X138365300Y-128335088D01*
X138180108Y-128298252D01*
X137976718Y-128214005D01*
X137793671Y-128091697D01*
X137638003Y-127936029D01*
X137515695Y-127752982D01*
X137431448Y-127549592D01*
X137388500Y-127333674D01*
X137388500Y-127113526D01*
X137431448Y-126897608D01*
X137515695Y-126694218D01*
X137638003Y-126511171D01*
X137793671Y-126355503D01*
X137976718Y-126233195D01*
X138180108Y-126148948D01*
X138365300Y-126112112D01*
X138396025Y-126106000D01*
X138616175Y-126106000D01*
X138646900Y-126112112D01*
X138646900Y-126112112D01*
G37*
G36*
X98800256Y-124756298D02*
G01*
X98906579Y-124777447D01*
X99207042Y-124901903D01*
X99477451Y-125082585D01*
X99707415Y-125312549D01*
X99888097Y-125582958D01*
X100009911Y-125877042D01*
X100012553Y-125883422D01*
X100076000Y-126202389D01*
X100076000Y-126527611D01*
X100042859Y-126694220D01*
X100012553Y-126846579D01*
X99888097Y-127147042D01*
X99707415Y-127417451D01*
X99477451Y-127647415D01*
X99207042Y-127828097D01*
X98906579Y-127952553D01*
X98800256Y-127973702D01*
X98587611Y-128016000D01*
X98262389Y-128016000D01*
X98049744Y-127973702D01*
X97943421Y-127952553D01*
X97642958Y-127828097D01*
X97372549Y-127647415D01*
X97142585Y-127417451D01*
X96961903Y-127147042D01*
X96837447Y-126846579D01*
X96807141Y-126694220D01*
X96774000Y-126527611D01*
X96774000Y-126202389D01*
X96837447Y-125883422D01*
X96840090Y-125877042D01*
X96961903Y-125582958D01*
X97142585Y-125312549D01*
X97372549Y-125082585D01*
X97642958Y-124901903D01*
X97943421Y-124777447D01*
X98049744Y-124756298D01*
X98262389Y-124714000D01*
X98587611Y-124714000D01*
X98800256Y-124756298D01*
X98800256Y-124756298D01*
G37*
G36*
X183255256Y-123486298D02*
G01*
X183361579Y-123507447D01*
X183662042Y-123631903D01*
X183932451Y-123812585D01*
X184162415Y-124042549D01*
X184343097Y-124312958D01*
X184451028Y-124573525D01*
X184467553Y-124613422D01*
X184531000Y-124932389D01*
X184531000Y-125257611D01*
X184503467Y-125396026D01*
X184467553Y-125576579D01*
X184343097Y-125877042D01*
X184162415Y-126147451D01*
X183932451Y-126377415D01*
X183662042Y-126558097D01*
X183361579Y-126682553D01*
X183302935Y-126694218D01*
X183042611Y-126746000D01*
X182717389Y-126746000D01*
X182457065Y-126694218D01*
X182398421Y-126682553D01*
X182097958Y-126558097D01*
X181827549Y-126377415D01*
X181597585Y-126147451D01*
X181416903Y-125877042D01*
X181292447Y-125576579D01*
X181256533Y-125396026D01*
X181229000Y-125257611D01*
X181229000Y-124932389D01*
X181292447Y-124613422D01*
X181308973Y-124573525D01*
X181416903Y-124312958D01*
X181597585Y-124042549D01*
X181827549Y-123812585D01*
X182097958Y-123631903D01*
X182398421Y-123507447D01*
X182504744Y-123486298D01*
X182717389Y-123444000D01*
X183042611Y-123444000D01*
X183255256Y-123486298D01*
X183255256Y-123486298D01*
G37*
G36*
X157696900Y-123572112D02*
G01*
X157882092Y-123608948D01*
X158085482Y-123693195D01*
X158268529Y-123815503D01*
X158424197Y-123971171D01*
X158546505Y-124154218D01*
X158630752Y-124357608D01*
X158673700Y-124573526D01*
X158673700Y-124793674D01*
X158630752Y-125009592D01*
X158546505Y-125212982D01*
X158424197Y-125396029D01*
X158268529Y-125551697D01*
X158085482Y-125674005D01*
X157882092Y-125758252D01*
X157696900Y-125795088D01*
X157666175Y-125801200D01*
X157446025Y-125801200D01*
X157415300Y-125795088D01*
X157230108Y-125758252D01*
X157026718Y-125674005D01*
X156843671Y-125551697D01*
X156688003Y-125396029D01*
X156565695Y-125212982D01*
X156481448Y-125009592D01*
X156438500Y-124793674D01*
X156438500Y-124573526D01*
X156481448Y-124357608D01*
X156565695Y-124154218D01*
X156688003Y-123971171D01*
X156843671Y-123815503D01*
X157026718Y-123693195D01*
X157230108Y-123608948D01*
X157415300Y-123572112D01*
X157446025Y-123566000D01*
X157666175Y-123566000D01*
X157696900Y-123572112D01*
X157696900Y-123572112D01*
G37*
G36*
X138646900Y-123572112D02*
G01*
X138832092Y-123608948D01*
X139035482Y-123693195D01*
X139218529Y-123815503D01*
X139374197Y-123971171D01*
X139496505Y-124154218D01*
X139580752Y-124357608D01*
X139623700Y-124573526D01*
X139623700Y-124793674D01*
X139580752Y-125009592D01*
X139496505Y-125212982D01*
X139374197Y-125396029D01*
X139218529Y-125551697D01*
X139035482Y-125674005D01*
X138832092Y-125758252D01*
X138646900Y-125795088D01*
X138616175Y-125801200D01*
X138396025Y-125801200D01*
X138365300Y-125795088D01*
X138180108Y-125758252D01*
X137976718Y-125674005D01*
X137793671Y-125551697D01*
X137638003Y-125396029D01*
X137515695Y-125212982D01*
X137431448Y-125009592D01*
X137388500Y-124793674D01*
X137388500Y-124573526D01*
X137431448Y-124357608D01*
X137515695Y-124154218D01*
X137638003Y-123971171D01*
X137793671Y-123815503D01*
X137976718Y-123693195D01*
X138180108Y-123608948D01*
X138365300Y-123572112D01*
X138396025Y-123566000D01*
X138616175Y-123566000D01*
X138646900Y-123572112D01*
X138646900Y-123572112D01*
G37*
G36*
X188176900Y-123572112D02*
G01*
X188362092Y-123608948D01*
X188565482Y-123693195D01*
X188748529Y-123815503D01*
X188904197Y-123971171D01*
X189026505Y-124154218D01*
X189110752Y-124357608D01*
X189153700Y-124573526D01*
X189153700Y-124793674D01*
X189110752Y-125009592D01*
X189026505Y-125212982D01*
X188904197Y-125396029D01*
X188748529Y-125551697D01*
X188565482Y-125674005D01*
X188362092Y-125758252D01*
X188176900Y-125795088D01*
X188146175Y-125801200D01*
X187926025Y-125801200D01*
X187895300Y-125795088D01*
X187710108Y-125758252D01*
X187506718Y-125674005D01*
X187323671Y-125551697D01*
X187168003Y-125396029D01*
X187045695Y-125212982D01*
X186961448Y-125009592D01*
X186918500Y-124793674D01*
X186918500Y-124573526D01*
X186961448Y-124357608D01*
X187045695Y-124154218D01*
X187168003Y-123971171D01*
X187323671Y-123815503D01*
X187506718Y-123693195D01*
X187710108Y-123608948D01*
X187895300Y-123572112D01*
X187926025Y-123566000D01*
X188146175Y-123566000D01*
X188176900Y-123572112D01*
X188176900Y-123572112D01*
G37*
G36*
X195796900Y-123572112D02*
G01*
X195982092Y-123608948D01*
X196185482Y-123693195D01*
X196368529Y-123815503D01*
X196524197Y-123971171D01*
X196646505Y-124154218D01*
X196730752Y-124357608D01*
X196773700Y-124573526D01*
X196773700Y-124793674D01*
X196730752Y-125009592D01*
X196646505Y-125212982D01*
X196524197Y-125396029D01*
X196368529Y-125551697D01*
X196185482Y-125674005D01*
X195982092Y-125758252D01*
X195796900Y-125795088D01*
X195766175Y-125801200D01*
X195546025Y-125801200D01*
X195515300Y-125795088D01*
X195330108Y-125758252D01*
X195126718Y-125674005D01*
X194943671Y-125551697D01*
X194788003Y-125396029D01*
X194665695Y-125212982D01*
X194581448Y-125009592D01*
X194538500Y-124793674D01*
X194538500Y-124573526D01*
X194581448Y-124357608D01*
X194665695Y-124154218D01*
X194788003Y-123971171D01*
X194943671Y-123815503D01*
X195126718Y-123693195D01*
X195330108Y-123608948D01*
X195515300Y-123572112D01*
X195546025Y-123566000D01*
X195766175Y-123566000D01*
X195796900Y-123572112D01*
X195796900Y-123572112D01*
G37*
G36*
X131026900Y-123572112D02*
G01*
X131212092Y-123608948D01*
X131415482Y-123693195D01*
X131598529Y-123815503D01*
X131754197Y-123971171D01*
X131876505Y-124154218D01*
X131960752Y-124357608D01*
X132003700Y-124573526D01*
X132003700Y-124793674D01*
X131960752Y-125009592D01*
X131876505Y-125212982D01*
X131754197Y-125396029D01*
X131598529Y-125551697D01*
X131415482Y-125674005D01*
X131212092Y-125758252D01*
X131026900Y-125795088D01*
X130996175Y-125801200D01*
X130776025Y-125801200D01*
X130745300Y-125795088D01*
X130560108Y-125758252D01*
X130356718Y-125674005D01*
X130173671Y-125551697D01*
X130018003Y-125396029D01*
X129895695Y-125212982D01*
X129811448Y-125009592D01*
X129768500Y-124793674D01*
X129768500Y-124573526D01*
X129811448Y-124357608D01*
X129895695Y-124154218D01*
X130018003Y-123971171D01*
X130173671Y-123815503D01*
X130356718Y-123693195D01*
X130560108Y-123608948D01*
X130745300Y-123572112D01*
X130776025Y-123566000D01*
X130996175Y-123566000D01*
X131026900Y-123572112D01*
X131026900Y-123572112D01*
G37*
G36*
X150076900Y-123572112D02*
G01*
X150262092Y-123608948D01*
X150465482Y-123693195D01*
X150648529Y-123815503D01*
X150804197Y-123971171D01*
X150926505Y-124154218D01*
X151010752Y-124357608D01*
X151053700Y-124573526D01*
X151053700Y-124793674D01*
X151010752Y-125009592D01*
X150926505Y-125212982D01*
X150804197Y-125396029D01*
X150648529Y-125551697D01*
X150465482Y-125674005D01*
X150262092Y-125758252D01*
X150076900Y-125795088D01*
X150046175Y-125801200D01*
X149826025Y-125801200D01*
X149795300Y-125795088D01*
X149610108Y-125758252D01*
X149406718Y-125674005D01*
X149223671Y-125551697D01*
X149068003Y-125396029D01*
X148945695Y-125212982D01*
X148861448Y-125009592D01*
X148818500Y-124793674D01*
X148818500Y-124573526D01*
X148861448Y-124357608D01*
X148945695Y-124154218D01*
X149068003Y-123971171D01*
X149223671Y-123815503D01*
X149406718Y-123693195D01*
X149610108Y-123608948D01*
X149795300Y-123572112D01*
X149826025Y-123566000D01*
X150046175Y-123566000D01*
X150076900Y-123572112D01*
X150076900Y-123572112D01*
G37*
G36*
X176746900Y-123572112D02*
G01*
X176932092Y-123608948D01*
X177135482Y-123693195D01*
X177318529Y-123815503D01*
X177474197Y-123971171D01*
X177596505Y-124154218D01*
X177680752Y-124357608D01*
X177723700Y-124573526D01*
X177723700Y-124793674D01*
X177680752Y-125009592D01*
X177596505Y-125212982D01*
X177474197Y-125396029D01*
X177318529Y-125551697D01*
X177135482Y-125674005D01*
X176932092Y-125758252D01*
X176746900Y-125795088D01*
X176716175Y-125801200D01*
X176496025Y-125801200D01*
X176465300Y-125795088D01*
X176280108Y-125758252D01*
X176076718Y-125674005D01*
X175893671Y-125551697D01*
X175738003Y-125396029D01*
X175615695Y-125212982D01*
X175531448Y-125009592D01*
X175488500Y-124793674D01*
X175488500Y-124573526D01*
X175531448Y-124357608D01*
X175615695Y-124154218D01*
X175738003Y-123971171D01*
X175893671Y-123815503D01*
X176076718Y-123693195D01*
X176280108Y-123608948D01*
X176465300Y-123572112D01*
X176496025Y-123566000D01*
X176716175Y-123566000D01*
X176746900Y-123572112D01*
X176746900Y-123572112D01*
G37*
G36*
X169126900Y-123572112D02*
G01*
X169312092Y-123608948D01*
X169515482Y-123693195D01*
X169698529Y-123815503D01*
X169854197Y-123971171D01*
X169976505Y-124154218D01*
X170060752Y-124357608D01*
X170103700Y-124573526D01*
X170103700Y-124793674D01*
X170060752Y-125009592D01*
X169976505Y-125212982D01*
X169854197Y-125396029D01*
X169698529Y-125551697D01*
X169515482Y-125674005D01*
X169312092Y-125758252D01*
X169126900Y-125795088D01*
X169096175Y-125801200D01*
X168876025Y-125801200D01*
X168845300Y-125795088D01*
X168660108Y-125758252D01*
X168456718Y-125674005D01*
X168273671Y-125551697D01*
X168118003Y-125396029D01*
X167995695Y-125212982D01*
X167911448Y-125009592D01*
X167868500Y-124793674D01*
X167868500Y-124573526D01*
X167911448Y-124357608D01*
X167995695Y-124154218D01*
X168118003Y-123971171D01*
X168273671Y-123815503D01*
X168456718Y-123693195D01*
X168660108Y-123608948D01*
X168845300Y-123572112D01*
X168876025Y-123566000D01*
X169096175Y-123566000D01*
X169126900Y-123572112D01*
X169126900Y-123572112D01*
G37*
G36*
X176746900Y-121032112D02*
G01*
X176932092Y-121068948D01*
X177135482Y-121153195D01*
X177318529Y-121275503D01*
X177474197Y-121431171D01*
X177596505Y-121614218D01*
X177680752Y-121817608D01*
X177723700Y-122033526D01*
X177723700Y-122253674D01*
X177680752Y-122469592D01*
X177596505Y-122672982D01*
X177474197Y-122856029D01*
X177318529Y-123011697D01*
X177135482Y-123134005D01*
X176932092Y-123218252D01*
X176746900Y-123255088D01*
X176716175Y-123261200D01*
X176496025Y-123261200D01*
X176465300Y-123255088D01*
X176280108Y-123218252D01*
X176076718Y-123134005D01*
X175893671Y-123011697D01*
X175738003Y-122856029D01*
X175615695Y-122672982D01*
X175531448Y-122469592D01*
X175488500Y-122253674D01*
X175488500Y-122033526D01*
X175531448Y-121817608D01*
X175615695Y-121614218D01*
X175738003Y-121431171D01*
X175893671Y-121275503D01*
X176076718Y-121153195D01*
X176280108Y-121068948D01*
X176465300Y-121032112D01*
X176496025Y-121026000D01*
X176716175Y-121026000D01*
X176746900Y-121032112D01*
X176746900Y-121032112D01*
G37*
G36*
X131026900Y-121032112D02*
G01*
X131212092Y-121068948D01*
X131415482Y-121153195D01*
X131598529Y-121275503D01*
X131754197Y-121431171D01*
X131876505Y-121614218D01*
X131960752Y-121817608D01*
X132003700Y-122033526D01*
X132003700Y-122253674D01*
X131960752Y-122469592D01*
X131876505Y-122672982D01*
X131754197Y-122856029D01*
X131598529Y-123011697D01*
X131415482Y-123134005D01*
X131212092Y-123218252D01*
X131026900Y-123255088D01*
X130996175Y-123261200D01*
X130776025Y-123261200D01*
X130745300Y-123255088D01*
X130560108Y-123218252D01*
X130356718Y-123134005D01*
X130173671Y-123011697D01*
X130018003Y-122856029D01*
X129895695Y-122672982D01*
X129811448Y-122469592D01*
X129768500Y-122253674D01*
X129768500Y-122033526D01*
X129811448Y-121817608D01*
X129895695Y-121614218D01*
X130018003Y-121431171D01*
X130173671Y-121275503D01*
X130356718Y-121153195D01*
X130560108Y-121068948D01*
X130745300Y-121032112D01*
X130776025Y-121026000D01*
X130996175Y-121026000D01*
X131026900Y-121032112D01*
X131026900Y-121032112D01*
G37*
G36*
X138646900Y-121032112D02*
G01*
X138832092Y-121068948D01*
X139035482Y-121153195D01*
X139218529Y-121275503D01*
X139374197Y-121431171D01*
X139496505Y-121614218D01*
X139580752Y-121817608D01*
X139623700Y-122033526D01*
X139623700Y-122253674D01*
X139580752Y-122469592D01*
X139496505Y-122672982D01*
X139374197Y-122856029D01*
X139218529Y-123011697D01*
X139035482Y-123134005D01*
X138832092Y-123218252D01*
X138646900Y-123255088D01*
X138616175Y-123261200D01*
X138396025Y-123261200D01*
X138365300Y-123255088D01*
X138180108Y-123218252D01*
X137976718Y-123134005D01*
X137793671Y-123011697D01*
X137638003Y-122856029D01*
X137515695Y-122672982D01*
X137431448Y-122469592D01*
X137388500Y-122253674D01*
X137388500Y-122033526D01*
X137431448Y-121817608D01*
X137515695Y-121614218D01*
X137638003Y-121431171D01*
X137793671Y-121275503D01*
X137976718Y-121153195D01*
X138180108Y-121068948D01*
X138365300Y-121032112D01*
X138396025Y-121026000D01*
X138616175Y-121026000D01*
X138646900Y-121032112D01*
X138646900Y-121032112D01*
G37*
G36*
X157696900Y-121032112D02*
G01*
X157882092Y-121068948D01*
X158085482Y-121153195D01*
X158268529Y-121275503D01*
X158424197Y-121431171D01*
X158546505Y-121614218D01*
X158630752Y-121817608D01*
X158673700Y-122033526D01*
X158673700Y-122253674D01*
X158630752Y-122469592D01*
X158546505Y-122672982D01*
X158424197Y-122856029D01*
X158268529Y-123011697D01*
X158085482Y-123134005D01*
X157882092Y-123218252D01*
X157696900Y-123255088D01*
X157666175Y-123261200D01*
X157446025Y-123261200D01*
X157415300Y-123255088D01*
X157230108Y-123218252D01*
X157026718Y-123134005D01*
X156843671Y-123011697D01*
X156688003Y-122856029D01*
X156565695Y-122672982D01*
X156481448Y-122469592D01*
X156438500Y-122253674D01*
X156438500Y-122033526D01*
X156481448Y-121817608D01*
X156565695Y-121614218D01*
X156688003Y-121431171D01*
X156843671Y-121275503D01*
X157026718Y-121153195D01*
X157230108Y-121068948D01*
X157415300Y-121032112D01*
X157446025Y-121026000D01*
X157666175Y-121026000D01*
X157696900Y-121032112D01*
X157696900Y-121032112D01*
G37*
G36*
X150076900Y-121032112D02*
G01*
X150262092Y-121068948D01*
X150465482Y-121153195D01*
X150648529Y-121275503D01*
X150804197Y-121431171D01*
X150926505Y-121614218D01*
X151010752Y-121817608D01*
X151053700Y-122033526D01*
X151053700Y-122253674D01*
X151010752Y-122469592D01*
X150926505Y-122672982D01*
X150804197Y-122856029D01*
X150648529Y-123011697D01*
X150465482Y-123134005D01*
X150262092Y-123218252D01*
X150076900Y-123255088D01*
X150046175Y-123261200D01*
X149826025Y-123261200D01*
X149795300Y-123255088D01*
X149610108Y-123218252D01*
X149406718Y-123134005D01*
X149223671Y-123011697D01*
X149068003Y-122856029D01*
X148945695Y-122672982D01*
X148861448Y-122469592D01*
X148818500Y-122253674D01*
X148818500Y-122033526D01*
X148861448Y-121817608D01*
X148945695Y-121614218D01*
X149068003Y-121431171D01*
X149223671Y-121275503D01*
X149406718Y-121153195D01*
X149610108Y-121068948D01*
X149795300Y-121032112D01*
X149826025Y-121026000D01*
X150046175Y-121026000D01*
X150076900Y-121032112D01*
X150076900Y-121032112D01*
G37*
G36*
X169126900Y-121032112D02*
G01*
X169312092Y-121068948D01*
X169515482Y-121153195D01*
X169698529Y-121275503D01*
X169854197Y-121431171D01*
X169976505Y-121614218D01*
X170060752Y-121817608D01*
X170103700Y-122033526D01*
X170103700Y-122253674D01*
X170060752Y-122469592D01*
X169976505Y-122672982D01*
X169854197Y-122856029D01*
X169698529Y-123011697D01*
X169515482Y-123134005D01*
X169312092Y-123218252D01*
X169126900Y-123255088D01*
X169096175Y-123261200D01*
X168876025Y-123261200D01*
X168845300Y-123255088D01*
X168660108Y-123218252D01*
X168456718Y-123134005D01*
X168273671Y-123011697D01*
X168118003Y-122856029D01*
X167995695Y-122672982D01*
X167911448Y-122469592D01*
X167868500Y-122253674D01*
X167868500Y-122033526D01*
X167911448Y-121817608D01*
X167995695Y-121614218D01*
X168118003Y-121431171D01*
X168273671Y-121275503D01*
X168456718Y-121153195D01*
X168660108Y-121068948D01*
X168845300Y-121032112D01*
X168876025Y-121026000D01*
X169096175Y-121026000D01*
X169126900Y-121032112D01*
X169126900Y-121032112D01*
G37*
G36*
X188176900Y-121032112D02*
G01*
X188362092Y-121068948D01*
X188565482Y-121153195D01*
X188748529Y-121275503D01*
X188904197Y-121431171D01*
X189026505Y-121614218D01*
X189110752Y-121817608D01*
X189153700Y-122033526D01*
X189153700Y-122253674D01*
X189110752Y-122469592D01*
X189026505Y-122672982D01*
X188904197Y-122856029D01*
X188748529Y-123011697D01*
X188565482Y-123134005D01*
X188362092Y-123218252D01*
X188176900Y-123255088D01*
X188146175Y-123261200D01*
X187926025Y-123261200D01*
X187895300Y-123255088D01*
X187710108Y-123218252D01*
X187506718Y-123134005D01*
X187323671Y-123011697D01*
X187168003Y-122856029D01*
X187045695Y-122672982D01*
X186961448Y-122469592D01*
X186918500Y-122253674D01*
X186918500Y-122033526D01*
X186961448Y-121817608D01*
X187045695Y-121614218D01*
X187168003Y-121431171D01*
X187323671Y-121275503D01*
X187506718Y-121153195D01*
X187710108Y-121068948D01*
X187895300Y-121032112D01*
X187926025Y-121026000D01*
X188146175Y-121026000D01*
X188176900Y-121032112D01*
X188176900Y-121032112D01*
G37*
G36*
X195796900Y-121032112D02*
G01*
X195982092Y-121068948D01*
X196185482Y-121153195D01*
X196368529Y-121275503D01*
X196524197Y-121431171D01*
X196646505Y-121614218D01*
X196730752Y-121817608D01*
X196773700Y-122033526D01*
X196773700Y-122253674D01*
X196730752Y-122469592D01*
X196646505Y-122672982D01*
X196524197Y-122856029D01*
X196368529Y-123011697D01*
X196185482Y-123134005D01*
X195982092Y-123218252D01*
X195796900Y-123255088D01*
X195766175Y-123261200D01*
X195546025Y-123261200D01*
X195515300Y-123255088D01*
X195330108Y-123218252D01*
X195126718Y-123134005D01*
X194943671Y-123011697D01*
X194788003Y-122856029D01*
X194665695Y-122672982D01*
X194581448Y-122469592D01*
X194538500Y-122253674D01*
X194538500Y-122033526D01*
X194581448Y-121817608D01*
X194665695Y-121614218D01*
X194788003Y-121431171D01*
X194943671Y-121275503D01*
X195126718Y-121153195D01*
X195330108Y-121068948D01*
X195515300Y-121032112D01*
X195546025Y-121026000D01*
X195766175Y-121026000D01*
X195796900Y-121032112D01*
X195796900Y-121032112D01*
G37*
G36*
X169126900Y-118492112D02*
G01*
X169312092Y-118528948D01*
X169515482Y-118613195D01*
X169698529Y-118735503D01*
X169854197Y-118891171D01*
X169976505Y-119074218D01*
X170060752Y-119277608D01*
X170103700Y-119493526D01*
X170103700Y-119713674D01*
X170060752Y-119929592D01*
X169976505Y-120132982D01*
X169854197Y-120316029D01*
X169698529Y-120471697D01*
X169515482Y-120594005D01*
X169312092Y-120678252D01*
X169126900Y-120715088D01*
X169096175Y-120721200D01*
X168876025Y-120721200D01*
X168845300Y-120715088D01*
X168660108Y-120678252D01*
X168456718Y-120594005D01*
X168273671Y-120471697D01*
X168118003Y-120316029D01*
X167995695Y-120132982D01*
X167911448Y-119929592D01*
X167868500Y-119713674D01*
X167868500Y-119493526D01*
X167911448Y-119277608D01*
X167995695Y-119074218D01*
X168118003Y-118891171D01*
X168273671Y-118735503D01*
X168456718Y-118613195D01*
X168660108Y-118528948D01*
X168845300Y-118492112D01*
X168876025Y-118486000D01*
X169096175Y-118486000D01*
X169126900Y-118492112D01*
X169126900Y-118492112D01*
G37*
G36*
X157696900Y-118492112D02*
G01*
X157882092Y-118528948D01*
X158085482Y-118613195D01*
X158268529Y-118735503D01*
X158424197Y-118891171D01*
X158546505Y-119074218D01*
X158630752Y-119277608D01*
X158673700Y-119493526D01*
X158673700Y-119713674D01*
X158630752Y-119929592D01*
X158546505Y-120132982D01*
X158424197Y-120316029D01*
X158268529Y-120471697D01*
X158085482Y-120594005D01*
X157882092Y-120678252D01*
X157696900Y-120715088D01*
X157666175Y-120721200D01*
X157446025Y-120721200D01*
X157415300Y-120715088D01*
X157230108Y-120678252D01*
X157026718Y-120594005D01*
X156843671Y-120471697D01*
X156688003Y-120316029D01*
X156565695Y-120132982D01*
X156481448Y-119929592D01*
X156438500Y-119713674D01*
X156438500Y-119493526D01*
X156481448Y-119277608D01*
X156565695Y-119074218D01*
X156688003Y-118891171D01*
X156843671Y-118735503D01*
X157026718Y-118613195D01*
X157230108Y-118528948D01*
X157415300Y-118492112D01*
X157446025Y-118486000D01*
X157666175Y-118486000D01*
X157696900Y-118492112D01*
X157696900Y-118492112D01*
G37*
G36*
X150076900Y-118492112D02*
G01*
X150262092Y-118528948D01*
X150465482Y-118613195D01*
X150648529Y-118735503D01*
X150804197Y-118891171D01*
X150926505Y-119074218D01*
X151010752Y-119277608D01*
X151053700Y-119493526D01*
X151053700Y-119713674D01*
X151010752Y-119929592D01*
X150926505Y-120132982D01*
X150804197Y-120316029D01*
X150648529Y-120471697D01*
X150465482Y-120594005D01*
X150262092Y-120678252D01*
X150076900Y-120715088D01*
X150046175Y-120721200D01*
X149826025Y-120721200D01*
X149795300Y-120715088D01*
X149610108Y-120678252D01*
X149406718Y-120594005D01*
X149223671Y-120471697D01*
X149068003Y-120316029D01*
X148945695Y-120132982D01*
X148861448Y-119929592D01*
X148818500Y-119713674D01*
X148818500Y-119493526D01*
X148861448Y-119277608D01*
X148945695Y-119074218D01*
X149068003Y-118891171D01*
X149223671Y-118735503D01*
X149406718Y-118613195D01*
X149610108Y-118528948D01*
X149795300Y-118492112D01*
X149826025Y-118486000D01*
X150046175Y-118486000D01*
X150076900Y-118492112D01*
X150076900Y-118492112D01*
G37*
G36*
X138646900Y-118492112D02*
G01*
X138832092Y-118528948D01*
X139035482Y-118613195D01*
X139218529Y-118735503D01*
X139374197Y-118891171D01*
X139496505Y-119074218D01*
X139580752Y-119277608D01*
X139623700Y-119493526D01*
X139623700Y-119713674D01*
X139580752Y-119929592D01*
X139496505Y-120132982D01*
X139374197Y-120316029D01*
X139218529Y-120471697D01*
X139035482Y-120594005D01*
X138832092Y-120678252D01*
X138646900Y-120715088D01*
X138616175Y-120721200D01*
X138396025Y-120721200D01*
X138365300Y-120715088D01*
X138180108Y-120678252D01*
X137976718Y-120594005D01*
X137793671Y-120471697D01*
X137638003Y-120316029D01*
X137515695Y-120132982D01*
X137431448Y-119929592D01*
X137388500Y-119713674D01*
X137388500Y-119493526D01*
X137431448Y-119277608D01*
X137515695Y-119074218D01*
X137638003Y-118891171D01*
X137793671Y-118735503D01*
X137976718Y-118613195D01*
X138180108Y-118528948D01*
X138365300Y-118492112D01*
X138396025Y-118486000D01*
X138616175Y-118486000D01*
X138646900Y-118492112D01*
X138646900Y-118492112D01*
G37*
G36*
X131026900Y-118492112D02*
G01*
X131212092Y-118528948D01*
X131415482Y-118613195D01*
X131598529Y-118735503D01*
X131754197Y-118891171D01*
X131876505Y-119074218D01*
X131960752Y-119277608D01*
X132003700Y-119493526D01*
X132003700Y-119713674D01*
X131960752Y-119929592D01*
X131876505Y-120132982D01*
X131754197Y-120316029D01*
X131598529Y-120471697D01*
X131415482Y-120594005D01*
X131212092Y-120678252D01*
X131026900Y-120715088D01*
X130996175Y-120721200D01*
X130776025Y-120721200D01*
X130745300Y-120715088D01*
X130560108Y-120678252D01*
X130356718Y-120594005D01*
X130173671Y-120471697D01*
X130018003Y-120316029D01*
X129895695Y-120132982D01*
X129811448Y-119929592D01*
X129768500Y-119713674D01*
X129768500Y-119493526D01*
X129811448Y-119277608D01*
X129895695Y-119074218D01*
X130018003Y-118891171D01*
X130173671Y-118735503D01*
X130356718Y-118613195D01*
X130560108Y-118528948D01*
X130745300Y-118492112D01*
X130776025Y-118486000D01*
X130996175Y-118486000D01*
X131026900Y-118492112D01*
X131026900Y-118492112D01*
G37*
G36*
X195796900Y-118492112D02*
G01*
X195982092Y-118528948D01*
X196185482Y-118613195D01*
X196368529Y-118735503D01*
X196524197Y-118891171D01*
X196646505Y-119074218D01*
X196730752Y-119277608D01*
X196773700Y-119493526D01*
X196773700Y-119713674D01*
X196730752Y-119929592D01*
X196646505Y-120132982D01*
X196524197Y-120316029D01*
X196368529Y-120471697D01*
X196185482Y-120594005D01*
X195982092Y-120678252D01*
X195796900Y-120715088D01*
X195766175Y-120721200D01*
X195546025Y-120721200D01*
X195515300Y-120715088D01*
X195330108Y-120678252D01*
X195126718Y-120594005D01*
X194943671Y-120471697D01*
X194788003Y-120316029D01*
X194665695Y-120132982D01*
X194581448Y-119929592D01*
X194538500Y-119713674D01*
X194538500Y-119493526D01*
X194581448Y-119277608D01*
X194665695Y-119074218D01*
X194788003Y-118891171D01*
X194943671Y-118735503D01*
X195126718Y-118613195D01*
X195330108Y-118528948D01*
X195515300Y-118492112D01*
X195546025Y-118486000D01*
X195766175Y-118486000D01*
X195796900Y-118492112D01*
X195796900Y-118492112D01*
G37*
G36*
X176746900Y-118492112D02*
G01*
X176932092Y-118528948D01*
X177135482Y-118613195D01*
X177318529Y-118735503D01*
X177474197Y-118891171D01*
X177596505Y-119074218D01*
X177680752Y-119277608D01*
X177723700Y-119493526D01*
X177723700Y-119713674D01*
X177680752Y-119929592D01*
X177596505Y-120132982D01*
X177474197Y-120316029D01*
X177318529Y-120471697D01*
X177135482Y-120594005D01*
X176932092Y-120678252D01*
X176746900Y-120715088D01*
X176716175Y-120721200D01*
X176496025Y-120721200D01*
X176465300Y-120715088D01*
X176280108Y-120678252D01*
X176076718Y-120594005D01*
X175893671Y-120471697D01*
X175738003Y-120316029D01*
X175615695Y-120132982D01*
X175531448Y-119929592D01*
X175488500Y-119713674D01*
X175488500Y-119493526D01*
X175531448Y-119277608D01*
X175615695Y-119074218D01*
X175738003Y-118891171D01*
X175893671Y-118735503D01*
X176076718Y-118613195D01*
X176280108Y-118528948D01*
X176465300Y-118492112D01*
X176496025Y-118486000D01*
X176716175Y-118486000D01*
X176746900Y-118492112D01*
X176746900Y-118492112D01*
G37*
G36*
X188176900Y-118492112D02*
G01*
X188362092Y-118528948D01*
X188565482Y-118613195D01*
X188748529Y-118735503D01*
X188904197Y-118891171D01*
X189026505Y-119074218D01*
X189110752Y-119277608D01*
X189153700Y-119493526D01*
X189153700Y-119713674D01*
X189110752Y-119929592D01*
X189026505Y-120132982D01*
X188904197Y-120316029D01*
X188748529Y-120471697D01*
X188565482Y-120594005D01*
X188362092Y-120678252D01*
X188176900Y-120715088D01*
X188146175Y-120721200D01*
X187926025Y-120721200D01*
X187895300Y-120715088D01*
X187710108Y-120678252D01*
X187506718Y-120594005D01*
X187323671Y-120471697D01*
X187168003Y-120316029D01*
X187045695Y-120132982D01*
X186961448Y-119929592D01*
X186918500Y-119713674D01*
X186918500Y-119493526D01*
X186961448Y-119277608D01*
X187045695Y-119074218D01*
X187168003Y-118891171D01*
X187323671Y-118735503D01*
X187506718Y-118613195D01*
X187710108Y-118528948D01*
X187895300Y-118492112D01*
X187926025Y-118486000D01*
X188146175Y-118486000D01*
X188176900Y-118492112D01*
X188176900Y-118492112D01*
G37*
G36*
X185162570Y-118706373D02*
G01*
X185334181Y-118758430D01*
X185492338Y-118842967D01*
X185630965Y-118956735D01*
X185744733Y-119095362D01*
X185829270Y-119253519D01*
X185881327Y-119425130D01*
X185898905Y-119603600D01*
X185881327Y-119782070D01*
X185829270Y-119953681D01*
X185744733Y-120111838D01*
X185630965Y-120250465D01*
X185492338Y-120364233D01*
X185334181Y-120448770D01*
X185162570Y-120500827D01*
X185028824Y-120514000D01*
X183423376Y-120514000D01*
X183289630Y-120500827D01*
X183118019Y-120448770D01*
X182959862Y-120364233D01*
X182821235Y-120250465D01*
X182707467Y-120111838D01*
X182622930Y-119953681D01*
X182570873Y-119782070D01*
X182553295Y-119603600D01*
X182570873Y-119425130D01*
X182622930Y-119253519D01*
X182707467Y-119095362D01*
X182821235Y-118956735D01*
X182959862Y-118842967D01*
X183118019Y-118758430D01*
X183289630Y-118706373D01*
X183423376Y-118693200D01*
X185028824Y-118693200D01*
X185162570Y-118706373D01*
X185162570Y-118706373D01*
G37*
G36*
X126742570Y-118706373D02*
G01*
X126914181Y-118758430D01*
X127072338Y-118842967D01*
X127210965Y-118956735D01*
X127324733Y-119095362D01*
X127409270Y-119253519D01*
X127461327Y-119425130D01*
X127478905Y-119603600D01*
X127461327Y-119782070D01*
X127409270Y-119953681D01*
X127324733Y-120111838D01*
X127210965Y-120250465D01*
X127072338Y-120364233D01*
X126914181Y-120448770D01*
X126742570Y-120500827D01*
X126608824Y-120514000D01*
X125003376Y-120514000D01*
X124869630Y-120500827D01*
X124698019Y-120448770D01*
X124539862Y-120364233D01*
X124401235Y-120250465D01*
X124287467Y-120111838D01*
X124202930Y-119953681D01*
X124150873Y-119782070D01*
X124133295Y-119603600D01*
X124150873Y-119425130D01*
X124202930Y-119253519D01*
X124287467Y-119095362D01*
X124401235Y-118956735D01*
X124539862Y-118842967D01*
X124698019Y-118758430D01*
X124869630Y-118706373D01*
X125003376Y-118693200D01*
X126608824Y-118693200D01*
X126742570Y-118706373D01*
X126742570Y-118706373D01*
G37*
G36*
X147062570Y-118706373D02*
G01*
X147234181Y-118758430D01*
X147392338Y-118842967D01*
X147530965Y-118956735D01*
X147644733Y-119095362D01*
X147729270Y-119253519D01*
X147781327Y-119425130D01*
X147798905Y-119603600D01*
X147781327Y-119782070D01*
X147729270Y-119953681D01*
X147644733Y-120111838D01*
X147530965Y-120250465D01*
X147392338Y-120364233D01*
X147234181Y-120448770D01*
X147062570Y-120500827D01*
X146928824Y-120514000D01*
X145323376Y-120514000D01*
X145189630Y-120500827D01*
X145018019Y-120448770D01*
X144859862Y-120364233D01*
X144721235Y-120250465D01*
X144607467Y-120111838D01*
X144522930Y-119953681D01*
X144470873Y-119782070D01*
X144453295Y-119603600D01*
X144470873Y-119425130D01*
X144522930Y-119253519D01*
X144607467Y-119095362D01*
X144721235Y-118956735D01*
X144859862Y-118842967D01*
X145018019Y-118758430D01*
X145189630Y-118706373D01*
X145323376Y-118693200D01*
X146928824Y-118693200D01*
X147062570Y-118706373D01*
X147062570Y-118706373D01*
G37*
G36*
X166112570Y-118706373D02*
G01*
X166284181Y-118758430D01*
X166442338Y-118842967D01*
X166580965Y-118956735D01*
X166694733Y-119095362D01*
X166779270Y-119253519D01*
X166831327Y-119425130D01*
X166848905Y-119603600D01*
X166831327Y-119782070D01*
X166779270Y-119953681D01*
X166694733Y-120111838D01*
X166580965Y-120250465D01*
X166442338Y-120364233D01*
X166284181Y-120448770D01*
X166112570Y-120500827D01*
X165978824Y-120514000D01*
X164373376Y-120514000D01*
X164239630Y-120500827D01*
X164068019Y-120448770D01*
X163909862Y-120364233D01*
X163771235Y-120250465D01*
X163657467Y-120111838D01*
X163572930Y-119953681D01*
X163520873Y-119782070D01*
X163503295Y-119603600D01*
X163520873Y-119425130D01*
X163572930Y-119253519D01*
X163657467Y-119095362D01*
X163771235Y-118956735D01*
X163909862Y-118842967D01*
X164068019Y-118758430D01*
X164239630Y-118706373D01*
X164373376Y-118693200D01*
X165978824Y-118693200D01*
X166112570Y-118706373D01*
X166112570Y-118706373D01*
G37*
G36*
X162302570Y-118706373D02*
G01*
X162474181Y-118758430D01*
X162632338Y-118842967D01*
X162770965Y-118956735D01*
X162884733Y-119095362D01*
X162969270Y-119253519D01*
X163021327Y-119425130D01*
X163038905Y-119603600D01*
X163021327Y-119782070D01*
X162969270Y-119953681D01*
X162884733Y-120111838D01*
X162770965Y-120250465D01*
X162632338Y-120364233D01*
X162474181Y-120448770D01*
X162302570Y-120500827D01*
X162168824Y-120514000D01*
X160563376Y-120514000D01*
X160429630Y-120500827D01*
X160258019Y-120448770D01*
X160099862Y-120364233D01*
X159961235Y-120250465D01*
X159847467Y-120111838D01*
X159762930Y-119953681D01*
X159710873Y-119782070D01*
X159693295Y-119603600D01*
X159710873Y-119425130D01*
X159762930Y-119253519D01*
X159847467Y-119095362D01*
X159961235Y-118956735D01*
X160099862Y-118842967D01*
X160258019Y-118758430D01*
X160429630Y-118706373D01*
X160563376Y-118693200D01*
X162168824Y-118693200D01*
X162302570Y-118706373D01*
X162302570Y-118706373D01*
G37*
G36*
X200402570Y-118706373D02*
G01*
X200574181Y-118758430D01*
X200732338Y-118842967D01*
X200870965Y-118956735D01*
X200984733Y-119095362D01*
X201069270Y-119253519D01*
X201121327Y-119425130D01*
X201138905Y-119603600D01*
X201121327Y-119782070D01*
X201069270Y-119953681D01*
X200984733Y-120111838D01*
X200870965Y-120250465D01*
X200732338Y-120364233D01*
X200574181Y-120448770D01*
X200402570Y-120500827D01*
X200268824Y-120514000D01*
X198663376Y-120514000D01*
X198529630Y-120500827D01*
X198358019Y-120448770D01*
X198199862Y-120364233D01*
X198061235Y-120250465D01*
X197947467Y-120111838D01*
X197862930Y-119953681D01*
X197810873Y-119782070D01*
X197793295Y-119603600D01*
X197810873Y-119425130D01*
X197862930Y-119253519D01*
X197947467Y-119095362D01*
X198061235Y-118956735D01*
X198199862Y-118842967D01*
X198358019Y-118758430D01*
X198529630Y-118706373D01*
X198663376Y-118693200D01*
X200268824Y-118693200D01*
X200402570Y-118706373D01*
X200402570Y-118706373D01*
G37*
G36*
X143252570Y-118706373D02*
G01*
X143424181Y-118758430D01*
X143582338Y-118842967D01*
X143720965Y-118956735D01*
X143834733Y-119095362D01*
X143919270Y-119253519D01*
X143971327Y-119425130D01*
X143988905Y-119603600D01*
X143971327Y-119782070D01*
X143919270Y-119953681D01*
X143834733Y-120111838D01*
X143720965Y-120250465D01*
X143582338Y-120364233D01*
X143424181Y-120448770D01*
X143252570Y-120500827D01*
X143118824Y-120514000D01*
X141513376Y-120514000D01*
X141379630Y-120500827D01*
X141208019Y-120448770D01*
X141049862Y-120364233D01*
X140911235Y-120250465D01*
X140797467Y-120111838D01*
X140712930Y-119953681D01*
X140660873Y-119782070D01*
X140643295Y-119603600D01*
X140660873Y-119425130D01*
X140712930Y-119253519D01*
X140797467Y-119095362D01*
X140911235Y-118956735D01*
X141049862Y-118842967D01*
X141208019Y-118758430D01*
X141379630Y-118706373D01*
X141513376Y-118693200D01*
X143118824Y-118693200D01*
X143252570Y-118706373D01*
X143252570Y-118706373D01*
G37*
G36*
X181352570Y-118706373D02*
G01*
X181524181Y-118758430D01*
X181682338Y-118842967D01*
X181820965Y-118956735D01*
X181934733Y-119095362D01*
X182019270Y-119253519D01*
X182071327Y-119425130D01*
X182088905Y-119603600D01*
X182071327Y-119782070D01*
X182019270Y-119953681D01*
X181934733Y-120111838D01*
X181820965Y-120250465D01*
X181682338Y-120364233D01*
X181524181Y-120448770D01*
X181352570Y-120500827D01*
X181218824Y-120514000D01*
X179613376Y-120514000D01*
X179479630Y-120500827D01*
X179308019Y-120448770D01*
X179149862Y-120364233D01*
X179011235Y-120250465D01*
X178897467Y-120111838D01*
X178812930Y-119953681D01*
X178760873Y-119782070D01*
X178743295Y-119603600D01*
X178760873Y-119425130D01*
X178812930Y-119253519D01*
X178897467Y-119095362D01*
X179011235Y-118956735D01*
X179149862Y-118842967D01*
X179308019Y-118758430D01*
X179479630Y-118706373D01*
X179613376Y-118693200D01*
X181218824Y-118693200D01*
X181352570Y-118706373D01*
X181352570Y-118706373D01*
G37*
G36*
X169126900Y-115952112D02*
G01*
X169312092Y-115988948D01*
X169515482Y-116073195D01*
X169698529Y-116195503D01*
X169854197Y-116351171D01*
X169976505Y-116534218D01*
X170060752Y-116737608D01*
X170103700Y-116953526D01*
X170103700Y-117173674D01*
X170060752Y-117389592D01*
X169976505Y-117592982D01*
X169854197Y-117776029D01*
X169698529Y-117931697D01*
X169515482Y-118054005D01*
X169312092Y-118138252D01*
X169126900Y-118175088D01*
X169096175Y-118181200D01*
X168876025Y-118181200D01*
X168845300Y-118175088D01*
X168660108Y-118138252D01*
X168456718Y-118054005D01*
X168273671Y-117931697D01*
X168118003Y-117776029D01*
X167995695Y-117592982D01*
X167911448Y-117389592D01*
X167868500Y-117173674D01*
X167868500Y-116953526D01*
X167911448Y-116737608D01*
X167995695Y-116534218D01*
X168118003Y-116351171D01*
X168273671Y-116195503D01*
X168456718Y-116073195D01*
X168660108Y-115988948D01*
X168845300Y-115952112D01*
X168876025Y-115946000D01*
X169096175Y-115946000D01*
X169126900Y-115952112D01*
X169126900Y-115952112D01*
G37*
G36*
X176746900Y-115952112D02*
G01*
X176932092Y-115988948D01*
X177135482Y-116073195D01*
X177318529Y-116195503D01*
X177474197Y-116351171D01*
X177596505Y-116534218D01*
X177680752Y-116737608D01*
X177723700Y-116953526D01*
X177723700Y-117173674D01*
X177680752Y-117389592D01*
X177596505Y-117592982D01*
X177474197Y-117776029D01*
X177318529Y-117931697D01*
X177135482Y-118054005D01*
X176932092Y-118138252D01*
X176746900Y-118175088D01*
X176716175Y-118181200D01*
X176496025Y-118181200D01*
X176465300Y-118175088D01*
X176280108Y-118138252D01*
X176076718Y-118054005D01*
X175893671Y-117931697D01*
X175738003Y-117776029D01*
X175615695Y-117592982D01*
X175531448Y-117389592D01*
X175488500Y-117173674D01*
X175488500Y-116953526D01*
X175531448Y-116737608D01*
X175615695Y-116534218D01*
X175738003Y-116351171D01*
X175893671Y-116195503D01*
X176076718Y-116073195D01*
X176280108Y-115988948D01*
X176465300Y-115952112D01*
X176496025Y-115946000D01*
X176716175Y-115946000D01*
X176746900Y-115952112D01*
X176746900Y-115952112D01*
G37*
G36*
X188176900Y-115952112D02*
G01*
X188362092Y-115988948D01*
X188565482Y-116073195D01*
X188748529Y-116195503D01*
X188904197Y-116351171D01*
X189026505Y-116534218D01*
X189110752Y-116737608D01*
X189153700Y-116953526D01*
X189153700Y-117173674D01*
X189110752Y-117389592D01*
X189026505Y-117592982D01*
X188904197Y-117776029D01*
X188748529Y-117931697D01*
X188565482Y-118054005D01*
X188362092Y-118138252D01*
X188176900Y-118175088D01*
X188146175Y-118181200D01*
X187926025Y-118181200D01*
X187895300Y-118175088D01*
X187710108Y-118138252D01*
X187506718Y-118054005D01*
X187323671Y-117931697D01*
X187168003Y-117776029D01*
X187045695Y-117592982D01*
X186961448Y-117389592D01*
X186918500Y-117173674D01*
X186918500Y-116953526D01*
X186961448Y-116737608D01*
X187045695Y-116534218D01*
X187168003Y-116351171D01*
X187323671Y-116195503D01*
X187506718Y-116073195D01*
X187710108Y-115988948D01*
X187895300Y-115952112D01*
X187926025Y-115946000D01*
X188146175Y-115946000D01*
X188176900Y-115952112D01*
X188176900Y-115952112D01*
G37*
G36*
X150076900Y-115952112D02*
G01*
X150262092Y-115988948D01*
X150465482Y-116073195D01*
X150648529Y-116195503D01*
X150804197Y-116351171D01*
X150926505Y-116534218D01*
X151010752Y-116737608D01*
X151053700Y-116953526D01*
X151053700Y-117173674D01*
X151010752Y-117389592D01*
X150926505Y-117592982D01*
X150804197Y-117776029D01*
X150648529Y-117931697D01*
X150465482Y-118054005D01*
X150262092Y-118138252D01*
X150076900Y-118175088D01*
X150046175Y-118181200D01*
X149826025Y-118181200D01*
X149795300Y-118175088D01*
X149610108Y-118138252D01*
X149406718Y-118054005D01*
X149223671Y-117931697D01*
X149068003Y-117776029D01*
X148945695Y-117592982D01*
X148861448Y-117389592D01*
X148818500Y-117173674D01*
X148818500Y-116953526D01*
X148861448Y-116737608D01*
X148945695Y-116534218D01*
X149068003Y-116351171D01*
X149223671Y-116195503D01*
X149406718Y-116073195D01*
X149610108Y-115988948D01*
X149795300Y-115952112D01*
X149826025Y-115946000D01*
X150046175Y-115946000D01*
X150076900Y-115952112D01*
X150076900Y-115952112D01*
G37*
G36*
X138646900Y-115952112D02*
G01*
X138832092Y-115988948D01*
X139035482Y-116073195D01*
X139218529Y-116195503D01*
X139374197Y-116351171D01*
X139496505Y-116534218D01*
X139580752Y-116737608D01*
X139623700Y-116953526D01*
X139623700Y-117173674D01*
X139580752Y-117389592D01*
X139496505Y-117592982D01*
X139374197Y-117776029D01*
X139218529Y-117931697D01*
X139035482Y-118054005D01*
X138832092Y-118138252D01*
X138646900Y-118175088D01*
X138616175Y-118181200D01*
X138396025Y-118181200D01*
X138365300Y-118175088D01*
X138180108Y-118138252D01*
X137976718Y-118054005D01*
X137793671Y-117931697D01*
X137638003Y-117776029D01*
X137515695Y-117592982D01*
X137431448Y-117389592D01*
X137388500Y-117173674D01*
X137388500Y-116953526D01*
X137431448Y-116737608D01*
X137515695Y-116534218D01*
X137638003Y-116351171D01*
X137793671Y-116195503D01*
X137976718Y-116073195D01*
X138180108Y-115988948D01*
X138365300Y-115952112D01*
X138396025Y-115946000D01*
X138616175Y-115946000D01*
X138646900Y-115952112D01*
X138646900Y-115952112D01*
G37*
G36*
X157696900Y-115952112D02*
G01*
X157882092Y-115988948D01*
X158085482Y-116073195D01*
X158268529Y-116195503D01*
X158424197Y-116351171D01*
X158546505Y-116534218D01*
X158630752Y-116737608D01*
X158673700Y-116953526D01*
X158673700Y-117173674D01*
X158630752Y-117389592D01*
X158546505Y-117592982D01*
X158424197Y-117776029D01*
X158268529Y-117931697D01*
X158085482Y-118054005D01*
X157882092Y-118138252D01*
X157696900Y-118175088D01*
X157666175Y-118181200D01*
X157446025Y-118181200D01*
X157415300Y-118175088D01*
X157230108Y-118138252D01*
X157026718Y-118054005D01*
X156843671Y-117931697D01*
X156688003Y-117776029D01*
X156565695Y-117592982D01*
X156481448Y-117389592D01*
X156438500Y-117173674D01*
X156438500Y-116953526D01*
X156481448Y-116737608D01*
X156565695Y-116534218D01*
X156688003Y-116351171D01*
X156843671Y-116195503D01*
X157026718Y-116073195D01*
X157230108Y-115988948D01*
X157415300Y-115952112D01*
X157446025Y-115946000D01*
X157666175Y-115946000D01*
X157696900Y-115952112D01*
X157696900Y-115952112D01*
G37*
G36*
X131026900Y-115952112D02*
G01*
X131212092Y-115988948D01*
X131415482Y-116073195D01*
X131598529Y-116195503D01*
X131754197Y-116351171D01*
X131876505Y-116534218D01*
X131960752Y-116737608D01*
X132003700Y-116953526D01*
X132003700Y-117173674D01*
X131960752Y-117389592D01*
X131876505Y-117592982D01*
X131754197Y-117776029D01*
X131598529Y-117931697D01*
X131415482Y-118054005D01*
X131212092Y-118138252D01*
X131026900Y-118175088D01*
X130996175Y-118181200D01*
X130776025Y-118181200D01*
X130745300Y-118175088D01*
X130560108Y-118138252D01*
X130356718Y-118054005D01*
X130173671Y-117931697D01*
X130018003Y-117776029D01*
X129895695Y-117592982D01*
X129811448Y-117389592D01*
X129768500Y-117173674D01*
X129768500Y-116953526D01*
X129811448Y-116737608D01*
X129895695Y-116534218D01*
X130018003Y-116351171D01*
X130173671Y-116195503D01*
X130356718Y-116073195D01*
X130560108Y-115988948D01*
X130745300Y-115952112D01*
X130776025Y-115946000D01*
X130996175Y-115946000D01*
X131026900Y-115952112D01*
X131026900Y-115952112D01*
G37*
G36*
X195796900Y-115952112D02*
G01*
X195982092Y-115988948D01*
X196185482Y-116073195D01*
X196368529Y-116195503D01*
X196524197Y-116351171D01*
X196646505Y-116534218D01*
X196730752Y-116737608D01*
X196773700Y-116953526D01*
X196773700Y-117173674D01*
X196730752Y-117389592D01*
X196646505Y-117592982D01*
X196524197Y-117776029D01*
X196368529Y-117931697D01*
X196185482Y-118054005D01*
X195982092Y-118138252D01*
X195796900Y-118175088D01*
X195766175Y-118181200D01*
X195546025Y-118181200D01*
X195515300Y-118175088D01*
X195330108Y-118138252D01*
X195126718Y-118054005D01*
X194943671Y-117931697D01*
X194788003Y-117776029D01*
X194665695Y-117592982D01*
X194581448Y-117389592D01*
X194538500Y-117173674D01*
X194538500Y-116953526D01*
X194581448Y-116737608D01*
X194665695Y-116534218D01*
X194788003Y-116351171D01*
X194943671Y-116195503D01*
X195126718Y-116073195D01*
X195330108Y-115988948D01*
X195515300Y-115952112D01*
X195546025Y-115946000D01*
X195766175Y-115946000D01*
X195796900Y-115952112D01*
X195796900Y-115952112D01*
G37*
G36*
X143252570Y-116166373D02*
G01*
X143424181Y-116218430D01*
X143582338Y-116302967D01*
X143720965Y-116416735D01*
X143834733Y-116555362D01*
X143919270Y-116713519D01*
X143971327Y-116885130D01*
X143988905Y-117063600D01*
X143971327Y-117242070D01*
X143919270Y-117413681D01*
X143834733Y-117571838D01*
X143720965Y-117710465D01*
X143582338Y-117824233D01*
X143424181Y-117908770D01*
X143252570Y-117960827D01*
X143118824Y-117974000D01*
X141513376Y-117974000D01*
X141379630Y-117960827D01*
X141208019Y-117908770D01*
X141049862Y-117824233D01*
X140911235Y-117710465D01*
X140797467Y-117571838D01*
X140712930Y-117413681D01*
X140660873Y-117242070D01*
X140643295Y-117063600D01*
X140660873Y-116885130D01*
X140712930Y-116713519D01*
X140797467Y-116555362D01*
X140911235Y-116416735D01*
X141049862Y-116302967D01*
X141208019Y-116218430D01*
X141379630Y-116166373D01*
X141513376Y-116153200D01*
X143118824Y-116153200D01*
X143252570Y-116166373D01*
X143252570Y-116166373D01*
G37*
G36*
X200402570Y-116166373D02*
G01*
X200574181Y-116218430D01*
X200732338Y-116302967D01*
X200870965Y-116416735D01*
X200984733Y-116555362D01*
X201069270Y-116713519D01*
X201121327Y-116885130D01*
X201138905Y-117063600D01*
X201121327Y-117242070D01*
X201069270Y-117413681D01*
X200984733Y-117571838D01*
X200870965Y-117710465D01*
X200732338Y-117824233D01*
X200574181Y-117908770D01*
X200402570Y-117960827D01*
X200268824Y-117974000D01*
X198663376Y-117974000D01*
X198529630Y-117960827D01*
X198358019Y-117908770D01*
X198199862Y-117824233D01*
X198061235Y-117710465D01*
X197947467Y-117571838D01*
X197862930Y-117413681D01*
X197810873Y-117242070D01*
X197793295Y-117063600D01*
X197810873Y-116885130D01*
X197862930Y-116713519D01*
X197947467Y-116555362D01*
X198061235Y-116416735D01*
X198199862Y-116302967D01*
X198358019Y-116218430D01*
X198529630Y-116166373D01*
X198663376Y-116153200D01*
X200268824Y-116153200D01*
X200402570Y-116166373D01*
X200402570Y-116166373D01*
G37*
G36*
X147062570Y-116166373D02*
G01*
X147234181Y-116218430D01*
X147392338Y-116302967D01*
X147530965Y-116416735D01*
X147644733Y-116555362D01*
X147729270Y-116713519D01*
X147781327Y-116885130D01*
X147798905Y-117063600D01*
X147781327Y-117242070D01*
X147729270Y-117413681D01*
X147644733Y-117571838D01*
X147530965Y-117710465D01*
X147392338Y-117824233D01*
X147234181Y-117908770D01*
X147062570Y-117960827D01*
X146928824Y-117974000D01*
X145323376Y-117974000D01*
X145189630Y-117960827D01*
X145018019Y-117908770D01*
X144859862Y-117824233D01*
X144721235Y-117710465D01*
X144607467Y-117571838D01*
X144522930Y-117413681D01*
X144470873Y-117242070D01*
X144453295Y-117063600D01*
X144470873Y-116885130D01*
X144522930Y-116713519D01*
X144607467Y-116555362D01*
X144721235Y-116416735D01*
X144859862Y-116302967D01*
X145018019Y-116218430D01*
X145189630Y-116166373D01*
X145323376Y-116153200D01*
X146928824Y-116153200D01*
X147062570Y-116166373D01*
X147062570Y-116166373D01*
G37*
G36*
X162302570Y-116166373D02*
G01*
X162474181Y-116218430D01*
X162632338Y-116302967D01*
X162770965Y-116416735D01*
X162884733Y-116555362D01*
X162969270Y-116713519D01*
X163021327Y-116885130D01*
X163038905Y-117063600D01*
X163021327Y-117242070D01*
X162969270Y-117413681D01*
X162884733Y-117571838D01*
X162770965Y-117710465D01*
X162632338Y-117824233D01*
X162474181Y-117908770D01*
X162302570Y-117960827D01*
X162168824Y-117974000D01*
X160563376Y-117974000D01*
X160429630Y-117960827D01*
X160258019Y-117908770D01*
X160099862Y-117824233D01*
X159961235Y-117710465D01*
X159847467Y-117571838D01*
X159762930Y-117413681D01*
X159710873Y-117242070D01*
X159693295Y-117063600D01*
X159710873Y-116885130D01*
X159762930Y-116713519D01*
X159847467Y-116555362D01*
X159961235Y-116416735D01*
X160099862Y-116302967D01*
X160258019Y-116218430D01*
X160429630Y-116166373D01*
X160563376Y-116153200D01*
X162168824Y-116153200D01*
X162302570Y-116166373D01*
X162302570Y-116166373D01*
G37*
G36*
X166112570Y-116166373D02*
G01*
X166284181Y-116218430D01*
X166442338Y-116302967D01*
X166580965Y-116416735D01*
X166694733Y-116555362D01*
X166779270Y-116713519D01*
X166831327Y-116885130D01*
X166848905Y-117063600D01*
X166831327Y-117242070D01*
X166779270Y-117413681D01*
X166694733Y-117571838D01*
X166580965Y-117710465D01*
X166442338Y-117824233D01*
X166284181Y-117908770D01*
X166112570Y-117960827D01*
X165978824Y-117974000D01*
X164373376Y-117974000D01*
X164239630Y-117960827D01*
X164068019Y-117908770D01*
X163909862Y-117824233D01*
X163771235Y-117710465D01*
X163657467Y-117571838D01*
X163572930Y-117413681D01*
X163520873Y-117242070D01*
X163503295Y-117063600D01*
X163520873Y-116885130D01*
X163572930Y-116713519D01*
X163657467Y-116555362D01*
X163771235Y-116416735D01*
X163909862Y-116302967D01*
X164068019Y-116218430D01*
X164239630Y-116166373D01*
X164373376Y-116153200D01*
X165978824Y-116153200D01*
X166112570Y-116166373D01*
X166112570Y-116166373D01*
G37*
G36*
X185162570Y-116166373D02*
G01*
X185334181Y-116218430D01*
X185492338Y-116302967D01*
X185630965Y-116416735D01*
X185744733Y-116555362D01*
X185829270Y-116713519D01*
X185881327Y-116885130D01*
X185898905Y-117063600D01*
X185881327Y-117242070D01*
X185829270Y-117413681D01*
X185744733Y-117571838D01*
X185630965Y-117710465D01*
X185492338Y-117824233D01*
X185334181Y-117908770D01*
X185162570Y-117960827D01*
X185028824Y-117974000D01*
X183423376Y-117974000D01*
X183289630Y-117960827D01*
X183118019Y-117908770D01*
X182959862Y-117824233D01*
X182821235Y-117710465D01*
X182707467Y-117571838D01*
X182622930Y-117413681D01*
X182570873Y-117242070D01*
X182553295Y-117063600D01*
X182570873Y-116885130D01*
X182622930Y-116713519D01*
X182707467Y-116555362D01*
X182821235Y-116416735D01*
X182959862Y-116302967D01*
X183118019Y-116218430D01*
X183289630Y-116166373D01*
X183423376Y-116153200D01*
X185028824Y-116153200D01*
X185162570Y-116166373D01*
X185162570Y-116166373D01*
G37*
G36*
X181352570Y-116166373D02*
G01*
X181524181Y-116218430D01*
X181682338Y-116302967D01*
X181820965Y-116416735D01*
X181934733Y-116555362D01*
X182019270Y-116713519D01*
X182071327Y-116885130D01*
X182088905Y-117063600D01*
X182071327Y-117242070D01*
X182019270Y-117413681D01*
X181934733Y-117571838D01*
X181820965Y-117710465D01*
X181682338Y-117824233D01*
X181524181Y-117908770D01*
X181352570Y-117960827D01*
X181218824Y-117974000D01*
X179613376Y-117974000D01*
X179479630Y-117960827D01*
X179308019Y-117908770D01*
X179149862Y-117824233D01*
X179011235Y-117710465D01*
X178897467Y-117571838D01*
X178812930Y-117413681D01*
X178760873Y-117242070D01*
X178743295Y-117063600D01*
X178760873Y-116885130D01*
X178812930Y-116713519D01*
X178897467Y-116555362D01*
X179011235Y-116416735D01*
X179149862Y-116302967D01*
X179308019Y-116218430D01*
X179479630Y-116166373D01*
X179613376Y-116153200D01*
X181218824Y-116153200D01*
X181352570Y-116166373D01*
X181352570Y-116166373D01*
G37*
G36*
X126742570Y-116166373D02*
G01*
X126914181Y-116218430D01*
X127072338Y-116302967D01*
X127210965Y-116416735D01*
X127324733Y-116555362D01*
X127409270Y-116713519D01*
X127461327Y-116885130D01*
X127478905Y-117063600D01*
X127461327Y-117242070D01*
X127409270Y-117413681D01*
X127324733Y-117571838D01*
X127210965Y-117710465D01*
X127072338Y-117824233D01*
X126914181Y-117908770D01*
X126742570Y-117960827D01*
X126608824Y-117974000D01*
X125003376Y-117974000D01*
X124869630Y-117960827D01*
X124698019Y-117908770D01*
X124539862Y-117824233D01*
X124401235Y-117710465D01*
X124287467Y-117571838D01*
X124202930Y-117413681D01*
X124150873Y-117242070D01*
X124133295Y-117063600D01*
X124150873Y-116885130D01*
X124202930Y-116713519D01*
X124287467Y-116555362D01*
X124401235Y-116416735D01*
X124539862Y-116302967D01*
X124698019Y-116218430D01*
X124869630Y-116166373D01*
X125003376Y-116153200D01*
X126608824Y-116153200D01*
X126742570Y-116166373D01*
X126742570Y-116166373D01*
G37*
G36*
X169126900Y-113412112D02*
G01*
X169312092Y-113448948D01*
X169515482Y-113533195D01*
X169698529Y-113655503D01*
X169854197Y-113811171D01*
X169976505Y-113994218D01*
X170060752Y-114197608D01*
X170103700Y-114413526D01*
X170103700Y-114633674D01*
X170060752Y-114849592D01*
X169976505Y-115052982D01*
X169854197Y-115236029D01*
X169698529Y-115391697D01*
X169515482Y-115514005D01*
X169312092Y-115598252D01*
X169126900Y-115635088D01*
X169096175Y-115641200D01*
X168876025Y-115641200D01*
X168845300Y-115635088D01*
X168660108Y-115598252D01*
X168456718Y-115514005D01*
X168273671Y-115391697D01*
X168118003Y-115236029D01*
X167995695Y-115052982D01*
X167911448Y-114849592D01*
X167868500Y-114633674D01*
X167868500Y-114413526D01*
X167911448Y-114197608D01*
X167995695Y-113994218D01*
X168118003Y-113811171D01*
X168273671Y-113655503D01*
X168456718Y-113533195D01*
X168660108Y-113448948D01*
X168845300Y-113412112D01*
X168876025Y-113406000D01*
X169096175Y-113406000D01*
X169126900Y-113412112D01*
X169126900Y-113412112D01*
G37*
G36*
X195796900Y-113412112D02*
G01*
X195982092Y-113448948D01*
X196185482Y-113533195D01*
X196368529Y-113655503D01*
X196524197Y-113811171D01*
X196646505Y-113994218D01*
X196730752Y-114197608D01*
X196773700Y-114413526D01*
X196773700Y-114633674D01*
X196730752Y-114849592D01*
X196646505Y-115052982D01*
X196524197Y-115236029D01*
X196368529Y-115391697D01*
X196185482Y-115514005D01*
X195982092Y-115598252D01*
X195796900Y-115635088D01*
X195766175Y-115641200D01*
X195546025Y-115641200D01*
X195515300Y-115635088D01*
X195330108Y-115598252D01*
X195126718Y-115514005D01*
X194943671Y-115391697D01*
X194788003Y-115236029D01*
X194665695Y-115052982D01*
X194581448Y-114849592D01*
X194538500Y-114633674D01*
X194538500Y-114413526D01*
X194581448Y-114197608D01*
X194665695Y-113994218D01*
X194788003Y-113811171D01*
X194943671Y-113655503D01*
X195126718Y-113533195D01*
X195330108Y-113448948D01*
X195515300Y-113412112D01*
X195546025Y-113406000D01*
X195766175Y-113406000D01*
X195796900Y-113412112D01*
X195796900Y-113412112D01*
G37*
G36*
X157696900Y-113412112D02*
G01*
X157882092Y-113448948D01*
X158085482Y-113533195D01*
X158268529Y-113655503D01*
X158424197Y-113811171D01*
X158546505Y-113994218D01*
X158630752Y-114197608D01*
X158673700Y-114413526D01*
X158673700Y-114633674D01*
X158630752Y-114849592D01*
X158546505Y-115052982D01*
X158424197Y-115236029D01*
X158268529Y-115391697D01*
X158085482Y-115514005D01*
X157882092Y-115598252D01*
X157696900Y-115635088D01*
X157666175Y-115641200D01*
X157446025Y-115641200D01*
X157415300Y-115635088D01*
X157230108Y-115598252D01*
X157026718Y-115514005D01*
X156843671Y-115391697D01*
X156688003Y-115236029D01*
X156565695Y-115052982D01*
X156481448Y-114849592D01*
X156438500Y-114633674D01*
X156438500Y-114413526D01*
X156481448Y-114197608D01*
X156565695Y-113994218D01*
X156688003Y-113811171D01*
X156843671Y-113655503D01*
X157026718Y-113533195D01*
X157230108Y-113448948D01*
X157415300Y-113412112D01*
X157446025Y-113406000D01*
X157666175Y-113406000D01*
X157696900Y-113412112D01*
X157696900Y-113412112D01*
G37*
G36*
X150076900Y-113412112D02*
G01*
X150262092Y-113448948D01*
X150465482Y-113533195D01*
X150648529Y-113655503D01*
X150804197Y-113811171D01*
X150926505Y-113994218D01*
X151010752Y-114197608D01*
X151053700Y-114413526D01*
X151053700Y-114633674D01*
X151010752Y-114849592D01*
X150926505Y-115052982D01*
X150804197Y-115236029D01*
X150648529Y-115391697D01*
X150465482Y-115514005D01*
X150262092Y-115598252D01*
X150076900Y-115635088D01*
X150046175Y-115641200D01*
X149826025Y-115641200D01*
X149795300Y-115635088D01*
X149610108Y-115598252D01*
X149406718Y-115514005D01*
X149223671Y-115391697D01*
X149068003Y-115236029D01*
X148945695Y-115052982D01*
X148861448Y-114849592D01*
X148818500Y-114633674D01*
X148818500Y-114413526D01*
X148861448Y-114197608D01*
X148945695Y-113994218D01*
X149068003Y-113811171D01*
X149223671Y-113655503D01*
X149406718Y-113533195D01*
X149610108Y-113448948D01*
X149795300Y-113412112D01*
X149826025Y-113406000D01*
X150046175Y-113406000D01*
X150076900Y-113412112D01*
X150076900Y-113412112D01*
G37*
G36*
X138646900Y-113412112D02*
G01*
X138832092Y-113448948D01*
X139035482Y-113533195D01*
X139218529Y-113655503D01*
X139374197Y-113811171D01*
X139496505Y-113994218D01*
X139580752Y-114197608D01*
X139623700Y-114413526D01*
X139623700Y-114633674D01*
X139580752Y-114849592D01*
X139496505Y-115052982D01*
X139374197Y-115236029D01*
X139218529Y-115391697D01*
X139035482Y-115514005D01*
X138832092Y-115598252D01*
X138646900Y-115635088D01*
X138616175Y-115641200D01*
X138396025Y-115641200D01*
X138365300Y-115635088D01*
X138180108Y-115598252D01*
X137976718Y-115514005D01*
X137793671Y-115391697D01*
X137638003Y-115236029D01*
X137515695Y-115052982D01*
X137431448Y-114849592D01*
X137388500Y-114633674D01*
X137388500Y-114413526D01*
X137431448Y-114197608D01*
X137515695Y-113994218D01*
X137638003Y-113811171D01*
X137793671Y-113655503D01*
X137976718Y-113533195D01*
X138180108Y-113448948D01*
X138365300Y-113412112D01*
X138396025Y-113406000D01*
X138616175Y-113406000D01*
X138646900Y-113412112D01*
X138646900Y-113412112D01*
G37*
G36*
X176746900Y-113412112D02*
G01*
X176932092Y-113448948D01*
X177135482Y-113533195D01*
X177318529Y-113655503D01*
X177474197Y-113811171D01*
X177596505Y-113994218D01*
X177680752Y-114197608D01*
X177723700Y-114413526D01*
X177723700Y-114633674D01*
X177680752Y-114849592D01*
X177596505Y-115052982D01*
X177474197Y-115236029D01*
X177318529Y-115391697D01*
X177135482Y-115514005D01*
X176932092Y-115598252D01*
X176746900Y-115635088D01*
X176716175Y-115641200D01*
X176496025Y-115641200D01*
X176465300Y-115635088D01*
X176280108Y-115598252D01*
X176076718Y-115514005D01*
X175893671Y-115391697D01*
X175738003Y-115236029D01*
X175615695Y-115052982D01*
X175531448Y-114849592D01*
X175488500Y-114633674D01*
X175488500Y-114413526D01*
X175531448Y-114197608D01*
X175615695Y-113994218D01*
X175738003Y-113811171D01*
X175893671Y-113655503D01*
X176076718Y-113533195D01*
X176280108Y-113448948D01*
X176465300Y-113412112D01*
X176496025Y-113406000D01*
X176716175Y-113406000D01*
X176746900Y-113412112D01*
X176746900Y-113412112D01*
G37*
G36*
X188176900Y-113412112D02*
G01*
X188362092Y-113448948D01*
X188565482Y-113533195D01*
X188748529Y-113655503D01*
X188904197Y-113811171D01*
X189026505Y-113994218D01*
X189110752Y-114197608D01*
X189153700Y-114413526D01*
X189153700Y-114633674D01*
X189110752Y-114849592D01*
X189026505Y-115052982D01*
X188904197Y-115236029D01*
X188748529Y-115391697D01*
X188565482Y-115514005D01*
X188362092Y-115598252D01*
X188176900Y-115635088D01*
X188146175Y-115641200D01*
X187926025Y-115641200D01*
X187895300Y-115635088D01*
X187710108Y-115598252D01*
X187506718Y-115514005D01*
X187323671Y-115391697D01*
X187168003Y-115236029D01*
X187045695Y-115052982D01*
X186961448Y-114849592D01*
X186918500Y-114633674D01*
X186918500Y-114413526D01*
X186961448Y-114197608D01*
X187045695Y-113994218D01*
X187168003Y-113811171D01*
X187323671Y-113655503D01*
X187506718Y-113533195D01*
X187710108Y-113448948D01*
X187895300Y-113412112D01*
X187926025Y-113406000D01*
X188146175Y-113406000D01*
X188176900Y-113412112D01*
X188176900Y-113412112D01*
G37*
G36*
X131026900Y-113412112D02*
G01*
X131212092Y-113448948D01*
X131415482Y-113533195D01*
X131598529Y-113655503D01*
X131754197Y-113811171D01*
X131876505Y-113994218D01*
X131960752Y-114197608D01*
X132003700Y-114413526D01*
X132003700Y-114633674D01*
X131960752Y-114849592D01*
X131876505Y-115052982D01*
X131754197Y-115236029D01*
X131598529Y-115391697D01*
X131415482Y-115514005D01*
X131212092Y-115598252D01*
X131026900Y-115635088D01*
X130996175Y-115641200D01*
X130776025Y-115641200D01*
X130745300Y-115635088D01*
X130560108Y-115598252D01*
X130356718Y-115514005D01*
X130173671Y-115391697D01*
X130018003Y-115236029D01*
X129895695Y-115052982D01*
X129811448Y-114849592D01*
X129768500Y-114633674D01*
X129768500Y-114413526D01*
X129811448Y-114197608D01*
X129895695Y-113994218D01*
X130018003Y-113811171D01*
X130173671Y-113655503D01*
X130356718Y-113533195D01*
X130560108Y-113448948D01*
X130745300Y-113412112D01*
X130776025Y-113406000D01*
X130996175Y-113406000D01*
X131026900Y-113412112D01*
X131026900Y-113412112D01*
G37*
G36*
X200402570Y-113626373D02*
G01*
X200574181Y-113678430D01*
X200732338Y-113762967D01*
X200870965Y-113876735D01*
X200984733Y-114015362D01*
X201069270Y-114173519D01*
X201121327Y-114345130D01*
X201138905Y-114523600D01*
X201121327Y-114702070D01*
X201069270Y-114873681D01*
X200984733Y-115031838D01*
X200870965Y-115170465D01*
X200732338Y-115284233D01*
X200574181Y-115368770D01*
X200402570Y-115420827D01*
X200268824Y-115434000D01*
X198663376Y-115434000D01*
X198529630Y-115420827D01*
X198358019Y-115368770D01*
X198199862Y-115284233D01*
X198061235Y-115170465D01*
X197947467Y-115031838D01*
X197862930Y-114873681D01*
X197810873Y-114702070D01*
X197793295Y-114523600D01*
X197810873Y-114345130D01*
X197862930Y-114173519D01*
X197947467Y-114015362D01*
X198061235Y-113876735D01*
X198199862Y-113762967D01*
X198358019Y-113678430D01*
X198529630Y-113626373D01*
X198663376Y-113613200D01*
X200268824Y-113613200D01*
X200402570Y-113626373D01*
X200402570Y-113626373D01*
G37*
G36*
X185162570Y-113626373D02*
G01*
X185334181Y-113678430D01*
X185492338Y-113762967D01*
X185630965Y-113876735D01*
X185744733Y-114015362D01*
X185829270Y-114173519D01*
X185881327Y-114345130D01*
X185898905Y-114523600D01*
X185881327Y-114702070D01*
X185829270Y-114873681D01*
X185744733Y-115031838D01*
X185630965Y-115170465D01*
X185492338Y-115284233D01*
X185334181Y-115368770D01*
X185162570Y-115420827D01*
X185028824Y-115434000D01*
X183423376Y-115434000D01*
X183289630Y-115420827D01*
X183118019Y-115368770D01*
X182959862Y-115284233D01*
X182821235Y-115170465D01*
X182707467Y-115031838D01*
X182622930Y-114873681D01*
X182570873Y-114702070D01*
X182553295Y-114523600D01*
X182570873Y-114345130D01*
X182622930Y-114173519D01*
X182707467Y-114015362D01*
X182821235Y-113876735D01*
X182959862Y-113762967D01*
X183118019Y-113678430D01*
X183289630Y-113626373D01*
X183423376Y-113613200D01*
X185028824Y-113613200D01*
X185162570Y-113626373D01*
X185162570Y-113626373D01*
G37*
G36*
X181352570Y-113626373D02*
G01*
X181524181Y-113678430D01*
X181682338Y-113762967D01*
X181820965Y-113876735D01*
X181934733Y-114015362D01*
X182019270Y-114173519D01*
X182071327Y-114345130D01*
X182088905Y-114523600D01*
X182071327Y-114702070D01*
X182019270Y-114873681D01*
X181934733Y-115031838D01*
X181820965Y-115170465D01*
X181682338Y-115284233D01*
X181524181Y-115368770D01*
X181352570Y-115420827D01*
X181218824Y-115434000D01*
X179613376Y-115434000D01*
X179479630Y-115420827D01*
X179308019Y-115368770D01*
X179149862Y-115284233D01*
X179011235Y-115170465D01*
X178897467Y-115031838D01*
X178812930Y-114873681D01*
X178760873Y-114702070D01*
X178743295Y-114523600D01*
X178760873Y-114345130D01*
X178812930Y-114173519D01*
X178897467Y-114015362D01*
X179011235Y-113876735D01*
X179149862Y-113762967D01*
X179308019Y-113678430D01*
X179479630Y-113626373D01*
X179613376Y-113613200D01*
X181218824Y-113613200D01*
X181352570Y-113626373D01*
X181352570Y-113626373D01*
G37*
G36*
X166112570Y-113626373D02*
G01*
X166284181Y-113678430D01*
X166442338Y-113762967D01*
X166580965Y-113876735D01*
X166694733Y-114015362D01*
X166779270Y-114173519D01*
X166831327Y-114345130D01*
X166848905Y-114523600D01*
X166831327Y-114702070D01*
X166779270Y-114873681D01*
X166694733Y-115031838D01*
X166580965Y-115170465D01*
X166442338Y-115284233D01*
X166284181Y-115368770D01*
X166112570Y-115420827D01*
X165978824Y-115434000D01*
X164373376Y-115434000D01*
X164239630Y-115420827D01*
X164068019Y-115368770D01*
X163909862Y-115284233D01*
X163771235Y-115170465D01*
X163657467Y-115031838D01*
X163572930Y-114873681D01*
X163520873Y-114702070D01*
X163503295Y-114523600D01*
X163520873Y-114345130D01*
X163572930Y-114173519D01*
X163657467Y-114015362D01*
X163771235Y-113876735D01*
X163909862Y-113762967D01*
X164068019Y-113678430D01*
X164239630Y-113626373D01*
X164373376Y-113613200D01*
X165978824Y-113613200D01*
X166112570Y-113626373D01*
X166112570Y-113626373D01*
G37*
G36*
X162302570Y-113626373D02*
G01*
X162474181Y-113678430D01*
X162632338Y-113762967D01*
X162770965Y-113876735D01*
X162884733Y-114015362D01*
X162969270Y-114173519D01*
X163021327Y-114345130D01*
X163038905Y-114523600D01*
X163021327Y-114702070D01*
X162969270Y-114873681D01*
X162884733Y-115031838D01*
X162770965Y-115170465D01*
X162632338Y-115284233D01*
X162474181Y-115368770D01*
X162302570Y-115420827D01*
X162168824Y-115434000D01*
X160563376Y-115434000D01*
X160429630Y-115420827D01*
X160258019Y-115368770D01*
X160099862Y-115284233D01*
X159961235Y-115170465D01*
X159847467Y-115031838D01*
X159762930Y-114873681D01*
X159710873Y-114702070D01*
X159693295Y-114523600D01*
X159710873Y-114345130D01*
X159762930Y-114173519D01*
X159847467Y-114015362D01*
X159961235Y-113876735D01*
X160099862Y-113762967D01*
X160258019Y-113678430D01*
X160429630Y-113626373D01*
X160563376Y-113613200D01*
X162168824Y-113613200D01*
X162302570Y-113626373D01*
X162302570Y-113626373D01*
G37*
G36*
X147062570Y-113626373D02*
G01*
X147234181Y-113678430D01*
X147392338Y-113762967D01*
X147530965Y-113876735D01*
X147644733Y-114015362D01*
X147729270Y-114173519D01*
X147781327Y-114345130D01*
X147798905Y-114523600D01*
X147781327Y-114702070D01*
X147729270Y-114873681D01*
X147644733Y-115031838D01*
X147530965Y-115170465D01*
X147392338Y-115284233D01*
X147234181Y-115368770D01*
X147062570Y-115420827D01*
X146928824Y-115434000D01*
X145323376Y-115434000D01*
X145189630Y-115420827D01*
X145018019Y-115368770D01*
X144859862Y-115284233D01*
X144721235Y-115170465D01*
X144607467Y-115031838D01*
X144522930Y-114873681D01*
X144470873Y-114702070D01*
X144453295Y-114523600D01*
X144470873Y-114345130D01*
X144522930Y-114173519D01*
X144607467Y-114015362D01*
X144721235Y-113876735D01*
X144859862Y-113762967D01*
X145018019Y-113678430D01*
X145189630Y-113626373D01*
X145323376Y-113613200D01*
X146928824Y-113613200D01*
X147062570Y-113626373D01*
X147062570Y-113626373D01*
G37*
G36*
X143252570Y-113626373D02*
G01*
X143424181Y-113678430D01*
X143582338Y-113762967D01*
X143720965Y-113876735D01*
X143834733Y-114015362D01*
X143919270Y-114173519D01*
X143971327Y-114345130D01*
X143988905Y-114523600D01*
X143971327Y-114702070D01*
X143919270Y-114873681D01*
X143834733Y-115031838D01*
X143720965Y-115170465D01*
X143582338Y-115284233D01*
X143424181Y-115368770D01*
X143252570Y-115420827D01*
X143118824Y-115434000D01*
X141513376Y-115434000D01*
X141379630Y-115420827D01*
X141208019Y-115368770D01*
X141049862Y-115284233D01*
X140911235Y-115170465D01*
X140797467Y-115031838D01*
X140712930Y-114873681D01*
X140660873Y-114702070D01*
X140643295Y-114523600D01*
X140660873Y-114345130D01*
X140712930Y-114173519D01*
X140797467Y-114015362D01*
X140911235Y-113876735D01*
X141049862Y-113762967D01*
X141208019Y-113678430D01*
X141379630Y-113626373D01*
X141513376Y-113613200D01*
X143118824Y-113613200D01*
X143252570Y-113626373D01*
X143252570Y-113626373D01*
G37*
G36*
X126742570Y-113626373D02*
G01*
X126914181Y-113678430D01*
X127072338Y-113762967D01*
X127210965Y-113876735D01*
X127324733Y-114015362D01*
X127409270Y-114173519D01*
X127461327Y-114345130D01*
X127478905Y-114523600D01*
X127461327Y-114702070D01*
X127409270Y-114873681D01*
X127324733Y-115031838D01*
X127210965Y-115170465D01*
X127072338Y-115284233D01*
X126914181Y-115368770D01*
X126742570Y-115420827D01*
X126608824Y-115434000D01*
X125003376Y-115434000D01*
X124869630Y-115420827D01*
X124698019Y-115368770D01*
X124539862Y-115284233D01*
X124401235Y-115170465D01*
X124287467Y-115031838D01*
X124202930Y-114873681D01*
X124150873Y-114702070D01*
X124133295Y-114523600D01*
X124150873Y-114345130D01*
X124202930Y-114173519D01*
X124287467Y-114015362D01*
X124401235Y-113876735D01*
X124539862Y-113762967D01*
X124698019Y-113678430D01*
X124869630Y-113626373D01*
X125003376Y-113613200D01*
X126608824Y-113613200D01*
X126742570Y-113626373D01*
X126742570Y-113626373D01*
G37*
G36*
X122304044Y-111333345D02*
G01*
X122408529Y-111343636D01*
X122609622Y-111404637D01*
X122794950Y-111503697D01*
X122957391Y-111637009D01*
X123090703Y-111799450D01*
X123189763Y-111984778D01*
X123250764Y-112185871D01*
X123271361Y-112395000D01*
X123250764Y-112604129D01*
X123189763Y-112805222D01*
X123090703Y-112990550D01*
X122957391Y-113152991D01*
X122794950Y-113286303D01*
X122609622Y-113385363D01*
X122408529Y-113446364D01*
X122304044Y-113456655D01*
X122251803Y-113461800D01*
X120318197Y-113461800D01*
X120265956Y-113456655D01*
X120161471Y-113446364D01*
X119960378Y-113385363D01*
X119775050Y-113286303D01*
X119612609Y-113152991D01*
X119479297Y-112990550D01*
X119380237Y-112805222D01*
X119319236Y-112604129D01*
X119298639Y-112395000D01*
X119319236Y-112185871D01*
X119380237Y-111984778D01*
X119479297Y-111799450D01*
X119612609Y-111637009D01*
X119775050Y-111503697D01*
X119960378Y-111404637D01*
X120161471Y-111343636D01*
X120265956Y-111333345D01*
X120318197Y-111328200D01*
X122251803Y-111328200D01*
X122304044Y-111333345D01*
X122304044Y-111333345D01*
G37*
G36*
X99444044Y-111333345D02*
G01*
X99548529Y-111343636D01*
X99749622Y-111404637D01*
X99934950Y-111503697D01*
X100097391Y-111637009D01*
X100230703Y-111799450D01*
X100329763Y-111984778D01*
X100390764Y-112185871D01*
X100411361Y-112395000D01*
X100390764Y-112604129D01*
X100329763Y-112805222D01*
X100230703Y-112990550D01*
X100097391Y-113152991D01*
X99934950Y-113286303D01*
X99749622Y-113385363D01*
X99548529Y-113446364D01*
X99444044Y-113456655D01*
X99391803Y-113461800D01*
X97458197Y-113461800D01*
X97405956Y-113456655D01*
X97301471Y-113446364D01*
X97100378Y-113385363D01*
X96915050Y-113286303D01*
X96752609Y-113152991D01*
X96619297Y-112990550D01*
X96520237Y-112805222D01*
X96459236Y-112604129D01*
X96438639Y-112395000D01*
X96459236Y-112185871D01*
X96520237Y-111984778D01*
X96619297Y-111799450D01*
X96752609Y-111637009D01*
X96915050Y-111503697D01*
X97100378Y-111404637D01*
X97301471Y-111343636D01*
X97405956Y-111333345D01*
X97458197Y-111328200D01*
X99391803Y-111328200D01*
X99444044Y-111333345D01*
X99444044Y-111333345D01*
G37*
G36*
X150076900Y-110872112D02*
G01*
X150262092Y-110908948D01*
X150465482Y-110993195D01*
X150648529Y-111115503D01*
X150804197Y-111271171D01*
X150926505Y-111454218D01*
X151010752Y-111657608D01*
X151053700Y-111873526D01*
X151053700Y-112093674D01*
X151010752Y-112309592D01*
X150926505Y-112512982D01*
X150804197Y-112696029D01*
X150648529Y-112851697D01*
X150465482Y-112974005D01*
X150262092Y-113058252D01*
X150076900Y-113095088D01*
X150046175Y-113101200D01*
X149826025Y-113101200D01*
X149795300Y-113095088D01*
X149610108Y-113058252D01*
X149406718Y-112974005D01*
X149223671Y-112851697D01*
X149068003Y-112696029D01*
X148945695Y-112512982D01*
X148861448Y-112309592D01*
X148818500Y-112093674D01*
X148818500Y-111873526D01*
X148861448Y-111657608D01*
X148945695Y-111454218D01*
X149068003Y-111271171D01*
X149223671Y-111115503D01*
X149406718Y-110993195D01*
X149610108Y-110908948D01*
X149795300Y-110872112D01*
X149826025Y-110866000D01*
X150046175Y-110866000D01*
X150076900Y-110872112D01*
X150076900Y-110872112D01*
G37*
G36*
X188176900Y-110872112D02*
G01*
X188362092Y-110908948D01*
X188565482Y-110993195D01*
X188748529Y-111115503D01*
X188904197Y-111271171D01*
X189026505Y-111454218D01*
X189110752Y-111657608D01*
X189153700Y-111873526D01*
X189153700Y-112093674D01*
X189110752Y-112309592D01*
X189026505Y-112512982D01*
X188904197Y-112696029D01*
X188748529Y-112851697D01*
X188565482Y-112974005D01*
X188362092Y-113058252D01*
X188176900Y-113095088D01*
X188146175Y-113101200D01*
X187926025Y-113101200D01*
X187895300Y-113095088D01*
X187710108Y-113058252D01*
X187506718Y-112974005D01*
X187323671Y-112851697D01*
X187168003Y-112696029D01*
X187045695Y-112512982D01*
X186961448Y-112309592D01*
X186918500Y-112093674D01*
X186918500Y-111873526D01*
X186961448Y-111657608D01*
X187045695Y-111454218D01*
X187168003Y-111271171D01*
X187323671Y-111115503D01*
X187506718Y-110993195D01*
X187710108Y-110908948D01*
X187895300Y-110872112D01*
X187926025Y-110866000D01*
X188146175Y-110866000D01*
X188176900Y-110872112D01*
X188176900Y-110872112D01*
G37*
G36*
X131026900Y-110872112D02*
G01*
X131212092Y-110908948D01*
X131415482Y-110993195D01*
X131598529Y-111115503D01*
X131754197Y-111271171D01*
X131876505Y-111454218D01*
X131960752Y-111657608D01*
X132003700Y-111873526D01*
X132003700Y-112093674D01*
X131960752Y-112309592D01*
X131876505Y-112512982D01*
X131754197Y-112696029D01*
X131598529Y-112851697D01*
X131415482Y-112974005D01*
X131212092Y-113058252D01*
X131026900Y-113095088D01*
X130996175Y-113101200D01*
X130776025Y-113101200D01*
X130745300Y-113095088D01*
X130560108Y-113058252D01*
X130356718Y-112974005D01*
X130173671Y-112851697D01*
X130018003Y-112696029D01*
X129895695Y-112512982D01*
X129811448Y-112309592D01*
X129768500Y-112093674D01*
X129768500Y-111873526D01*
X129811448Y-111657608D01*
X129895695Y-111454218D01*
X130018003Y-111271171D01*
X130173671Y-111115503D01*
X130356718Y-110993195D01*
X130560108Y-110908948D01*
X130745300Y-110872112D01*
X130776025Y-110866000D01*
X130996175Y-110866000D01*
X131026900Y-110872112D01*
X131026900Y-110872112D01*
G37*
G36*
X169126900Y-110872112D02*
G01*
X169312092Y-110908948D01*
X169515482Y-110993195D01*
X169698529Y-111115503D01*
X169854197Y-111271171D01*
X169976505Y-111454218D01*
X170060752Y-111657608D01*
X170103700Y-111873526D01*
X170103700Y-112093674D01*
X170060752Y-112309592D01*
X169976505Y-112512982D01*
X169854197Y-112696029D01*
X169698529Y-112851697D01*
X169515482Y-112974005D01*
X169312092Y-113058252D01*
X169126900Y-113095088D01*
X169096175Y-113101200D01*
X168876025Y-113101200D01*
X168845300Y-113095088D01*
X168660108Y-113058252D01*
X168456718Y-112974005D01*
X168273671Y-112851697D01*
X168118003Y-112696029D01*
X167995695Y-112512982D01*
X167911448Y-112309592D01*
X167868500Y-112093674D01*
X167868500Y-111873526D01*
X167911448Y-111657608D01*
X167995695Y-111454218D01*
X168118003Y-111271171D01*
X168273671Y-111115503D01*
X168456718Y-110993195D01*
X168660108Y-110908948D01*
X168845300Y-110872112D01*
X168876025Y-110866000D01*
X169096175Y-110866000D01*
X169126900Y-110872112D01*
X169126900Y-110872112D01*
G37*
G36*
X176746900Y-110872112D02*
G01*
X176932092Y-110908948D01*
X177135482Y-110993195D01*
X177318529Y-111115503D01*
X177474197Y-111271171D01*
X177596505Y-111454218D01*
X177680752Y-111657608D01*
X177723700Y-111873526D01*
X177723700Y-112093674D01*
X177680752Y-112309592D01*
X177596505Y-112512982D01*
X177474197Y-112696029D01*
X177318529Y-112851697D01*
X177135482Y-112974005D01*
X176932092Y-113058252D01*
X176746900Y-113095088D01*
X176716175Y-113101200D01*
X176496025Y-113101200D01*
X176465300Y-113095088D01*
X176280108Y-113058252D01*
X176076718Y-112974005D01*
X175893671Y-112851697D01*
X175738003Y-112696029D01*
X175615695Y-112512982D01*
X175531448Y-112309592D01*
X175488500Y-112093674D01*
X175488500Y-111873526D01*
X175531448Y-111657608D01*
X175615695Y-111454218D01*
X175738003Y-111271171D01*
X175893671Y-111115503D01*
X176076718Y-110993195D01*
X176280108Y-110908948D01*
X176465300Y-110872112D01*
X176496025Y-110866000D01*
X176716175Y-110866000D01*
X176746900Y-110872112D01*
X176746900Y-110872112D01*
G37*
G36*
X138646900Y-110872112D02*
G01*
X138832092Y-110908948D01*
X139035482Y-110993195D01*
X139218529Y-111115503D01*
X139374197Y-111271171D01*
X139496505Y-111454218D01*
X139580752Y-111657608D01*
X139623700Y-111873526D01*
X139623700Y-112093674D01*
X139580752Y-112309592D01*
X139496505Y-112512982D01*
X139374197Y-112696029D01*
X139218529Y-112851697D01*
X139035482Y-112974005D01*
X138832092Y-113058252D01*
X138646900Y-113095088D01*
X138616175Y-113101200D01*
X138396025Y-113101200D01*
X138365300Y-113095088D01*
X138180108Y-113058252D01*
X137976718Y-112974005D01*
X137793671Y-112851697D01*
X137638003Y-112696029D01*
X137515695Y-112512982D01*
X137431448Y-112309592D01*
X137388500Y-112093674D01*
X137388500Y-111873526D01*
X137431448Y-111657608D01*
X137515695Y-111454218D01*
X137638003Y-111271171D01*
X137793671Y-111115503D01*
X137976718Y-110993195D01*
X138180108Y-110908948D01*
X138365300Y-110872112D01*
X138396025Y-110866000D01*
X138616175Y-110866000D01*
X138646900Y-110872112D01*
X138646900Y-110872112D01*
G37*
G36*
X195796900Y-110872112D02*
G01*
X195982092Y-110908948D01*
X196185482Y-110993195D01*
X196368529Y-111115503D01*
X196524197Y-111271171D01*
X196646505Y-111454218D01*
X196730752Y-111657608D01*
X196773700Y-111873526D01*
X196773700Y-112093674D01*
X196730752Y-112309592D01*
X196646505Y-112512982D01*
X196524197Y-112696029D01*
X196368529Y-112851697D01*
X196185482Y-112974005D01*
X195982092Y-113058252D01*
X195796900Y-113095088D01*
X195766175Y-113101200D01*
X195546025Y-113101200D01*
X195515300Y-113095088D01*
X195330108Y-113058252D01*
X195126718Y-112974005D01*
X194943671Y-112851697D01*
X194788003Y-112696029D01*
X194665695Y-112512982D01*
X194581448Y-112309592D01*
X194538500Y-112093674D01*
X194538500Y-111873526D01*
X194581448Y-111657608D01*
X194665695Y-111454218D01*
X194788003Y-111271171D01*
X194943671Y-111115503D01*
X195126718Y-110993195D01*
X195330108Y-110908948D01*
X195515300Y-110872112D01*
X195546025Y-110866000D01*
X195766175Y-110866000D01*
X195796900Y-110872112D01*
X195796900Y-110872112D01*
G37*
G36*
X157696900Y-110872112D02*
G01*
X157882092Y-110908948D01*
X158085482Y-110993195D01*
X158268529Y-111115503D01*
X158424197Y-111271171D01*
X158546505Y-111454218D01*
X158630752Y-111657608D01*
X158673700Y-111873526D01*
X158673700Y-112093674D01*
X158630752Y-112309592D01*
X158546505Y-112512982D01*
X158424197Y-112696029D01*
X158268529Y-112851697D01*
X158085482Y-112974005D01*
X157882092Y-113058252D01*
X157696900Y-113095088D01*
X157666175Y-113101200D01*
X157446025Y-113101200D01*
X157415300Y-113095088D01*
X157230108Y-113058252D01*
X157026718Y-112974005D01*
X156843671Y-112851697D01*
X156688003Y-112696029D01*
X156565695Y-112512982D01*
X156481448Y-112309592D01*
X156438500Y-112093674D01*
X156438500Y-111873526D01*
X156481448Y-111657608D01*
X156565695Y-111454218D01*
X156688003Y-111271171D01*
X156843671Y-111115503D01*
X157026718Y-110993195D01*
X157230108Y-110908948D01*
X157415300Y-110872112D01*
X157446025Y-110866000D01*
X157666175Y-110866000D01*
X157696900Y-110872112D01*
X157696900Y-110872112D01*
G37*
G36*
X200402570Y-111086373D02*
G01*
X200574181Y-111138430D01*
X200732338Y-111222967D01*
X200870965Y-111336735D01*
X200984733Y-111475362D01*
X201069270Y-111633519D01*
X201121327Y-111805130D01*
X201138905Y-111983600D01*
X201121327Y-112162070D01*
X201069270Y-112333681D01*
X200984733Y-112491838D01*
X200870965Y-112630465D01*
X200732338Y-112744233D01*
X200574181Y-112828770D01*
X200402570Y-112880827D01*
X200268824Y-112894000D01*
X198663376Y-112894000D01*
X198529630Y-112880827D01*
X198358019Y-112828770D01*
X198199862Y-112744233D01*
X198061235Y-112630465D01*
X197947467Y-112491838D01*
X197862930Y-112333681D01*
X197810873Y-112162070D01*
X197793295Y-111983600D01*
X197810873Y-111805130D01*
X197862930Y-111633519D01*
X197947467Y-111475362D01*
X198061235Y-111336735D01*
X198199862Y-111222967D01*
X198358019Y-111138430D01*
X198529630Y-111086373D01*
X198663376Y-111073200D01*
X200268824Y-111073200D01*
X200402570Y-111086373D01*
X200402570Y-111086373D01*
G37*
G36*
X162302570Y-111086373D02*
G01*
X162474181Y-111138430D01*
X162632338Y-111222967D01*
X162770965Y-111336735D01*
X162884733Y-111475362D01*
X162969270Y-111633519D01*
X163021327Y-111805130D01*
X163038905Y-111983600D01*
X163021327Y-112162070D01*
X162969270Y-112333681D01*
X162884733Y-112491838D01*
X162770965Y-112630465D01*
X162632338Y-112744233D01*
X162474181Y-112828770D01*
X162302570Y-112880827D01*
X162168824Y-112894000D01*
X160563376Y-112894000D01*
X160429630Y-112880827D01*
X160258019Y-112828770D01*
X160099862Y-112744233D01*
X159961235Y-112630465D01*
X159847467Y-112491838D01*
X159762930Y-112333681D01*
X159710873Y-112162070D01*
X159693295Y-111983600D01*
X159710873Y-111805130D01*
X159762930Y-111633519D01*
X159847467Y-111475362D01*
X159961235Y-111336735D01*
X160099862Y-111222967D01*
X160258019Y-111138430D01*
X160429630Y-111086373D01*
X160563376Y-111073200D01*
X162168824Y-111073200D01*
X162302570Y-111086373D01*
X162302570Y-111086373D01*
G37*
G36*
X147062570Y-111086373D02*
G01*
X147234181Y-111138430D01*
X147392338Y-111222967D01*
X147530965Y-111336735D01*
X147644733Y-111475362D01*
X147729270Y-111633519D01*
X147781327Y-111805130D01*
X147798905Y-111983600D01*
X147781327Y-112162070D01*
X147729270Y-112333681D01*
X147644733Y-112491838D01*
X147530965Y-112630465D01*
X147392338Y-112744233D01*
X147234181Y-112828770D01*
X147062570Y-112880827D01*
X146928824Y-112894000D01*
X145323376Y-112894000D01*
X145189630Y-112880827D01*
X145018019Y-112828770D01*
X144859862Y-112744233D01*
X144721235Y-112630465D01*
X144607467Y-112491838D01*
X144522930Y-112333681D01*
X144470873Y-112162070D01*
X144453295Y-111983600D01*
X144470873Y-111805130D01*
X144522930Y-111633519D01*
X144607467Y-111475362D01*
X144721235Y-111336735D01*
X144859862Y-111222967D01*
X145018019Y-111138430D01*
X145189630Y-111086373D01*
X145323376Y-111073200D01*
X146928824Y-111073200D01*
X147062570Y-111086373D01*
X147062570Y-111086373D01*
G37*
G36*
X126742570Y-111086373D02*
G01*
X126914181Y-111138430D01*
X127072338Y-111222967D01*
X127210965Y-111336735D01*
X127324733Y-111475362D01*
X127409270Y-111633519D01*
X127461327Y-111805130D01*
X127478905Y-111983600D01*
X127461327Y-112162070D01*
X127409270Y-112333681D01*
X127324733Y-112491838D01*
X127210965Y-112630465D01*
X127072338Y-112744233D01*
X126914181Y-112828770D01*
X126742570Y-112880827D01*
X126608824Y-112894000D01*
X125003376Y-112894000D01*
X124869630Y-112880827D01*
X124698019Y-112828770D01*
X124539862Y-112744233D01*
X124401235Y-112630465D01*
X124287467Y-112491838D01*
X124202930Y-112333681D01*
X124150873Y-112162070D01*
X124133295Y-111983600D01*
X124150873Y-111805130D01*
X124202930Y-111633519D01*
X124287467Y-111475362D01*
X124401235Y-111336735D01*
X124539862Y-111222967D01*
X124698019Y-111138430D01*
X124869630Y-111086373D01*
X125003376Y-111073200D01*
X126608824Y-111073200D01*
X126742570Y-111086373D01*
X126742570Y-111086373D01*
G37*
G36*
X143252570Y-111086373D02*
G01*
X143424181Y-111138430D01*
X143582338Y-111222967D01*
X143720965Y-111336735D01*
X143834733Y-111475362D01*
X143919270Y-111633519D01*
X143971327Y-111805130D01*
X143988905Y-111983600D01*
X143971327Y-112162070D01*
X143919270Y-112333681D01*
X143834733Y-112491838D01*
X143720965Y-112630465D01*
X143582338Y-112744233D01*
X143424181Y-112828770D01*
X143252570Y-112880827D01*
X143118824Y-112894000D01*
X141513376Y-112894000D01*
X141379630Y-112880827D01*
X141208019Y-112828770D01*
X141049862Y-112744233D01*
X140911235Y-112630465D01*
X140797467Y-112491838D01*
X140712930Y-112333681D01*
X140660873Y-112162070D01*
X140643295Y-111983600D01*
X140660873Y-111805130D01*
X140712930Y-111633519D01*
X140797467Y-111475362D01*
X140911235Y-111336735D01*
X141049862Y-111222967D01*
X141208019Y-111138430D01*
X141379630Y-111086373D01*
X141513376Y-111073200D01*
X143118824Y-111073200D01*
X143252570Y-111086373D01*
X143252570Y-111086373D01*
G37*
G36*
X166112570Y-111086373D02*
G01*
X166284181Y-111138430D01*
X166442338Y-111222967D01*
X166580965Y-111336735D01*
X166694733Y-111475362D01*
X166779270Y-111633519D01*
X166831327Y-111805130D01*
X166848905Y-111983600D01*
X166831327Y-112162070D01*
X166779270Y-112333681D01*
X166694733Y-112491838D01*
X166580965Y-112630465D01*
X166442338Y-112744233D01*
X166284181Y-112828770D01*
X166112570Y-112880827D01*
X165978824Y-112894000D01*
X164373376Y-112894000D01*
X164239630Y-112880827D01*
X164068019Y-112828770D01*
X163909862Y-112744233D01*
X163771235Y-112630465D01*
X163657467Y-112491838D01*
X163572930Y-112333681D01*
X163520873Y-112162070D01*
X163503295Y-111983600D01*
X163520873Y-111805130D01*
X163572930Y-111633519D01*
X163657467Y-111475362D01*
X163771235Y-111336735D01*
X163909862Y-111222967D01*
X164068019Y-111138430D01*
X164239630Y-111086373D01*
X164373376Y-111073200D01*
X165978824Y-111073200D01*
X166112570Y-111086373D01*
X166112570Y-111086373D01*
G37*
G36*
X185162570Y-111086373D02*
G01*
X185334181Y-111138430D01*
X185492338Y-111222967D01*
X185630965Y-111336735D01*
X185744733Y-111475362D01*
X185829270Y-111633519D01*
X185881327Y-111805130D01*
X185898905Y-111983600D01*
X185881327Y-112162070D01*
X185829270Y-112333681D01*
X185744733Y-112491838D01*
X185630965Y-112630465D01*
X185492338Y-112744233D01*
X185334181Y-112828770D01*
X185162570Y-112880827D01*
X185028824Y-112894000D01*
X183423376Y-112894000D01*
X183289630Y-112880827D01*
X183118019Y-112828770D01*
X182959862Y-112744233D01*
X182821235Y-112630465D01*
X182707467Y-112491838D01*
X182622930Y-112333681D01*
X182570873Y-112162070D01*
X182553295Y-111983600D01*
X182570873Y-111805130D01*
X182622930Y-111633519D01*
X182707467Y-111475362D01*
X182821235Y-111336735D01*
X182959862Y-111222967D01*
X183118019Y-111138430D01*
X183289630Y-111086373D01*
X183423376Y-111073200D01*
X185028824Y-111073200D01*
X185162570Y-111086373D01*
X185162570Y-111086373D01*
G37*
G36*
X181352570Y-111086373D02*
G01*
X181524181Y-111138430D01*
X181682338Y-111222967D01*
X181820965Y-111336735D01*
X181934733Y-111475362D01*
X182019270Y-111633519D01*
X182071327Y-111805130D01*
X182088905Y-111983600D01*
X182071327Y-112162070D01*
X182019270Y-112333681D01*
X181934733Y-112491838D01*
X181820965Y-112630465D01*
X181682338Y-112744233D01*
X181524181Y-112828770D01*
X181352570Y-112880827D01*
X181218824Y-112894000D01*
X179613376Y-112894000D01*
X179479630Y-112880827D01*
X179308019Y-112828770D01*
X179149862Y-112744233D01*
X179011235Y-112630465D01*
X178897467Y-112491838D01*
X178812930Y-112333681D01*
X178760873Y-112162070D01*
X178743295Y-111983600D01*
X178760873Y-111805130D01*
X178812930Y-111633519D01*
X178897467Y-111475362D01*
X179011235Y-111336735D01*
X179149862Y-111222967D01*
X179308019Y-111138430D01*
X179479630Y-111086373D01*
X179613376Y-111073200D01*
X181218824Y-111073200D01*
X181352570Y-111086373D01*
X181352570Y-111086373D01*
G37*
G36*
X99444044Y-108793345D02*
G01*
X99548529Y-108803636D01*
X99749622Y-108864637D01*
X99934950Y-108963697D01*
X100097391Y-109097009D01*
X100230703Y-109259450D01*
X100329763Y-109444778D01*
X100390764Y-109645871D01*
X100411361Y-109855000D01*
X100390764Y-110064129D01*
X100329763Y-110265222D01*
X100230703Y-110450550D01*
X100097391Y-110612991D01*
X99934950Y-110746303D01*
X99749622Y-110845363D01*
X99548529Y-110906364D01*
X99444044Y-110916655D01*
X99391803Y-110921800D01*
X97458197Y-110921800D01*
X97405956Y-110916655D01*
X97301471Y-110906364D01*
X97100378Y-110845363D01*
X96915050Y-110746303D01*
X96752609Y-110612991D01*
X96619297Y-110450550D01*
X96520237Y-110265222D01*
X96459236Y-110064129D01*
X96438639Y-109855000D01*
X96459236Y-109645871D01*
X96520237Y-109444778D01*
X96619297Y-109259450D01*
X96752609Y-109097009D01*
X96915050Y-108963697D01*
X97100378Y-108864637D01*
X97301471Y-108803636D01*
X97405956Y-108793345D01*
X97458197Y-108788200D01*
X99391803Y-108788200D01*
X99444044Y-108793345D01*
X99444044Y-108793345D01*
G37*
G36*
X122304044Y-108793345D02*
G01*
X122408529Y-108803636D01*
X122609622Y-108864637D01*
X122794950Y-108963697D01*
X122957391Y-109097009D01*
X123090703Y-109259450D01*
X123189763Y-109444778D01*
X123250764Y-109645871D01*
X123271361Y-109855000D01*
X123250764Y-110064129D01*
X123189763Y-110265222D01*
X123090703Y-110450550D01*
X122957391Y-110612991D01*
X122794950Y-110746303D01*
X122609622Y-110845363D01*
X122408529Y-110906364D01*
X122304044Y-110916655D01*
X122251803Y-110921800D01*
X120318197Y-110921800D01*
X120265956Y-110916655D01*
X120161471Y-110906364D01*
X119960378Y-110845363D01*
X119775050Y-110746303D01*
X119612609Y-110612991D01*
X119479297Y-110450550D01*
X119380237Y-110265222D01*
X119319236Y-110064129D01*
X119298639Y-109855000D01*
X119319236Y-109645871D01*
X119380237Y-109444778D01*
X119479297Y-109259450D01*
X119612609Y-109097009D01*
X119775050Y-108963697D01*
X119960378Y-108864637D01*
X120161471Y-108803636D01*
X120265956Y-108793345D01*
X120318197Y-108788200D01*
X122251803Y-108788200D01*
X122304044Y-108793345D01*
X122304044Y-108793345D01*
G37*
G36*
X176746900Y-108332112D02*
G01*
X176932092Y-108368948D01*
X177135482Y-108453195D01*
X177318529Y-108575503D01*
X177474197Y-108731171D01*
X177596505Y-108914218D01*
X177680752Y-109117608D01*
X177723700Y-109333526D01*
X177723700Y-109553674D01*
X177680752Y-109769592D01*
X177596505Y-109972982D01*
X177474197Y-110156029D01*
X177318529Y-110311697D01*
X177135482Y-110434005D01*
X176932092Y-110518252D01*
X176746900Y-110555088D01*
X176716175Y-110561200D01*
X176496025Y-110561200D01*
X176465300Y-110555088D01*
X176280108Y-110518252D01*
X176076718Y-110434005D01*
X175893671Y-110311697D01*
X175738003Y-110156029D01*
X175615695Y-109972982D01*
X175531448Y-109769592D01*
X175488500Y-109553674D01*
X175488500Y-109333526D01*
X175531448Y-109117608D01*
X175615695Y-108914218D01*
X175738003Y-108731171D01*
X175893671Y-108575503D01*
X176076718Y-108453195D01*
X176280108Y-108368948D01*
X176465300Y-108332112D01*
X176496025Y-108326000D01*
X176716175Y-108326000D01*
X176746900Y-108332112D01*
X176746900Y-108332112D01*
G37*
G36*
X169126900Y-108332112D02*
G01*
X169312092Y-108368948D01*
X169515482Y-108453195D01*
X169698529Y-108575503D01*
X169854197Y-108731171D01*
X169976505Y-108914218D01*
X170060752Y-109117608D01*
X170103700Y-109333526D01*
X170103700Y-109553674D01*
X170060752Y-109769592D01*
X169976505Y-109972982D01*
X169854197Y-110156029D01*
X169698529Y-110311697D01*
X169515482Y-110434005D01*
X169312092Y-110518252D01*
X169126900Y-110555088D01*
X169096175Y-110561200D01*
X168876025Y-110561200D01*
X168845300Y-110555088D01*
X168660108Y-110518252D01*
X168456718Y-110434005D01*
X168273671Y-110311697D01*
X168118003Y-110156029D01*
X167995695Y-109972982D01*
X167911448Y-109769592D01*
X167868500Y-109553674D01*
X167868500Y-109333526D01*
X167911448Y-109117608D01*
X167995695Y-108914218D01*
X168118003Y-108731171D01*
X168273671Y-108575503D01*
X168456718Y-108453195D01*
X168660108Y-108368948D01*
X168845300Y-108332112D01*
X168876025Y-108326000D01*
X169096175Y-108326000D01*
X169126900Y-108332112D01*
X169126900Y-108332112D01*
G37*
G36*
X157696900Y-108332112D02*
G01*
X157882092Y-108368948D01*
X158085482Y-108453195D01*
X158268529Y-108575503D01*
X158424197Y-108731171D01*
X158546505Y-108914218D01*
X158630752Y-109117608D01*
X158673700Y-109333526D01*
X158673700Y-109553674D01*
X158630752Y-109769592D01*
X158546505Y-109972982D01*
X158424197Y-110156029D01*
X158268529Y-110311697D01*
X158085482Y-110434005D01*
X157882092Y-110518252D01*
X157696900Y-110555088D01*
X157666175Y-110561200D01*
X157446025Y-110561200D01*
X157415300Y-110555088D01*
X157230108Y-110518252D01*
X157026718Y-110434005D01*
X156843671Y-110311697D01*
X156688003Y-110156029D01*
X156565695Y-109972982D01*
X156481448Y-109769592D01*
X156438500Y-109553674D01*
X156438500Y-109333526D01*
X156481448Y-109117608D01*
X156565695Y-108914218D01*
X156688003Y-108731171D01*
X156843671Y-108575503D01*
X157026718Y-108453195D01*
X157230108Y-108368948D01*
X157415300Y-108332112D01*
X157446025Y-108326000D01*
X157666175Y-108326000D01*
X157696900Y-108332112D01*
X157696900Y-108332112D01*
G37*
G36*
X195796900Y-108332112D02*
G01*
X195982092Y-108368948D01*
X196185482Y-108453195D01*
X196368529Y-108575503D01*
X196524197Y-108731171D01*
X196646505Y-108914218D01*
X196730752Y-109117608D01*
X196773700Y-109333526D01*
X196773700Y-109553674D01*
X196730752Y-109769592D01*
X196646505Y-109972982D01*
X196524197Y-110156029D01*
X196368529Y-110311697D01*
X196185482Y-110434005D01*
X195982092Y-110518252D01*
X195796900Y-110555088D01*
X195766175Y-110561200D01*
X195546025Y-110561200D01*
X195515300Y-110555088D01*
X195330108Y-110518252D01*
X195126718Y-110434005D01*
X194943671Y-110311697D01*
X194788003Y-110156029D01*
X194665695Y-109972982D01*
X194581448Y-109769592D01*
X194538500Y-109553674D01*
X194538500Y-109333526D01*
X194581448Y-109117608D01*
X194665695Y-108914218D01*
X194788003Y-108731171D01*
X194943671Y-108575503D01*
X195126718Y-108453195D01*
X195330108Y-108368948D01*
X195515300Y-108332112D01*
X195546025Y-108326000D01*
X195766175Y-108326000D01*
X195796900Y-108332112D01*
X195796900Y-108332112D01*
G37*
G36*
X188176900Y-108332112D02*
G01*
X188362092Y-108368948D01*
X188565482Y-108453195D01*
X188748529Y-108575503D01*
X188904197Y-108731171D01*
X189026505Y-108914218D01*
X189110752Y-109117608D01*
X189153700Y-109333526D01*
X189153700Y-109553674D01*
X189110752Y-109769592D01*
X189026505Y-109972982D01*
X188904197Y-110156029D01*
X188748529Y-110311697D01*
X188565482Y-110434005D01*
X188362092Y-110518252D01*
X188176900Y-110555088D01*
X188146175Y-110561200D01*
X187926025Y-110561200D01*
X187895300Y-110555088D01*
X187710108Y-110518252D01*
X187506718Y-110434005D01*
X187323671Y-110311697D01*
X187168003Y-110156029D01*
X187045695Y-109972982D01*
X186961448Y-109769592D01*
X186918500Y-109553674D01*
X186918500Y-109333526D01*
X186961448Y-109117608D01*
X187045695Y-108914218D01*
X187168003Y-108731171D01*
X187323671Y-108575503D01*
X187506718Y-108453195D01*
X187710108Y-108368948D01*
X187895300Y-108332112D01*
X187926025Y-108326000D01*
X188146175Y-108326000D01*
X188176900Y-108332112D01*
X188176900Y-108332112D01*
G37*
G36*
X150076900Y-108332112D02*
G01*
X150262092Y-108368948D01*
X150465482Y-108453195D01*
X150648529Y-108575503D01*
X150804197Y-108731171D01*
X150926505Y-108914218D01*
X151010752Y-109117608D01*
X151053700Y-109333526D01*
X151053700Y-109553674D01*
X151010752Y-109769592D01*
X150926505Y-109972982D01*
X150804197Y-110156029D01*
X150648529Y-110311697D01*
X150465482Y-110434005D01*
X150262092Y-110518252D01*
X150076900Y-110555088D01*
X150046175Y-110561200D01*
X149826025Y-110561200D01*
X149795300Y-110555088D01*
X149610108Y-110518252D01*
X149406718Y-110434005D01*
X149223671Y-110311697D01*
X149068003Y-110156029D01*
X148945695Y-109972982D01*
X148861448Y-109769592D01*
X148818500Y-109553674D01*
X148818500Y-109333526D01*
X148861448Y-109117608D01*
X148945695Y-108914218D01*
X149068003Y-108731171D01*
X149223671Y-108575503D01*
X149406718Y-108453195D01*
X149610108Y-108368948D01*
X149795300Y-108332112D01*
X149826025Y-108326000D01*
X150046175Y-108326000D01*
X150076900Y-108332112D01*
X150076900Y-108332112D01*
G37*
G36*
X138646900Y-108332112D02*
G01*
X138832092Y-108368948D01*
X139035482Y-108453195D01*
X139218529Y-108575503D01*
X139374197Y-108731171D01*
X139496505Y-108914218D01*
X139580752Y-109117608D01*
X139623700Y-109333526D01*
X139623700Y-109553674D01*
X139580752Y-109769592D01*
X139496505Y-109972982D01*
X139374197Y-110156029D01*
X139218529Y-110311697D01*
X139035482Y-110434005D01*
X138832092Y-110518252D01*
X138646900Y-110555088D01*
X138616175Y-110561200D01*
X138396025Y-110561200D01*
X138365300Y-110555088D01*
X138180108Y-110518252D01*
X137976718Y-110434005D01*
X137793671Y-110311697D01*
X137638003Y-110156029D01*
X137515695Y-109972982D01*
X137431448Y-109769592D01*
X137388500Y-109553674D01*
X137388500Y-109333526D01*
X137431448Y-109117608D01*
X137515695Y-108914218D01*
X137638003Y-108731171D01*
X137793671Y-108575503D01*
X137976718Y-108453195D01*
X138180108Y-108368948D01*
X138365300Y-108332112D01*
X138396025Y-108326000D01*
X138616175Y-108326000D01*
X138646900Y-108332112D01*
X138646900Y-108332112D01*
G37*
G36*
X131026900Y-108332112D02*
G01*
X131212092Y-108368948D01*
X131415482Y-108453195D01*
X131598529Y-108575503D01*
X131754197Y-108731171D01*
X131876505Y-108914218D01*
X131960752Y-109117608D01*
X132003700Y-109333526D01*
X132003700Y-109553674D01*
X131960752Y-109769592D01*
X131876505Y-109972982D01*
X131754197Y-110156029D01*
X131598529Y-110311697D01*
X131415482Y-110434005D01*
X131212092Y-110518252D01*
X131026900Y-110555088D01*
X130996175Y-110561200D01*
X130776025Y-110561200D01*
X130745300Y-110555088D01*
X130560108Y-110518252D01*
X130356718Y-110434005D01*
X130173671Y-110311697D01*
X130018003Y-110156029D01*
X129895695Y-109972982D01*
X129811448Y-109769592D01*
X129768500Y-109553674D01*
X129768500Y-109333526D01*
X129811448Y-109117608D01*
X129895695Y-108914218D01*
X130018003Y-108731171D01*
X130173671Y-108575503D01*
X130356718Y-108453195D01*
X130560108Y-108368948D01*
X130745300Y-108332112D01*
X130776025Y-108326000D01*
X130996175Y-108326000D01*
X131026900Y-108332112D01*
X131026900Y-108332112D01*
G37*
G36*
X122304044Y-106253345D02*
G01*
X122408529Y-106263636D01*
X122609622Y-106324637D01*
X122794950Y-106423697D01*
X122957391Y-106557009D01*
X123090703Y-106719450D01*
X123189763Y-106904778D01*
X123250764Y-107105871D01*
X123271361Y-107315000D01*
X123250764Y-107524129D01*
X123189763Y-107725222D01*
X123090703Y-107910550D01*
X122957391Y-108072991D01*
X122794950Y-108206303D01*
X122609622Y-108305363D01*
X122408529Y-108366364D01*
X122304044Y-108376655D01*
X122251803Y-108381800D01*
X120318197Y-108381800D01*
X120265956Y-108376655D01*
X120161471Y-108366364D01*
X119960378Y-108305363D01*
X119775050Y-108206303D01*
X119612609Y-108072991D01*
X119479297Y-107910550D01*
X119380237Y-107725222D01*
X119319236Y-107524129D01*
X119298639Y-107315000D01*
X119319236Y-107105871D01*
X119380237Y-106904778D01*
X119479297Y-106719450D01*
X119612609Y-106557009D01*
X119775050Y-106423697D01*
X119960378Y-106324637D01*
X120161471Y-106263636D01*
X120265956Y-106253345D01*
X120318197Y-106248200D01*
X122251803Y-106248200D01*
X122304044Y-106253345D01*
X122304044Y-106253345D01*
G37*
G36*
X99444044Y-106253345D02*
G01*
X99548529Y-106263636D01*
X99749622Y-106324637D01*
X99934950Y-106423697D01*
X100097391Y-106557009D01*
X100230703Y-106719450D01*
X100329763Y-106904778D01*
X100390764Y-107105871D01*
X100411361Y-107315000D01*
X100390764Y-107524129D01*
X100329763Y-107725222D01*
X100230703Y-107910550D01*
X100097391Y-108072991D01*
X99934950Y-108206303D01*
X99749622Y-108305363D01*
X99548529Y-108366364D01*
X99444044Y-108376655D01*
X99391803Y-108381800D01*
X97458197Y-108381800D01*
X97405956Y-108376655D01*
X97301471Y-108366364D01*
X97100378Y-108305363D01*
X96915050Y-108206303D01*
X96752609Y-108072991D01*
X96619297Y-107910550D01*
X96520237Y-107725222D01*
X96459236Y-107524129D01*
X96438639Y-107315000D01*
X96459236Y-107105871D01*
X96520237Y-106904778D01*
X96619297Y-106719450D01*
X96752609Y-106557009D01*
X96915050Y-106423697D01*
X97100378Y-106324637D01*
X97301471Y-106263636D01*
X97405956Y-106253345D01*
X97458197Y-106248200D01*
X99391803Y-106248200D01*
X99444044Y-106253345D01*
X99444044Y-106253345D01*
G37*
G36*
X138646900Y-105792112D02*
G01*
X138832092Y-105828948D01*
X139035482Y-105913195D01*
X139218529Y-106035503D01*
X139374197Y-106191171D01*
X139496505Y-106374218D01*
X139580752Y-106577608D01*
X139623700Y-106793526D01*
X139623700Y-107013674D01*
X139580752Y-107229592D01*
X139496505Y-107432982D01*
X139374197Y-107616029D01*
X139218529Y-107771697D01*
X139035482Y-107894005D01*
X138832092Y-107978252D01*
X138646900Y-108015088D01*
X138616175Y-108021200D01*
X138396025Y-108021200D01*
X138365300Y-108015088D01*
X138180108Y-107978252D01*
X137976718Y-107894005D01*
X137793671Y-107771697D01*
X137638003Y-107616029D01*
X137515695Y-107432982D01*
X137431448Y-107229592D01*
X137388500Y-107013674D01*
X137388500Y-106793526D01*
X137431448Y-106577608D01*
X137515695Y-106374218D01*
X137638003Y-106191171D01*
X137793671Y-106035503D01*
X137976718Y-105913195D01*
X138180108Y-105828948D01*
X138365300Y-105792112D01*
X138396025Y-105786000D01*
X138616175Y-105786000D01*
X138646900Y-105792112D01*
X138646900Y-105792112D01*
G37*
G36*
X131026900Y-105792112D02*
G01*
X131212092Y-105828948D01*
X131415482Y-105913195D01*
X131598529Y-106035503D01*
X131754197Y-106191171D01*
X131876505Y-106374218D01*
X131960752Y-106577608D01*
X132003700Y-106793526D01*
X132003700Y-107013674D01*
X131960752Y-107229592D01*
X131876505Y-107432982D01*
X131754197Y-107616029D01*
X131598529Y-107771697D01*
X131415482Y-107894005D01*
X131212092Y-107978252D01*
X131026900Y-108015088D01*
X130996175Y-108021200D01*
X130776025Y-108021200D01*
X130745300Y-108015088D01*
X130560108Y-107978252D01*
X130356718Y-107894005D01*
X130173671Y-107771697D01*
X130018003Y-107616029D01*
X129895695Y-107432982D01*
X129811448Y-107229592D01*
X129768500Y-107013674D01*
X129768500Y-106793526D01*
X129811448Y-106577608D01*
X129895695Y-106374218D01*
X130018003Y-106191171D01*
X130173671Y-106035503D01*
X130356718Y-105913195D01*
X130560108Y-105828948D01*
X130745300Y-105792112D01*
X130776025Y-105786000D01*
X130996175Y-105786000D01*
X131026900Y-105792112D01*
X131026900Y-105792112D01*
G37*
G36*
X157696900Y-105792112D02*
G01*
X157882092Y-105828948D01*
X158085482Y-105913195D01*
X158268529Y-106035503D01*
X158424197Y-106191171D01*
X158546505Y-106374218D01*
X158630752Y-106577608D01*
X158673700Y-106793526D01*
X158673700Y-107013674D01*
X158630752Y-107229592D01*
X158546505Y-107432982D01*
X158424197Y-107616029D01*
X158268529Y-107771697D01*
X158085482Y-107894005D01*
X157882092Y-107978252D01*
X157696900Y-108015088D01*
X157666175Y-108021200D01*
X157446025Y-108021200D01*
X157415300Y-108015088D01*
X157230108Y-107978252D01*
X157026718Y-107894005D01*
X156843671Y-107771697D01*
X156688003Y-107616029D01*
X156565695Y-107432982D01*
X156481448Y-107229592D01*
X156438500Y-107013674D01*
X156438500Y-106793526D01*
X156481448Y-106577608D01*
X156565695Y-106374218D01*
X156688003Y-106191171D01*
X156843671Y-106035503D01*
X157026718Y-105913195D01*
X157230108Y-105828948D01*
X157415300Y-105792112D01*
X157446025Y-105786000D01*
X157666175Y-105786000D01*
X157696900Y-105792112D01*
X157696900Y-105792112D01*
G37*
G36*
X195796900Y-105792112D02*
G01*
X195982092Y-105828948D01*
X196185482Y-105913195D01*
X196368529Y-106035503D01*
X196524197Y-106191171D01*
X196646505Y-106374218D01*
X196730752Y-106577608D01*
X196773700Y-106793526D01*
X196773700Y-107013674D01*
X196730752Y-107229592D01*
X196646505Y-107432982D01*
X196524197Y-107616029D01*
X196368529Y-107771697D01*
X196185482Y-107894005D01*
X195982092Y-107978252D01*
X195796900Y-108015088D01*
X195766175Y-108021200D01*
X195546025Y-108021200D01*
X195515300Y-108015088D01*
X195330108Y-107978252D01*
X195126718Y-107894005D01*
X194943671Y-107771697D01*
X194788003Y-107616029D01*
X194665695Y-107432982D01*
X194581448Y-107229592D01*
X194538500Y-107013674D01*
X194538500Y-106793526D01*
X194581448Y-106577608D01*
X194665695Y-106374218D01*
X194788003Y-106191171D01*
X194943671Y-106035503D01*
X195126718Y-105913195D01*
X195330108Y-105828948D01*
X195515300Y-105792112D01*
X195546025Y-105786000D01*
X195766175Y-105786000D01*
X195796900Y-105792112D01*
X195796900Y-105792112D01*
G37*
G36*
X188176900Y-105792112D02*
G01*
X188362092Y-105828948D01*
X188565482Y-105913195D01*
X188748529Y-106035503D01*
X188904197Y-106191171D01*
X189026505Y-106374218D01*
X189110752Y-106577608D01*
X189153700Y-106793526D01*
X189153700Y-107013674D01*
X189110752Y-107229592D01*
X189026505Y-107432982D01*
X188904197Y-107616029D01*
X188748529Y-107771697D01*
X188565482Y-107894005D01*
X188362092Y-107978252D01*
X188176900Y-108015088D01*
X188146175Y-108021200D01*
X187926025Y-108021200D01*
X187895300Y-108015088D01*
X187710108Y-107978252D01*
X187506718Y-107894005D01*
X187323671Y-107771697D01*
X187168003Y-107616029D01*
X187045695Y-107432982D01*
X186961448Y-107229592D01*
X186918500Y-107013674D01*
X186918500Y-106793526D01*
X186961448Y-106577608D01*
X187045695Y-106374218D01*
X187168003Y-106191171D01*
X187323671Y-106035503D01*
X187506718Y-105913195D01*
X187710108Y-105828948D01*
X187895300Y-105792112D01*
X187926025Y-105786000D01*
X188146175Y-105786000D01*
X188176900Y-105792112D01*
X188176900Y-105792112D01*
G37*
G36*
X176746900Y-105792112D02*
G01*
X176932092Y-105828948D01*
X177135482Y-105913195D01*
X177318529Y-106035503D01*
X177474197Y-106191171D01*
X177596505Y-106374218D01*
X177680752Y-106577608D01*
X177723700Y-106793526D01*
X177723700Y-107013674D01*
X177680752Y-107229592D01*
X177596505Y-107432982D01*
X177474197Y-107616029D01*
X177318529Y-107771697D01*
X177135482Y-107894005D01*
X176932092Y-107978252D01*
X176746900Y-108015088D01*
X176716175Y-108021200D01*
X176496025Y-108021200D01*
X176465300Y-108015088D01*
X176280108Y-107978252D01*
X176076718Y-107894005D01*
X175893671Y-107771697D01*
X175738003Y-107616029D01*
X175615695Y-107432982D01*
X175531448Y-107229592D01*
X175488500Y-107013674D01*
X175488500Y-106793526D01*
X175531448Y-106577608D01*
X175615695Y-106374218D01*
X175738003Y-106191171D01*
X175893671Y-106035503D01*
X176076718Y-105913195D01*
X176280108Y-105828948D01*
X176465300Y-105792112D01*
X176496025Y-105786000D01*
X176716175Y-105786000D01*
X176746900Y-105792112D01*
X176746900Y-105792112D01*
G37*
G36*
X169126900Y-105792112D02*
G01*
X169312092Y-105828948D01*
X169515482Y-105913195D01*
X169698529Y-106035503D01*
X169854197Y-106191171D01*
X169976505Y-106374218D01*
X170060752Y-106577608D01*
X170103700Y-106793526D01*
X170103700Y-107013674D01*
X170060752Y-107229592D01*
X169976505Y-107432982D01*
X169854197Y-107616029D01*
X169698529Y-107771697D01*
X169515482Y-107894005D01*
X169312092Y-107978252D01*
X169126900Y-108015088D01*
X169096175Y-108021200D01*
X168876025Y-108021200D01*
X168845300Y-108015088D01*
X168660108Y-107978252D01*
X168456718Y-107894005D01*
X168273671Y-107771697D01*
X168118003Y-107616029D01*
X167995695Y-107432982D01*
X167911448Y-107229592D01*
X167868500Y-107013674D01*
X167868500Y-106793526D01*
X167911448Y-106577608D01*
X167995695Y-106374218D01*
X168118003Y-106191171D01*
X168273671Y-106035503D01*
X168456718Y-105913195D01*
X168660108Y-105828948D01*
X168845300Y-105792112D01*
X168876025Y-105786000D01*
X169096175Y-105786000D01*
X169126900Y-105792112D01*
X169126900Y-105792112D01*
G37*
G36*
X150076900Y-105792112D02*
G01*
X150262092Y-105828948D01*
X150465482Y-105913195D01*
X150648529Y-106035503D01*
X150804197Y-106191171D01*
X150926505Y-106374218D01*
X151010752Y-106577608D01*
X151053700Y-106793526D01*
X151053700Y-107013674D01*
X151010752Y-107229592D01*
X150926505Y-107432982D01*
X150804197Y-107616029D01*
X150648529Y-107771697D01*
X150465482Y-107894005D01*
X150262092Y-107978252D01*
X150076900Y-108015088D01*
X150046175Y-108021200D01*
X149826025Y-108021200D01*
X149795300Y-108015088D01*
X149610108Y-107978252D01*
X149406718Y-107894005D01*
X149223671Y-107771697D01*
X149068003Y-107616029D01*
X148945695Y-107432982D01*
X148861448Y-107229592D01*
X148818500Y-107013674D01*
X148818500Y-106793526D01*
X148861448Y-106577608D01*
X148945695Y-106374218D01*
X149068003Y-106191171D01*
X149223671Y-106035503D01*
X149406718Y-105913195D01*
X149610108Y-105828948D01*
X149795300Y-105792112D01*
X149826025Y-105786000D01*
X150046175Y-105786000D01*
X150076900Y-105792112D01*
X150076900Y-105792112D01*
G37*
G36*
X122304044Y-103713345D02*
G01*
X122408529Y-103723636D01*
X122609622Y-103784637D01*
X122794950Y-103883697D01*
X122957391Y-104017009D01*
X123090703Y-104179450D01*
X123189763Y-104364778D01*
X123250764Y-104565871D01*
X123271361Y-104775000D01*
X123250764Y-104984129D01*
X123189763Y-105185222D01*
X123090703Y-105370550D01*
X122957391Y-105532991D01*
X122794950Y-105666303D01*
X122609622Y-105765363D01*
X122408529Y-105826364D01*
X122304044Y-105836655D01*
X122251803Y-105841800D01*
X120318197Y-105841800D01*
X120265956Y-105836655D01*
X120161471Y-105826364D01*
X119960378Y-105765363D01*
X119775050Y-105666303D01*
X119612609Y-105532991D01*
X119479297Y-105370550D01*
X119380237Y-105185222D01*
X119319236Y-104984129D01*
X119298639Y-104775000D01*
X119319236Y-104565871D01*
X119380237Y-104364778D01*
X119479297Y-104179450D01*
X119612609Y-104017009D01*
X119775050Y-103883697D01*
X119960378Y-103784637D01*
X120161471Y-103723636D01*
X120265956Y-103713345D01*
X120318197Y-103708200D01*
X122251803Y-103708200D01*
X122304044Y-103713345D01*
X122304044Y-103713345D01*
G37*
G36*
X99444044Y-103713345D02*
G01*
X99548529Y-103723636D01*
X99749622Y-103784637D01*
X99934950Y-103883697D01*
X100097391Y-104017009D01*
X100230703Y-104179450D01*
X100329763Y-104364778D01*
X100390764Y-104565871D01*
X100411361Y-104775000D01*
X100390764Y-104984129D01*
X100329763Y-105185222D01*
X100230703Y-105370550D01*
X100097391Y-105532991D01*
X99934950Y-105666303D01*
X99749622Y-105765363D01*
X99548529Y-105826364D01*
X99444044Y-105836655D01*
X99391803Y-105841800D01*
X97458197Y-105841800D01*
X97405956Y-105836655D01*
X97301471Y-105826364D01*
X97100378Y-105765363D01*
X96915050Y-105666303D01*
X96752609Y-105532991D01*
X96619297Y-105370550D01*
X96520237Y-105185222D01*
X96459236Y-104984129D01*
X96438639Y-104775000D01*
X96459236Y-104565871D01*
X96520237Y-104364778D01*
X96619297Y-104179450D01*
X96752609Y-104017009D01*
X96915050Y-103883697D01*
X97100378Y-103784637D01*
X97301471Y-103723636D01*
X97405956Y-103713345D01*
X97458197Y-103708200D01*
X99391803Y-103708200D01*
X99444044Y-103713345D01*
X99444044Y-103713345D01*
G37*
G36*
X176746900Y-103252112D02*
G01*
X176932092Y-103288948D01*
X177135482Y-103373195D01*
X177318529Y-103495503D01*
X177474197Y-103651171D01*
X177596505Y-103834218D01*
X177680752Y-104037608D01*
X177723700Y-104253526D01*
X177723700Y-104473674D01*
X177680752Y-104689592D01*
X177596505Y-104892982D01*
X177474197Y-105076029D01*
X177318529Y-105231697D01*
X177135482Y-105354005D01*
X176932092Y-105438252D01*
X176746900Y-105475088D01*
X176716175Y-105481200D01*
X176496025Y-105481200D01*
X176465300Y-105475088D01*
X176280108Y-105438252D01*
X176076718Y-105354005D01*
X175893671Y-105231697D01*
X175738003Y-105076029D01*
X175615695Y-104892982D01*
X175531448Y-104689592D01*
X175488500Y-104473674D01*
X175488500Y-104253526D01*
X175531448Y-104037608D01*
X175615695Y-103834218D01*
X175738003Y-103651171D01*
X175893671Y-103495503D01*
X176076718Y-103373195D01*
X176280108Y-103288948D01*
X176465300Y-103252112D01*
X176496025Y-103246000D01*
X176716175Y-103246000D01*
X176746900Y-103252112D01*
X176746900Y-103252112D01*
G37*
G36*
X169126900Y-103252112D02*
G01*
X169312092Y-103288948D01*
X169515482Y-103373195D01*
X169698529Y-103495503D01*
X169854197Y-103651171D01*
X169976505Y-103834218D01*
X170060752Y-104037608D01*
X170103700Y-104253526D01*
X170103700Y-104473674D01*
X170060752Y-104689592D01*
X169976505Y-104892982D01*
X169854197Y-105076029D01*
X169698529Y-105231697D01*
X169515482Y-105354005D01*
X169312092Y-105438252D01*
X169126900Y-105475088D01*
X169096175Y-105481200D01*
X168876025Y-105481200D01*
X168845300Y-105475088D01*
X168660108Y-105438252D01*
X168456718Y-105354005D01*
X168273671Y-105231697D01*
X168118003Y-105076029D01*
X167995695Y-104892982D01*
X167911448Y-104689592D01*
X167868500Y-104473674D01*
X167868500Y-104253526D01*
X167911448Y-104037608D01*
X167995695Y-103834218D01*
X168118003Y-103651171D01*
X168273671Y-103495503D01*
X168456718Y-103373195D01*
X168660108Y-103288948D01*
X168845300Y-103252112D01*
X168876025Y-103246000D01*
X169096175Y-103246000D01*
X169126900Y-103252112D01*
X169126900Y-103252112D01*
G37*
G36*
X150076900Y-103252112D02*
G01*
X150262092Y-103288948D01*
X150465482Y-103373195D01*
X150648529Y-103495503D01*
X150804197Y-103651171D01*
X150926505Y-103834218D01*
X151010752Y-104037608D01*
X151053700Y-104253526D01*
X151053700Y-104473674D01*
X151010752Y-104689592D01*
X150926505Y-104892982D01*
X150804197Y-105076029D01*
X150648529Y-105231697D01*
X150465482Y-105354005D01*
X150262092Y-105438252D01*
X150076900Y-105475088D01*
X150046175Y-105481200D01*
X149826025Y-105481200D01*
X149795300Y-105475088D01*
X149610108Y-105438252D01*
X149406718Y-105354005D01*
X149223671Y-105231697D01*
X149068003Y-105076029D01*
X148945695Y-104892982D01*
X148861448Y-104689592D01*
X148818500Y-104473674D01*
X148818500Y-104253526D01*
X148861448Y-104037608D01*
X148945695Y-103834218D01*
X149068003Y-103651171D01*
X149223671Y-103495503D01*
X149406718Y-103373195D01*
X149610108Y-103288948D01*
X149795300Y-103252112D01*
X149826025Y-103246000D01*
X150046175Y-103246000D01*
X150076900Y-103252112D01*
X150076900Y-103252112D01*
G37*
G36*
X195796900Y-103252112D02*
G01*
X195982092Y-103288948D01*
X196185482Y-103373195D01*
X196368529Y-103495503D01*
X196524197Y-103651171D01*
X196646505Y-103834218D01*
X196730752Y-104037608D01*
X196773700Y-104253526D01*
X196773700Y-104473674D01*
X196730752Y-104689592D01*
X196646505Y-104892982D01*
X196524197Y-105076029D01*
X196368529Y-105231697D01*
X196185482Y-105354005D01*
X195982092Y-105438252D01*
X195796900Y-105475088D01*
X195766175Y-105481200D01*
X195546025Y-105481200D01*
X195515300Y-105475088D01*
X195330108Y-105438252D01*
X195126718Y-105354005D01*
X194943671Y-105231697D01*
X194788003Y-105076029D01*
X194665695Y-104892982D01*
X194581448Y-104689592D01*
X194538500Y-104473674D01*
X194538500Y-104253526D01*
X194581448Y-104037608D01*
X194665695Y-103834218D01*
X194788003Y-103651171D01*
X194943671Y-103495503D01*
X195126718Y-103373195D01*
X195330108Y-103288948D01*
X195515300Y-103252112D01*
X195546025Y-103246000D01*
X195766175Y-103246000D01*
X195796900Y-103252112D01*
X195796900Y-103252112D01*
G37*
G36*
X188176900Y-103252112D02*
G01*
X188362092Y-103288948D01*
X188565482Y-103373195D01*
X188748529Y-103495503D01*
X188904197Y-103651171D01*
X189026505Y-103834218D01*
X189110752Y-104037608D01*
X189153700Y-104253526D01*
X189153700Y-104473674D01*
X189110752Y-104689592D01*
X189026505Y-104892982D01*
X188904197Y-105076029D01*
X188748529Y-105231697D01*
X188565482Y-105354005D01*
X188362092Y-105438252D01*
X188176900Y-105475088D01*
X188146175Y-105481200D01*
X187926025Y-105481200D01*
X187895300Y-105475088D01*
X187710108Y-105438252D01*
X187506718Y-105354005D01*
X187323671Y-105231697D01*
X187168003Y-105076029D01*
X187045695Y-104892982D01*
X186961448Y-104689592D01*
X186918500Y-104473674D01*
X186918500Y-104253526D01*
X186961448Y-104037608D01*
X187045695Y-103834218D01*
X187168003Y-103651171D01*
X187323671Y-103495503D01*
X187506718Y-103373195D01*
X187710108Y-103288948D01*
X187895300Y-103252112D01*
X187926025Y-103246000D01*
X188146175Y-103246000D01*
X188176900Y-103252112D01*
X188176900Y-103252112D01*
G37*
G36*
X157696900Y-103252112D02*
G01*
X157882092Y-103288948D01*
X158085482Y-103373195D01*
X158268529Y-103495503D01*
X158424197Y-103651171D01*
X158546505Y-103834218D01*
X158630752Y-104037608D01*
X158673700Y-104253526D01*
X158673700Y-104473674D01*
X158630752Y-104689592D01*
X158546505Y-104892982D01*
X158424197Y-105076029D01*
X158268529Y-105231697D01*
X158085482Y-105354005D01*
X157882092Y-105438252D01*
X157696900Y-105475088D01*
X157666175Y-105481200D01*
X157446025Y-105481200D01*
X157415300Y-105475088D01*
X157230108Y-105438252D01*
X157026718Y-105354005D01*
X156843671Y-105231697D01*
X156688003Y-105076029D01*
X156565695Y-104892982D01*
X156481448Y-104689592D01*
X156438500Y-104473674D01*
X156438500Y-104253526D01*
X156481448Y-104037608D01*
X156565695Y-103834218D01*
X156688003Y-103651171D01*
X156843671Y-103495503D01*
X157026718Y-103373195D01*
X157230108Y-103288948D01*
X157415300Y-103252112D01*
X157446025Y-103246000D01*
X157666175Y-103246000D01*
X157696900Y-103252112D01*
X157696900Y-103252112D01*
G37*
G36*
X138646900Y-103252112D02*
G01*
X138832092Y-103288948D01*
X139035482Y-103373195D01*
X139218529Y-103495503D01*
X139374197Y-103651171D01*
X139496505Y-103834218D01*
X139580752Y-104037608D01*
X139623700Y-104253526D01*
X139623700Y-104473674D01*
X139580752Y-104689592D01*
X139496505Y-104892982D01*
X139374197Y-105076029D01*
X139218529Y-105231697D01*
X139035482Y-105354005D01*
X138832092Y-105438252D01*
X138646900Y-105475088D01*
X138616175Y-105481200D01*
X138396025Y-105481200D01*
X138365300Y-105475088D01*
X138180108Y-105438252D01*
X137976718Y-105354005D01*
X137793671Y-105231697D01*
X137638003Y-105076029D01*
X137515695Y-104892982D01*
X137431448Y-104689592D01*
X137388500Y-104473674D01*
X137388500Y-104253526D01*
X137431448Y-104037608D01*
X137515695Y-103834218D01*
X137638003Y-103651171D01*
X137793671Y-103495503D01*
X137976718Y-103373195D01*
X138180108Y-103288948D01*
X138365300Y-103252112D01*
X138396025Y-103246000D01*
X138616175Y-103246000D01*
X138646900Y-103252112D01*
X138646900Y-103252112D01*
G37*
G36*
X131026900Y-103252112D02*
G01*
X131212092Y-103288948D01*
X131415482Y-103373195D01*
X131598529Y-103495503D01*
X131754197Y-103651171D01*
X131876505Y-103834218D01*
X131960752Y-104037608D01*
X132003700Y-104253526D01*
X132003700Y-104473674D01*
X131960752Y-104689592D01*
X131876505Y-104892982D01*
X131754197Y-105076029D01*
X131598529Y-105231697D01*
X131415482Y-105354005D01*
X131212092Y-105438252D01*
X131026900Y-105475088D01*
X130996175Y-105481200D01*
X130776025Y-105481200D01*
X130745300Y-105475088D01*
X130560108Y-105438252D01*
X130356718Y-105354005D01*
X130173671Y-105231697D01*
X130018003Y-105076029D01*
X129895695Y-104892982D01*
X129811448Y-104689592D01*
X129768500Y-104473674D01*
X129768500Y-104253526D01*
X129811448Y-104037608D01*
X129895695Y-103834218D01*
X130018003Y-103651171D01*
X130173671Y-103495503D01*
X130356718Y-103373195D01*
X130560108Y-103288948D01*
X130745300Y-103252112D01*
X130776025Y-103246000D01*
X130996175Y-103246000D01*
X131026900Y-103252112D01*
X131026900Y-103252112D01*
G37*
G36*
X99444044Y-101173345D02*
G01*
X99548529Y-101183636D01*
X99749622Y-101244637D01*
X99934950Y-101343697D01*
X100097391Y-101477009D01*
X100230703Y-101639450D01*
X100329763Y-101824778D01*
X100390764Y-102025871D01*
X100411361Y-102235000D01*
X100390764Y-102444129D01*
X100329763Y-102645222D01*
X100230703Y-102830550D01*
X100097391Y-102992991D01*
X99934950Y-103126303D01*
X99749622Y-103225363D01*
X99548529Y-103286364D01*
X99444044Y-103296655D01*
X99391803Y-103301800D01*
X97458197Y-103301800D01*
X97405956Y-103296655D01*
X97301471Y-103286364D01*
X97100378Y-103225363D01*
X96915050Y-103126303D01*
X96752609Y-102992991D01*
X96619297Y-102830550D01*
X96520237Y-102645222D01*
X96459236Y-102444129D01*
X96438639Y-102235000D01*
X96459236Y-102025871D01*
X96520237Y-101824778D01*
X96619297Y-101639450D01*
X96752609Y-101477009D01*
X96915050Y-101343697D01*
X97100378Y-101244637D01*
X97301471Y-101183636D01*
X97405956Y-101173345D01*
X97458197Y-101168200D01*
X99391803Y-101168200D01*
X99444044Y-101173345D01*
X99444044Y-101173345D01*
G37*
G36*
X122304044Y-101173345D02*
G01*
X122408529Y-101183636D01*
X122609622Y-101244637D01*
X122794950Y-101343697D01*
X122957391Y-101477009D01*
X123090703Y-101639450D01*
X123189763Y-101824778D01*
X123250764Y-102025871D01*
X123271361Y-102235000D01*
X123250764Y-102444129D01*
X123189763Y-102645222D01*
X123090703Y-102830550D01*
X122957391Y-102992991D01*
X122794950Y-103126303D01*
X122609622Y-103225363D01*
X122408529Y-103286364D01*
X122304044Y-103296655D01*
X122251803Y-103301800D01*
X120318197Y-103301800D01*
X120265956Y-103296655D01*
X120161471Y-103286364D01*
X119960378Y-103225363D01*
X119775050Y-103126303D01*
X119612609Y-102992991D01*
X119479297Y-102830550D01*
X119380237Y-102645222D01*
X119319236Y-102444129D01*
X119298639Y-102235000D01*
X119319236Y-102025871D01*
X119380237Y-101824778D01*
X119479297Y-101639450D01*
X119612609Y-101477009D01*
X119775050Y-101343697D01*
X119960378Y-101244637D01*
X120161471Y-101183636D01*
X120265956Y-101173345D01*
X120318197Y-101168200D01*
X122251803Y-101168200D01*
X122304044Y-101173345D01*
X122304044Y-101173345D01*
G37*
G36*
X185120500Y-101702000D02*
G01*
X182315700Y-101702000D01*
X182315700Y-98897200D01*
X185120500Y-98897200D01*
X185120500Y-101702000D01*
X185120500Y-101702000D01*
G37*
G36*
X145496500Y-101702000D02*
G01*
X142691700Y-101702000D01*
X142691700Y-98897200D01*
X145496500Y-98897200D01*
X145496500Y-101702000D01*
X145496500Y-101702000D01*
G37*
G36*
X178627091Y-97750548D02*
G01*
X178836510Y-97792204D01*
X179118774Y-97909121D01*
X179372805Y-98078859D01*
X179588841Y-98294895D01*
X179758579Y-98548926D01*
X179875496Y-98831190D01*
X179935100Y-99130840D01*
X179935100Y-99436360D01*
X179875496Y-99736010D01*
X179758579Y-100018274D01*
X179588841Y-100272305D01*
X179372805Y-100488341D01*
X179118774Y-100658079D01*
X178836510Y-100774996D01*
X178686685Y-100804798D01*
X178536861Y-100834600D01*
X178231339Y-100834600D01*
X178081515Y-100804798D01*
X177931690Y-100774996D01*
X177649426Y-100658079D01*
X177395395Y-100488341D01*
X177179359Y-100272305D01*
X177009621Y-100018274D01*
X176892704Y-99736010D01*
X176833100Y-99436360D01*
X176833100Y-99130840D01*
X176892704Y-98831190D01*
X177009621Y-98548926D01*
X177179359Y-98294895D01*
X177395395Y-98078859D01*
X177649426Y-97909121D01*
X177931690Y-97792204D01*
X178141109Y-97750548D01*
X178231339Y-97732600D01*
X178536861Y-97732600D01*
X178627091Y-97750548D01*
X178627091Y-97750548D01*
G37*
G36*
X122304044Y-98633345D02*
G01*
X122408529Y-98643636D01*
X122609622Y-98704637D01*
X122794950Y-98803697D01*
X122957391Y-98937009D01*
X123090703Y-99099450D01*
X123189763Y-99284778D01*
X123250764Y-99485871D01*
X123271361Y-99695000D01*
X123250764Y-99904129D01*
X123189763Y-100105222D01*
X123090703Y-100290550D01*
X122957391Y-100452991D01*
X122794950Y-100586303D01*
X122609622Y-100685363D01*
X122408529Y-100746364D01*
X122304044Y-100756655D01*
X122251803Y-100761800D01*
X120318197Y-100761800D01*
X120265956Y-100756655D01*
X120161471Y-100746364D01*
X119960378Y-100685363D01*
X119775050Y-100586303D01*
X119612609Y-100452991D01*
X119479297Y-100290550D01*
X119380237Y-100105222D01*
X119319236Y-99904129D01*
X119298639Y-99695000D01*
X119319236Y-99485871D01*
X119380237Y-99284778D01*
X119479297Y-99099450D01*
X119612609Y-98937009D01*
X119775050Y-98803697D01*
X119960378Y-98704637D01*
X120161471Y-98643636D01*
X120265956Y-98633345D01*
X120318197Y-98628200D01*
X122251803Y-98628200D01*
X122304044Y-98633345D01*
X122304044Y-98633345D01*
G37*
G36*
X99444044Y-98633345D02*
G01*
X99548529Y-98643636D01*
X99749622Y-98704637D01*
X99934950Y-98803697D01*
X100097391Y-98937009D01*
X100230703Y-99099450D01*
X100329763Y-99284778D01*
X100390764Y-99485871D01*
X100411361Y-99695000D01*
X100390764Y-99904129D01*
X100329763Y-100105222D01*
X100230703Y-100290550D01*
X100097391Y-100452991D01*
X99934950Y-100586303D01*
X99749622Y-100685363D01*
X99548529Y-100746364D01*
X99444044Y-100756655D01*
X99391803Y-100761800D01*
X97458197Y-100761800D01*
X97405956Y-100756655D01*
X97301471Y-100746364D01*
X97100378Y-100685363D01*
X96915050Y-100586303D01*
X96752609Y-100452991D01*
X96619297Y-100290550D01*
X96520237Y-100105222D01*
X96459236Y-99904129D01*
X96438639Y-99695000D01*
X96459236Y-99485871D01*
X96520237Y-99284778D01*
X96619297Y-99099450D01*
X96752609Y-98937009D01*
X96915050Y-98803697D01*
X97100378Y-98704637D01*
X97301471Y-98643636D01*
X97405956Y-98633345D01*
X97458197Y-98628200D01*
X99391803Y-98628200D01*
X99444044Y-98633345D01*
X99444044Y-98633345D01*
G37*
G36*
X137058500Y-99796000D02*
G01*
X135203700Y-99796000D01*
X135203700Y-98191200D01*
X137058500Y-98191200D01*
X137058500Y-99796000D01*
X137058500Y-99796000D01*
G37*
G36*
X129108500Y-99796000D02*
G01*
X127253700Y-99796000D01*
X127253700Y-98191200D01*
X129108500Y-98191200D01*
X129108500Y-99796000D01*
X129108500Y-99796000D01*
G37*
G36*
X186944569Y-96358373D02*
G01*
X187116180Y-96410430D01*
X187274337Y-96494967D01*
X187412965Y-96608735D01*
X187526733Y-96747362D01*
X187611270Y-96905519D01*
X187663327Y-97077130D01*
X187676500Y-97210876D01*
X187676500Y-98816324D01*
X187663327Y-98950070D01*
X187611270Y-99121681D01*
X187526733Y-99279838D01*
X187412965Y-99418465D01*
X187274338Y-99532233D01*
X187116181Y-99616770D01*
X186944570Y-99668827D01*
X186766100Y-99686405D01*
X186587631Y-99668827D01*
X186416020Y-99616770D01*
X186257863Y-99532233D01*
X186119236Y-99418465D01*
X186005468Y-99279838D01*
X185920931Y-99121681D01*
X185868874Y-98950070D01*
X185855701Y-98816324D01*
X185855700Y-97210877D01*
X185868873Y-97077131D01*
X185920930Y-96905520D01*
X186005467Y-96747363D01*
X186119235Y-96608735D01*
X186257862Y-96494967D01*
X186416019Y-96410430D01*
X186587630Y-96358373D01*
X186766100Y-96340795D01*
X186944569Y-96358373D01*
X186944569Y-96358373D01*
G37*
G36*
X197104569Y-96358373D02*
G01*
X197276180Y-96410430D01*
X197434337Y-96494967D01*
X197572965Y-96608735D01*
X197686733Y-96747362D01*
X197771270Y-96905519D01*
X197823327Y-97077130D01*
X197836500Y-97210876D01*
X197836500Y-98816324D01*
X197823327Y-98950070D01*
X197771270Y-99121681D01*
X197686733Y-99279838D01*
X197572965Y-99418465D01*
X197434338Y-99532233D01*
X197276181Y-99616770D01*
X197104570Y-99668827D01*
X196926100Y-99686405D01*
X196747631Y-99668827D01*
X196576020Y-99616770D01*
X196417863Y-99532233D01*
X196279236Y-99418465D01*
X196165468Y-99279838D01*
X196080931Y-99121681D01*
X196028874Y-98950070D01*
X196015701Y-98816324D01*
X196015700Y-97210877D01*
X196028873Y-97077131D01*
X196080930Y-96905520D01*
X196165467Y-96747363D01*
X196279235Y-96608735D01*
X196417862Y-96494967D01*
X196576019Y-96410430D01*
X196747630Y-96358373D01*
X196926100Y-96340795D01*
X197104569Y-96358373D01*
X197104569Y-96358373D01*
G37*
G36*
X194564569Y-96358373D02*
G01*
X194736180Y-96410430D01*
X194894337Y-96494967D01*
X195032965Y-96608735D01*
X195146733Y-96747362D01*
X195231270Y-96905519D01*
X195283327Y-97077130D01*
X195296500Y-97210876D01*
X195296500Y-98816324D01*
X195283327Y-98950070D01*
X195231270Y-99121681D01*
X195146733Y-99279838D01*
X195032965Y-99418465D01*
X194894338Y-99532233D01*
X194736181Y-99616770D01*
X194564570Y-99668827D01*
X194386100Y-99686405D01*
X194207631Y-99668827D01*
X194036020Y-99616770D01*
X193877863Y-99532233D01*
X193739236Y-99418465D01*
X193625468Y-99279838D01*
X193540931Y-99121681D01*
X193488874Y-98950070D01*
X193475701Y-98816324D01*
X193475700Y-97210877D01*
X193488873Y-97077131D01*
X193540930Y-96905520D01*
X193625467Y-96747363D01*
X193739235Y-96608735D01*
X193877862Y-96494967D01*
X194036019Y-96410430D01*
X194207630Y-96358373D01*
X194386100Y-96340795D01*
X194564569Y-96358373D01*
X194564569Y-96358373D01*
G37*
G36*
X192024569Y-96358373D02*
G01*
X192196180Y-96410430D01*
X192354337Y-96494967D01*
X192492965Y-96608735D01*
X192606733Y-96747362D01*
X192691270Y-96905519D01*
X192743327Y-97077130D01*
X192756500Y-97210876D01*
X192756500Y-98816324D01*
X192743327Y-98950070D01*
X192691270Y-99121681D01*
X192606733Y-99279838D01*
X192492965Y-99418465D01*
X192354338Y-99532233D01*
X192196181Y-99616770D01*
X192024570Y-99668827D01*
X191846100Y-99686405D01*
X191667631Y-99668827D01*
X191496020Y-99616770D01*
X191337863Y-99532233D01*
X191199236Y-99418465D01*
X191085468Y-99279838D01*
X191000931Y-99121681D01*
X190948874Y-98950070D01*
X190935701Y-98816324D01*
X190935700Y-97210877D01*
X190948873Y-97077131D01*
X191000930Y-96905520D01*
X191085467Y-96747363D01*
X191199235Y-96608735D01*
X191337862Y-96494967D01*
X191496019Y-96410430D01*
X191667630Y-96358373D01*
X191846100Y-96340795D01*
X192024569Y-96358373D01*
X192024569Y-96358373D01*
G37*
G36*
X189484569Y-96358373D02*
G01*
X189656180Y-96410430D01*
X189814337Y-96494967D01*
X189952965Y-96608735D01*
X190066733Y-96747362D01*
X190151270Y-96905519D01*
X190203327Y-97077130D01*
X190216500Y-97210876D01*
X190216500Y-98816324D01*
X190203327Y-98950070D01*
X190151270Y-99121681D01*
X190066733Y-99279838D01*
X189952965Y-99418465D01*
X189814338Y-99532233D01*
X189656181Y-99616770D01*
X189484570Y-99668827D01*
X189306100Y-99686405D01*
X189127631Y-99668827D01*
X188956020Y-99616770D01*
X188797863Y-99532233D01*
X188659236Y-99418465D01*
X188545468Y-99279838D01*
X188460931Y-99121681D01*
X188408874Y-98950070D01*
X188395701Y-98816324D01*
X188395700Y-97210877D01*
X188408873Y-97077131D01*
X188460930Y-96905520D01*
X188545467Y-96747363D01*
X188659235Y-96608735D01*
X188797862Y-96494967D01*
X188956019Y-96410430D01*
X189127630Y-96358373D01*
X189306100Y-96340795D01*
X189484569Y-96358373D01*
X189484569Y-96358373D01*
G37*
G36*
X99444044Y-96093345D02*
G01*
X99548529Y-96103636D01*
X99749622Y-96164637D01*
X99934950Y-96263697D01*
X100097391Y-96397009D01*
X100230703Y-96559450D01*
X100329763Y-96744778D01*
X100390764Y-96945871D01*
X100411361Y-97155000D01*
X100390764Y-97364129D01*
X100329763Y-97565222D01*
X100230703Y-97750550D01*
X100097391Y-97912991D01*
X99934950Y-98046303D01*
X99749622Y-98145363D01*
X99548529Y-98206364D01*
X99444044Y-98216655D01*
X99391803Y-98221800D01*
X97458197Y-98221800D01*
X97405956Y-98216655D01*
X97301471Y-98206364D01*
X97100378Y-98145363D01*
X96915050Y-98046303D01*
X96752609Y-97912991D01*
X96619297Y-97750550D01*
X96520237Y-97565222D01*
X96459236Y-97364129D01*
X96438639Y-97155000D01*
X96459236Y-96945871D01*
X96520237Y-96744778D01*
X96619297Y-96559450D01*
X96752609Y-96397009D01*
X96915050Y-96263697D01*
X97100378Y-96164637D01*
X97301471Y-96103636D01*
X97405956Y-96093345D01*
X97458197Y-96088200D01*
X99391803Y-96088200D01*
X99444044Y-96093345D01*
X99444044Y-96093345D01*
G37*
G36*
X122304044Y-96093345D02*
G01*
X122408529Y-96103636D01*
X122609622Y-96164637D01*
X122794950Y-96263697D01*
X122957391Y-96397009D01*
X123090703Y-96559450D01*
X123189763Y-96744778D01*
X123250764Y-96945871D01*
X123271361Y-97155000D01*
X123250764Y-97364129D01*
X123189763Y-97565222D01*
X123090703Y-97750550D01*
X122957391Y-97912991D01*
X122794950Y-98046303D01*
X122609622Y-98145363D01*
X122408529Y-98206364D01*
X122304044Y-98216655D01*
X122251803Y-98221800D01*
X120318197Y-98221800D01*
X120265956Y-98216655D01*
X120161471Y-98206364D01*
X119960378Y-98145363D01*
X119775050Y-98046303D01*
X119612609Y-97912991D01*
X119479297Y-97750550D01*
X119380237Y-97565222D01*
X119319236Y-97364129D01*
X119298639Y-97155000D01*
X119319236Y-96945871D01*
X119380237Y-96744778D01*
X119479297Y-96559450D01*
X119612609Y-96397009D01*
X119775050Y-96263697D01*
X119960378Y-96164637D01*
X120161471Y-96103636D01*
X120265956Y-96093345D01*
X120318197Y-96088200D01*
X122251803Y-96088200D01*
X122304044Y-96093345D01*
X122304044Y-96093345D01*
G37*
G36*
X99444044Y-93553345D02*
G01*
X99548529Y-93563636D01*
X99749622Y-93624637D01*
X99934950Y-93723697D01*
X100097391Y-93857009D01*
X100230703Y-94019450D01*
X100329763Y-94204778D01*
X100390764Y-94405871D01*
X100411361Y-94615000D01*
X100390764Y-94824129D01*
X100329763Y-95025222D01*
X100230703Y-95210550D01*
X100097391Y-95372991D01*
X99934950Y-95506303D01*
X99749622Y-95605363D01*
X99548529Y-95666364D01*
X99444044Y-95676655D01*
X99391803Y-95681800D01*
X97458197Y-95681800D01*
X97405956Y-95676655D01*
X97301471Y-95666364D01*
X97100378Y-95605363D01*
X96915050Y-95506303D01*
X96752609Y-95372991D01*
X96619297Y-95210550D01*
X96520237Y-95025222D01*
X96459236Y-94824129D01*
X96438639Y-94615000D01*
X96459236Y-94405871D01*
X96520237Y-94204778D01*
X96619297Y-94019450D01*
X96752609Y-93857009D01*
X96915050Y-93723697D01*
X97100378Y-93624637D01*
X97301471Y-93563636D01*
X97405956Y-93553345D01*
X97458197Y-93548200D01*
X99391803Y-93548200D01*
X99444044Y-93553345D01*
X99444044Y-93553345D01*
G37*
G36*
X122304044Y-93553345D02*
G01*
X122408529Y-93563636D01*
X122609622Y-93624637D01*
X122794950Y-93723697D01*
X122957391Y-93857009D01*
X123090703Y-94019450D01*
X123189763Y-94204778D01*
X123250764Y-94405871D01*
X123271361Y-94615000D01*
X123250764Y-94824129D01*
X123189763Y-95025222D01*
X123090703Y-95210550D01*
X122957391Y-95372991D01*
X122794950Y-95506303D01*
X122609622Y-95605363D01*
X122408529Y-95666364D01*
X122304044Y-95676655D01*
X122251803Y-95681800D01*
X120318197Y-95681800D01*
X120265956Y-95676655D01*
X120161471Y-95666364D01*
X119960378Y-95605363D01*
X119775050Y-95506303D01*
X119612609Y-95372991D01*
X119479297Y-95210550D01*
X119380237Y-95025222D01*
X119319236Y-94824129D01*
X119298639Y-94615000D01*
X119319236Y-94405871D01*
X119380237Y-94204778D01*
X119479297Y-94019450D01*
X119612609Y-93857009D01*
X119775050Y-93723697D01*
X119960378Y-93624637D01*
X120161471Y-93563636D01*
X120265956Y-93553345D01*
X120318197Y-93548200D01*
X122251803Y-93548200D01*
X122304044Y-93553345D01*
X122304044Y-93553345D01*
G37*
G36*
X129108500Y-95296000D02*
G01*
X127253700Y-95296000D01*
X127253700Y-93691200D01*
X129108500Y-93691200D01*
X129108500Y-95296000D01*
X129108500Y-95296000D01*
G37*
G36*
X137058500Y-95296000D02*
G01*
X135203700Y-95296000D01*
X135203700Y-93691200D01*
X137058500Y-93691200D01*
X137058500Y-95296000D01*
X137058500Y-95296000D01*
G37*
G36*
X190734051Y-85588436D02*
G01*
X190880078Y-85648922D01*
X191011499Y-85736735D01*
X191123265Y-85848501D01*
X191211078Y-85979922D01*
X191271564Y-86125949D01*
X191302400Y-86280971D01*
X191302400Y-86439029D01*
X191271564Y-86594051D01*
X191211078Y-86740078D01*
X191123265Y-86871499D01*
X191011499Y-86983265D01*
X190880078Y-87071078D01*
X190734051Y-87131564D01*
X190579029Y-87162400D01*
X190420971Y-87162400D01*
X190265949Y-87131564D01*
X190119922Y-87071078D01*
X189988501Y-86983265D01*
X189876735Y-86871499D01*
X189788922Y-86740078D01*
X189728436Y-86594051D01*
X189697600Y-86439029D01*
X189697600Y-86280971D01*
X189728436Y-86125949D01*
X189788922Y-85979922D01*
X189876735Y-85848501D01*
X189988501Y-85736735D01*
X190119922Y-85648922D01*
X190265949Y-85588436D01*
X190420971Y-85557600D01*
X190579029Y-85557600D01*
X190734051Y-85588436D01*
X190734051Y-85588436D01*
G37*
G36*
X148968685Y-82522402D02*
G01*
X149118510Y-82552204D01*
X149400774Y-82669121D01*
X149654805Y-82838859D01*
X149870841Y-83054895D01*
X150040579Y-83308926D01*
X150157496Y-83591190D01*
X150217100Y-83890840D01*
X150217100Y-84196360D01*
X150157496Y-84496010D01*
X150040579Y-84778274D01*
X149870841Y-85032305D01*
X149654805Y-85248341D01*
X149400774Y-85418079D01*
X149118510Y-85534996D01*
X149004872Y-85557600D01*
X148818861Y-85594600D01*
X148513339Y-85594600D01*
X148327328Y-85557600D01*
X148213690Y-85534996D01*
X147931426Y-85418079D01*
X147677395Y-85248341D01*
X147461359Y-85032305D01*
X147291621Y-84778274D01*
X147174704Y-84496010D01*
X147115100Y-84196360D01*
X147115100Y-83890840D01*
X147174704Y-83591190D01*
X147291621Y-83308926D01*
X147461359Y-83054895D01*
X147677395Y-82838859D01*
X147931426Y-82669121D01*
X148213690Y-82552204D01*
X148363515Y-82522402D01*
X148513339Y-82492600D01*
X148818861Y-82492600D01*
X148968685Y-82522402D01*
X148968685Y-82522402D01*
G37*
G36*
X198495256Y-82211298D02*
G01*
X198601579Y-82232447D01*
X198902042Y-82356903D01*
X199172451Y-82537585D01*
X199402415Y-82767549D01*
X199583097Y-83037958D01*
X199707553Y-83338421D01*
X199771000Y-83657391D01*
X199771000Y-83982609D01*
X199707553Y-84301579D01*
X199583097Y-84602042D01*
X199402415Y-84872451D01*
X199172451Y-85102415D01*
X198902042Y-85283097D01*
X198601579Y-85407553D01*
X198548661Y-85418079D01*
X198282611Y-85471000D01*
X197957389Y-85471000D01*
X197691339Y-85418079D01*
X197638421Y-85407553D01*
X197337958Y-85283097D01*
X197067549Y-85102415D01*
X196837585Y-84872451D01*
X196656903Y-84602042D01*
X196532447Y-84301579D01*
X196469000Y-83982609D01*
X196469000Y-83657391D01*
X196532447Y-83338421D01*
X196656903Y-83037958D01*
X196837585Y-82767549D01*
X197067549Y-82537585D01*
X197337958Y-82356903D01*
X197638421Y-82232447D01*
X197744744Y-82211298D01*
X197957389Y-82169000D01*
X198282611Y-82169000D01*
X198495256Y-82211298D01*
X198495256Y-82211298D01*
G37*
G36*
X98800256Y-81576298D02*
G01*
X98906579Y-81597447D01*
X99207042Y-81721903D01*
X99477451Y-81902585D01*
X99707415Y-82132549D01*
X99707416Y-82132551D01*
X99888098Y-82402960D01*
X100012553Y-82703422D01*
X100039494Y-82838860D01*
X100076000Y-83022391D01*
X100076000Y-83347609D01*
X100012553Y-83666579D01*
X99888097Y-83967042D01*
X99707415Y-84237451D01*
X99477451Y-84467415D01*
X99207042Y-84648097D01*
X98906579Y-84772553D01*
X98800256Y-84793702D01*
X98587611Y-84836000D01*
X98262389Y-84836000D01*
X98049744Y-84793702D01*
X97943421Y-84772553D01*
X97642958Y-84648097D01*
X97372549Y-84467415D01*
X97142585Y-84237451D01*
X96961903Y-83967042D01*
X96837447Y-83666579D01*
X96774000Y-83347609D01*
X96774000Y-83022391D01*
X96810507Y-82838860D01*
X96837447Y-82703422D01*
X96961902Y-82402960D01*
X97142584Y-82132551D01*
X97142585Y-82132549D01*
X97372549Y-81902585D01*
X97642958Y-81721903D01*
X97943421Y-81597447D01*
X98049744Y-81576298D01*
X98262389Y-81534000D01*
X98587611Y-81534000D01*
X98800256Y-81576298D01*
X98800256Y-81576298D01*
G37*
G36*
X191302400Y-84622400D02*
G01*
X189697600Y-84622400D01*
X189697600Y-83017600D01*
X191302400Y-83017600D01*
X191302400Y-84622400D01*
X191302400Y-84622400D01*
G37*
G36*
X185120500Y-84430000D02*
G01*
X182315700Y-84430000D01*
X182315700Y-81625200D01*
X185120500Y-81625200D01*
X185120500Y-84430000D01*
X185120500Y-84430000D01*
G37*
G36*
X145496500Y-84430000D02*
G01*
X142691700Y-84430000D01*
X142691700Y-81625200D01*
X145496500Y-81625200D01*
X145496500Y-84430000D01*
X145496500Y-84430000D01*
G37*
M02*
