M48
; DRILL file {KiCad (5.1.4)-1} date 02/08/20 01:03:09
; FORMAT={-:-/ absolute / inch / decimal}
; #@! TF.CreationDate,2020-02-08T01:03:09+01:00
; #@! TF.GenerationSoftware,Kicad,Pcbnew,(5.1.4)-1
; #@! TF.FileFunction,Plated,1,2,PTH
FMAT,2
INCH
T1C0.0315
T2C0.0400
T3C0.0591
%
G90
G05
T1
X7.5Y-3.3
X7.5Y-3.4
T2
X5.153Y-4.1088
X5.153Y-4.2088
X5.153Y-4.3088
X5.153Y-4.4088
X5.153Y-4.5088
X5.153Y-4.6088
X5.153Y-4.7088
X5.153Y-4.8088
X5.153Y-4.9088
X5.153Y-5.0088
X5.453Y-4.1088
X5.453Y-4.2088
X5.453Y-4.3088
X5.453Y-4.4088
X5.453Y-4.5088
X5.453Y-4.6088
X5.453Y-4.7088
X5.453Y-4.8088
X5.453Y-4.9088
X5.453Y-5.0088
X6.503Y-4.4088
X6.503Y-4.5088
X6.503Y-4.6088
X6.503Y-4.7088
X7.103Y-4.4088
X7.103Y-4.5088
X7.103Y-4.6088
X7.103Y-4.7088
X6.653Y-4.1088
X6.653Y-4.2088
X6.653Y-4.3088
X6.653Y-4.4088
X6.653Y-4.5088
X6.653Y-4.6088
X6.653Y-4.7088
X6.653Y-4.8088
X6.653Y-4.9088
X6.653Y-5.0088
X6.953Y-4.1088
X6.953Y-4.2088
X6.953Y-4.3088
X6.953Y-4.4088
X6.953Y-4.5088
X6.953Y-4.6088
X6.953Y-4.7088
X6.953Y-4.8088
X6.953Y-4.9088
X6.953Y-5.0088
X7.253Y-4.4088
X7.253Y-4.5088
X7.253Y-4.6088
X7.253Y-4.7088
X5.753Y-4.4088
X5.753Y-4.5088
X5.753Y-4.6088
X5.753Y-4.7088
X7.353Y-3.8588
X7.453Y-3.8588
X7.553Y-3.8588
X7.653Y-3.8588
X7.753Y-3.8588
X5.903Y-4.1088
X5.903Y-4.2088
X5.903Y-4.3088
X5.903Y-4.4088
X5.903Y-4.5088
X5.903Y-4.6088
X5.903Y-4.7088
X5.903Y-4.8088
X5.903Y-4.9088
X5.903Y-5.0088
X6.203Y-4.1088
X6.203Y-4.2088
X6.203Y-4.3088
X6.203Y-4.4088
X6.203Y-4.5088
X6.203Y-4.6088
X6.203Y-4.7088
X6.203Y-4.8088
X6.203Y-4.9088
X6.203Y-5.0088
X7.403Y-4.1088
X7.403Y-4.2088
X7.403Y-4.3088
X7.403Y-4.4088
X7.403Y-4.5088
X7.403Y-4.6088
X7.403Y-4.7088
X7.403Y-4.8088
X7.403Y-4.9088
X7.403Y-5.0088
X7.703Y-4.1088
X7.703Y-4.2088
X7.703Y-4.3088
X7.703Y-4.4088
X7.703Y-4.5088
X7.703Y-4.6088
X7.703Y-4.7088
X7.703Y-4.8088
X7.703Y-4.9088
X7.703Y-5.0088
X3.875Y-3.725
X3.875Y-3.825
X3.875Y-3.925
X3.875Y-4.025
X3.875Y-4.125
X3.875Y-4.225
X3.875Y-4.325
X3.875Y-4.425
X4.775Y-3.725
X4.775Y-3.825
X4.775Y-3.925
X4.775Y-4.025
X4.775Y-4.125
X4.775Y-4.225
X4.775Y-4.325
X4.775Y-4.425
X4.953Y-4.4088
X4.953Y-4.5088
X4.953Y-4.6088
X4.953Y-4.7088
X7.853Y-4.4088
X7.853Y-4.5088
X7.853Y-4.6088
X7.853Y-4.7088
X6.353Y-4.4088
X6.353Y-4.5088
X6.353Y-4.6088
X6.353Y-4.7088
X5.603Y-4.4088
X5.603Y-4.5088
X5.603Y-4.6088
X5.603Y-4.7088
T3
X5.673Y-3.2688
X5.673Y-3.9488
X7.233Y-3.2688
X7.233Y-3.9488
T0
M30
