%FSLAX45Y45*%
G04 Gerber Fmt 4.5, Leading zero omitted, Abs format (unit mm)*
G04 Created by KiCad (PCBNEW (6.0.4)) date 2022-03-19 22:36:43*
%MOMM*%
%LPD*%
G01*
G04 APERTURE LIST*
%TA.AperFunction,Profile*%
%ADD10C,0.050000*%
%TD*%
%ADD11C,0.200000*%
%ADD12C,0.300000*%
%ADD13C,0.320000*%
G04 APERTURE END LIST*
D10*
X9532610Y-12976360D02*
X20167610Y-12976360D01*
X20167610Y-12976360D02*
X20167610Y-8024360D01*
X20167610Y-8024360D02*
X9532610Y-8024360D01*
X9532610Y-8024360D02*
X9532610Y-12976360D01*
D11*
D12*
X14716610Y-8254360D02*
X15016610Y-8554360D01*
X15016610Y-8254360D02*
X14716610Y-8554360D01*
X17688410Y-9778360D02*
X17988410Y-10078360D01*
X17988410Y-9778360D02*
X17688410Y-10078360D01*
D13*
X10002500Y-8318500D02*
G75*
G03*
X10002500Y-8318500I-160000J0D01*
G01*
X10002500Y-12636500D02*
G75*
G03*
X10002500Y-12636500I-160000J0D01*
G01*
X18448000Y-12509500D02*
G75*
G03*
X18448000Y-12509500I-160000J0D01*
G01*
X19972000Y-8382000D02*
G75*
G03*
X19972000Y-8382000I-160000J0D01*
G01*
D11*
X9787729Y-13289336D02*
X9787729Y-13089336D01*
X9835348Y-13089336D01*
X9863920Y-13098860D01*
X9882967Y-13117908D01*
X9892491Y-13136955D01*
X9902015Y-13175050D01*
X9902015Y-13203622D01*
X9892491Y-13241717D01*
X9882967Y-13260765D01*
X9863920Y-13279812D01*
X9835348Y-13289336D01*
X9787729Y-13289336D01*
X9987729Y-13289336D02*
X9987729Y-13156003D01*
X9987729Y-13194098D02*
X9997253Y-13175050D01*
X10006777Y-13165527D01*
X10025824Y-13156003D01*
X10044872Y-13156003D01*
X10111539Y-13289336D02*
X10111539Y-13156003D01*
X10111539Y-13089336D02*
X10102015Y-13098860D01*
X10111539Y-13108384D01*
X10121062Y-13098860D01*
X10111539Y-13089336D01*
X10111539Y-13108384D01*
X10235348Y-13289336D02*
X10216300Y-13279812D01*
X10206777Y-13260765D01*
X10206777Y-13089336D01*
X10340110Y-13289336D02*
X10321062Y-13279812D01*
X10311539Y-13260765D01*
X10311539Y-13089336D01*
X10568681Y-13289336D02*
X10568681Y-13089336D01*
X10635348Y-13232193D01*
X10702015Y-13089336D01*
X10702015Y-13289336D01*
X10882967Y-13289336D02*
X10882967Y-13184574D01*
X10873443Y-13165527D01*
X10854396Y-13156003D01*
X10816300Y-13156003D01*
X10797253Y-13165527D01*
X10882967Y-13279812D02*
X10863920Y-13289336D01*
X10816300Y-13289336D01*
X10797253Y-13279812D01*
X10787729Y-13260765D01*
X10787729Y-13241717D01*
X10797253Y-13222669D01*
X10816300Y-13213146D01*
X10863920Y-13213146D01*
X10882967Y-13203622D01*
X10978205Y-13156003D02*
X10978205Y-13356003D01*
X10978205Y-13165527D02*
X10997253Y-13156003D01*
X11035348Y-13156003D01*
X11054396Y-13165527D01*
X11063920Y-13175050D01*
X11073443Y-13194098D01*
X11073443Y-13251241D01*
X11063920Y-13270288D01*
X11054396Y-13279812D01*
X11035348Y-13289336D01*
X10997253Y-13289336D01*
X10978205Y-13279812D01*
X11159158Y-13270288D02*
X11168681Y-13279812D01*
X11159158Y-13289336D01*
X11149634Y-13279812D01*
X11159158Y-13270288D01*
X11159158Y-13289336D01*
X11159158Y-13165527D02*
X11168681Y-13175050D01*
X11159158Y-13184574D01*
X11149634Y-13175050D01*
X11159158Y-13165527D01*
X11159158Y-13184574D01*
X9330110Y-13518860D02*
X9530110Y-13718860D01*
X9530110Y-13518860D02*
X9330110Y-13718860D01*
X9768681Y-13509336D02*
X9892491Y-13509336D01*
X9825824Y-13585527D01*
X9854396Y-13585527D01*
X9873443Y-13595050D01*
X9882967Y-13604574D01*
X9892491Y-13623622D01*
X9892491Y-13671241D01*
X9882967Y-13690288D01*
X9873443Y-13699812D01*
X9854396Y-13709336D01*
X9797253Y-13709336D01*
X9778205Y-13699812D01*
X9768681Y-13690288D01*
X9978205Y-13690288D02*
X9987729Y-13699812D01*
X9978205Y-13709336D01*
X9968681Y-13699812D01*
X9978205Y-13690288D01*
X9978205Y-13709336D01*
X10111539Y-13509336D02*
X10130586Y-13509336D01*
X10149634Y-13518860D01*
X10159158Y-13528384D01*
X10168681Y-13547431D01*
X10178205Y-13585527D01*
X10178205Y-13633146D01*
X10168681Y-13671241D01*
X10159158Y-13690288D01*
X10149634Y-13699812D01*
X10130586Y-13709336D01*
X10111539Y-13709336D01*
X10092491Y-13699812D01*
X10082967Y-13690288D01*
X10073443Y-13671241D01*
X10063920Y-13633146D01*
X10063920Y-13585527D01*
X10073443Y-13547431D01*
X10082967Y-13528384D01*
X10092491Y-13518860D01*
X10111539Y-13509336D01*
X10302015Y-13509336D02*
X10321062Y-13509336D01*
X10340110Y-13518860D01*
X10349634Y-13528384D01*
X10359158Y-13547431D01*
X10368681Y-13585527D01*
X10368681Y-13633146D01*
X10359158Y-13671241D01*
X10349634Y-13690288D01*
X10340110Y-13699812D01*
X10321062Y-13709336D01*
X10302015Y-13709336D01*
X10282967Y-13699812D01*
X10273443Y-13690288D01*
X10263920Y-13671241D01*
X10254396Y-13633146D01*
X10254396Y-13585527D01*
X10263920Y-13547431D01*
X10273443Y-13528384D01*
X10282967Y-13518860D01*
X10302015Y-13509336D01*
X10492491Y-13509336D02*
X10511539Y-13509336D01*
X10530586Y-13518860D01*
X10540110Y-13528384D01*
X10549634Y-13547431D01*
X10559158Y-13585527D01*
X10559158Y-13633146D01*
X10549634Y-13671241D01*
X10540110Y-13690288D01*
X10530586Y-13699812D01*
X10511539Y-13709336D01*
X10492491Y-13709336D01*
X10473443Y-13699812D01*
X10463920Y-13690288D01*
X10454396Y-13671241D01*
X10444872Y-13633146D01*
X10444872Y-13585527D01*
X10454396Y-13547431D01*
X10463920Y-13528384D01*
X10473443Y-13518860D01*
X10492491Y-13509336D01*
X10644872Y-13709336D02*
X10644872Y-13576003D01*
X10644872Y-13595050D02*
X10654396Y-13585527D01*
X10673443Y-13576003D01*
X10702015Y-13576003D01*
X10721062Y-13585527D01*
X10730586Y-13604574D01*
X10730586Y-13709336D01*
X10730586Y-13604574D02*
X10740110Y-13585527D01*
X10759158Y-13576003D01*
X10787729Y-13576003D01*
X10806777Y-13585527D01*
X10816300Y-13604574D01*
X10816300Y-13709336D01*
X10911539Y-13709336D02*
X10911539Y-13576003D01*
X10911539Y-13595050D02*
X10921062Y-13585527D01*
X10940110Y-13576003D01*
X10968681Y-13576003D01*
X10987729Y-13585527D01*
X10997253Y-13604574D01*
X10997253Y-13709336D01*
X10997253Y-13604574D02*
X11006777Y-13585527D01*
X11025824Y-13576003D01*
X11054396Y-13576003D01*
X11073443Y-13585527D01*
X11082967Y-13604574D01*
X11082967Y-13709336D01*
X11473443Y-13499812D02*
X11302015Y-13756955D01*
X11730586Y-13509336D02*
X11749634Y-13509336D01*
X11768681Y-13518860D01*
X11778205Y-13528384D01*
X11787729Y-13547431D01*
X11797253Y-13585527D01*
X11797253Y-13633146D01*
X11787729Y-13671241D01*
X11778205Y-13690288D01*
X11768681Y-13699812D01*
X11749634Y-13709336D01*
X11730586Y-13709336D01*
X11711538Y-13699812D01*
X11702015Y-13690288D01*
X11692491Y-13671241D01*
X11682967Y-13633146D01*
X11682967Y-13585527D01*
X11692491Y-13547431D01*
X11702015Y-13528384D01*
X11711538Y-13518860D01*
X11730586Y-13509336D01*
X11882967Y-13690288D02*
X11892491Y-13699812D01*
X11882967Y-13709336D01*
X11873443Y-13699812D01*
X11882967Y-13690288D01*
X11882967Y-13709336D01*
X12082967Y-13709336D02*
X11968681Y-13709336D01*
X12025824Y-13709336D02*
X12025824Y-13509336D01*
X12006777Y-13537908D01*
X11987729Y-13556955D01*
X11968681Y-13566479D01*
X12273443Y-13709336D02*
X12159158Y-13709336D01*
X12216300Y-13709336D02*
X12216300Y-13509336D01*
X12197253Y-13537908D01*
X12178205Y-13556955D01*
X12159158Y-13566479D01*
X12387729Y-13595050D02*
X12368681Y-13585527D01*
X12359158Y-13576003D01*
X12349634Y-13556955D01*
X12349634Y-13547431D01*
X12359158Y-13528384D01*
X12368681Y-13518860D01*
X12387729Y-13509336D01*
X12425824Y-13509336D01*
X12444872Y-13518860D01*
X12454396Y-13528384D01*
X12463919Y-13547431D01*
X12463919Y-13556955D01*
X12454396Y-13576003D01*
X12444872Y-13585527D01*
X12425824Y-13595050D01*
X12387729Y-13595050D01*
X12368681Y-13604574D01*
X12359158Y-13614098D01*
X12349634Y-13633146D01*
X12349634Y-13671241D01*
X12359158Y-13690288D01*
X12368681Y-13699812D01*
X12387729Y-13709336D01*
X12425824Y-13709336D01*
X12444872Y-13699812D01*
X12454396Y-13690288D01*
X12463919Y-13671241D01*
X12463919Y-13633146D01*
X12454396Y-13614098D01*
X12444872Y-13604574D01*
X12425824Y-13595050D01*
X12654396Y-13709336D02*
X12540110Y-13709336D01*
X12597253Y-13709336D02*
X12597253Y-13509336D01*
X12578205Y-13537908D01*
X12559158Y-13556955D01*
X12540110Y-13566479D01*
X12730586Y-13509336D02*
X12730586Y-13547431D01*
X12806777Y-13509336D02*
X12806777Y-13547431D01*
X13102015Y-13785527D02*
X13092491Y-13776003D01*
X13073443Y-13747431D01*
X13063919Y-13728384D01*
X13054396Y-13699812D01*
X13044872Y-13652193D01*
X13044872Y-13614098D01*
X13054396Y-13566479D01*
X13063919Y-13537908D01*
X13073443Y-13518860D01*
X13092491Y-13490288D01*
X13102015Y-13480765D01*
X13168681Y-13528384D02*
X13178205Y-13518860D01*
X13197253Y-13509336D01*
X13244872Y-13509336D01*
X13263919Y-13518860D01*
X13273443Y-13528384D01*
X13282967Y-13547431D01*
X13282967Y-13566479D01*
X13273443Y-13595050D01*
X13159158Y-13709336D01*
X13282967Y-13709336D01*
X13521062Y-13709336D02*
X13521062Y-13509336D01*
X13606777Y-13709336D02*
X13606777Y-13604574D01*
X13597253Y-13585527D01*
X13578205Y-13576003D01*
X13549634Y-13576003D01*
X13530586Y-13585527D01*
X13521062Y-13595050D01*
X13730586Y-13709336D02*
X13711538Y-13699812D01*
X13702015Y-13690288D01*
X13692491Y-13671241D01*
X13692491Y-13614098D01*
X13702015Y-13595050D01*
X13711538Y-13585527D01*
X13730586Y-13576003D01*
X13759158Y-13576003D01*
X13778205Y-13585527D01*
X13787729Y-13595050D01*
X13797253Y-13614098D01*
X13797253Y-13671241D01*
X13787729Y-13690288D01*
X13778205Y-13699812D01*
X13759158Y-13709336D01*
X13730586Y-13709336D01*
X13911538Y-13709336D02*
X13892491Y-13699812D01*
X13882967Y-13680765D01*
X13882967Y-13509336D01*
X14063919Y-13699812D02*
X14044872Y-13709336D01*
X14006777Y-13709336D01*
X13987729Y-13699812D01*
X13978205Y-13680765D01*
X13978205Y-13604574D01*
X13987729Y-13585527D01*
X14006777Y-13576003D01*
X14044872Y-13576003D01*
X14063919Y-13585527D01*
X14073443Y-13604574D01*
X14073443Y-13623622D01*
X13978205Y-13642669D01*
X14149634Y-13699812D02*
X14168681Y-13709336D01*
X14206777Y-13709336D01*
X14225824Y-13699812D01*
X14235348Y-13680765D01*
X14235348Y-13671241D01*
X14225824Y-13652193D01*
X14206777Y-13642669D01*
X14178205Y-13642669D01*
X14159158Y-13633146D01*
X14149634Y-13614098D01*
X14149634Y-13604574D01*
X14159158Y-13585527D01*
X14178205Y-13576003D01*
X14206777Y-13576003D01*
X14225824Y-13585527D01*
X14302015Y-13785527D02*
X14311538Y-13776003D01*
X14330586Y-13747431D01*
X14340110Y-13728384D01*
X14349634Y-13699812D01*
X14359158Y-13652193D01*
X14359158Y-13614098D01*
X14349634Y-13566479D01*
X14340110Y-13537908D01*
X14330586Y-13518860D01*
X14311538Y-13490288D01*
X14302015Y-13480765D01*
X14663919Y-13785527D02*
X14654396Y-13776003D01*
X14635348Y-13747431D01*
X14625824Y-13728384D01*
X14616300Y-13699812D01*
X14606777Y-13652193D01*
X14606777Y-13614098D01*
X14616300Y-13566479D01*
X14625824Y-13537908D01*
X14635348Y-13518860D01*
X14654396Y-13490288D01*
X14663919Y-13480765D01*
X14740110Y-13576003D02*
X14740110Y-13709336D01*
X14740110Y-13595050D02*
X14749634Y-13585527D01*
X14768681Y-13576003D01*
X14797253Y-13576003D01*
X14816300Y-13585527D01*
X14825824Y-13604574D01*
X14825824Y-13709336D01*
X14949634Y-13709336D02*
X14930586Y-13699812D01*
X14921062Y-13690288D01*
X14911538Y-13671241D01*
X14911538Y-13614098D01*
X14921062Y-13595050D01*
X14930586Y-13585527D01*
X14949634Y-13576003D01*
X14978205Y-13576003D01*
X14997253Y-13585527D01*
X15006777Y-13595050D01*
X15016300Y-13614098D01*
X15016300Y-13671241D01*
X15006777Y-13690288D01*
X14997253Y-13699812D01*
X14978205Y-13709336D01*
X14949634Y-13709336D01*
X15073443Y-13576003D02*
X15149634Y-13576003D01*
X15102015Y-13509336D02*
X15102015Y-13680765D01*
X15111538Y-13699812D01*
X15130586Y-13709336D01*
X15149634Y-13709336D01*
X15368681Y-13576003D02*
X15368681Y-13776003D01*
X15368681Y-13585527D02*
X15387729Y-13576003D01*
X15425824Y-13576003D01*
X15444872Y-13585527D01*
X15454396Y-13595050D01*
X15463919Y-13614098D01*
X15463919Y-13671241D01*
X15454396Y-13690288D01*
X15444872Y-13699812D01*
X15425824Y-13709336D01*
X15387729Y-13709336D01*
X15368681Y-13699812D01*
X15578205Y-13709336D02*
X15559158Y-13699812D01*
X15549634Y-13680765D01*
X15549634Y-13509336D01*
X15740110Y-13709336D02*
X15740110Y-13604574D01*
X15730586Y-13585527D01*
X15711538Y-13576003D01*
X15673443Y-13576003D01*
X15654396Y-13585527D01*
X15740110Y-13699812D02*
X15721062Y-13709336D01*
X15673443Y-13709336D01*
X15654396Y-13699812D01*
X15644872Y-13680765D01*
X15644872Y-13661717D01*
X15654396Y-13642669D01*
X15673443Y-13633146D01*
X15721062Y-13633146D01*
X15740110Y-13623622D01*
X15806777Y-13576003D02*
X15882967Y-13576003D01*
X15835348Y-13509336D02*
X15835348Y-13680765D01*
X15844872Y-13699812D01*
X15863919Y-13709336D01*
X15882967Y-13709336D01*
X16025824Y-13699812D02*
X16006777Y-13709336D01*
X15968681Y-13709336D01*
X15949634Y-13699812D01*
X15940110Y-13680765D01*
X15940110Y-13604574D01*
X15949634Y-13585527D01*
X15968681Y-13576003D01*
X16006777Y-13576003D01*
X16025824Y-13585527D01*
X16035348Y-13604574D01*
X16035348Y-13623622D01*
X15940110Y-13642669D01*
X16206777Y-13709336D02*
X16206777Y-13509336D01*
X16206777Y-13699812D02*
X16187729Y-13709336D01*
X16149634Y-13709336D01*
X16130586Y-13699812D01*
X16121062Y-13690288D01*
X16111538Y-13671241D01*
X16111538Y-13614098D01*
X16121062Y-13595050D01*
X16130586Y-13585527D01*
X16149634Y-13576003D01*
X16187729Y-13576003D01*
X16206777Y-13585527D01*
X16282967Y-13785527D02*
X16292491Y-13776003D01*
X16311538Y-13747431D01*
X16321062Y-13728384D01*
X16330586Y-13699812D01*
X16340110Y-13652193D01*
X16340110Y-13614098D01*
X16330586Y-13566479D01*
X16321062Y-13537908D01*
X16311538Y-13518860D01*
X16292491Y-13490288D01*
X16282967Y-13480765D01*
X9530110Y-13938860D02*
G75*
G03*
X9530110Y-13938860I-100000J0D01*
G01*
X9768681Y-13829336D02*
X9892491Y-13829336D01*
X9825824Y-13905527D01*
X9854396Y-13905527D01*
X9873443Y-13915050D01*
X9882967Y-13924574D01*
X9892491Y-13943622D01*
X9892491Y-13991241D01*
X9882967Y-14010288D01*
X9873443Y-14019812D01*
X9854396Y-14029336D01*
X9797253Y-14029336D01*
X9778205Y-14019812D01*
X9768681Y-14010288D01*
X9978205Y-14010288D02*
X9987729Y-14019812D01*
X9978205Y-14029336D01*
X9968681Y-14019812D01*
X9978205Y-14010288D01*
X9978205Y-14029336D01*
X10063920Y-13848384D02*
X10073443Y-13838860D01*
X10092491Y-13829336D01*
X10140110Y-13829336D01*
X10159158Y-13838860D01*
X10168681Y-13848384D01*
X10178205Y-13867431D01*
X10178205Y-13886479D01*
X10168681Y-13915050D01*
X10054396Y-14029336D01*
X10178205Y-14029336D01*
X10302015Y-13829336D02*
X10321062Y-13829336D01*
X10340110Y-13838860D01*
X10349634Y-13848384D01*
X10359158Y-13867431D01*
X10368681Y-13905527D01*
X10368681Y-13953146D01*
X10359158Y-13991241D01*
X10349634Y-14010288D01*
X10340110Y-14019812D01*
X10321062Y-14029336D01*
X10302015Y-14029336D01*
X10282967Y-14019812D01*
X10273443Y-14010288D01*
X10263920Y-13991241D01*
X10254396Y-13953146D01*
X10254396Y-13905527D01*
X10263920Y-13867431D01*
X10273443Y-13848384D01*
X10282967Y-13838860D01*
X10302015Y-13829336D01*
X10492491Y-13829336D02*
X10511539Y-13829336D01*
X10530586Y-13838860D01*
X10540110Y-13848384D01*
X10549634Y-13867431D01*
X10559158Y-13905527D01*
X10559158Y-13953146D01*
X10549634Y-13991241D01*
X10540110Y-14010288D01*
X10530586Y-14019812D01*
X10511539Y-14029336D01*
X10492491Y-14029336D01*
X10473443Y-14019812D01*
X10463920Y-14010288D01*
X10454396Y-13991241D01*
X10444872Y-13953146D01*
X10444872Y-13905527D01*
X10454396Y-13867431D01*
X10463920Y-13848384D01*
X10473443Y-13838860D01*
X10492491Y-13829336D01*
X10644872Y-14029336D02*
X10644872Y-13896003D01*
X10644872Y-13915050D02*
X10654396Y-13905527D01*
X10673443Y-13896003D01*
X10702015Y-13896003D01*
X10721062Y-13905527D01*
X10730586Y-13924574D01*
X10730586Y-14029336D01*
X10730586Y-13924574D02*
X10740110Y-13905527D01*
X10759158Y-13896003D01*
X10787729Y-13896003D01*
X10806777Y-13905527D01*
X10816300Y-13924574D01*
X10816300Y-14029336D01*
X10911539Y-14029336D02*
X10911539Y-13896003D01*
X10911539Y-13915050D02*
X10921062Y-13905527D01*
X10940110Y-13896003D01*
X10968681Y-13896003D01*
X10987729Y-13905527D01*
X10997253Y-13924574D01*
X10997253Y-14029336D01*
X10997253Y-13924574D02*
X11006777Y-13905527D01*
X11025824Y-13896003D01*
X11054396Y-13896003D01*
X11073443Y-13905527D01*
X11082967Y-13924574D01*
X11082967Y-14029336D01*
X11473443Y-13819812D02*
X11302015Y-14076955D01*
X11730586Y-13829336D02*
X11749634Y-13829336D01*
X11768681Y-13838860D01*
X11778205Y-13848384D01*
X11787729Y-13867431D01*
X11797253Y-13905527D01*
X11797253Y-13953146D01*
X11787729Y-13991241D01*
X11778205Y-14010288D01*
X11768681Y-14019812D01*
X11749634Y-14029336D01*
X11730586Y-14029336D01*
X11711538Y-14019812D01*
X11702015Y-14010288D01*
X11692491Y-13991241D01*
X11682967Y-13953146D01*
X11682967Y-13905527D01*
X11692491Y-13867431D01*
X11702015Y-13848384D01*
X11711538Y-13838860D01*
X11730586Y-13829336D01*
X11882967Y-14010288D02*
X11892491Y-14019812D01*
X11882967Y-14029336D01*
X11873443Y-14019812D01*
X11882967Y-14010288D01*
X11882967Y-14029336D01*
X12082967Y-14029336D02*
X11968681Y-14029336D01*
X12025824Y-14029336D02*
X12025824Y-13829336D01*
X12006777Y-13857908D01*
X11987729Y-13876955D01*
X11968681Y-13886479D01*
X12159158Y-13848384D02*
X12168681Y-13838860D01*
X12187729Y-13829336D01*
X12235348Y-13829336D01*
X12254396Y-13838860D01*
X12263919Y-13848384D01*
X12273443Y-13867431D01*
X12273443Y-13886479D01*
X12263919Y-13915050D01*
X12149634Y-14029336D01*
X12273443Y-14029336D01*
X12444872Y-13829336D02*
X12406777Y-13829336D01*
X12387729Y-13838860D01*
X12378205Y-13848384D01*
X12359158Y-13876955D01*
X12349634Y-13915050D01*
X12349634Y-13991241D01*
X12359158Y-14010288D01*
X12368681Y-14019812D01*
X12387729Y-14029336D01*
X12425824Y-14029336D01*
X12444872Y-14019812D01*
X12454396Y-14010288D01*
X12463919Y-13991241D01*
X12463919Y-13943622D01*
X12454396Y-13924574D01*
X12444872Y-13915050D01*
X12425824Y-13905527D01*
X12387729Y-13905527D01*
X12368681Y-13915050D01*
X12359158Y-13924574D01*
X12349634Y-13943622D01*
X12587729Y-13829336D02*
X12606777Y-13829336D01*
X12625824Y-13838860D01*
X12635348Y-13848384D01*
X12644872Y-13867431D01*
X12654396Y-13905527D01*
X12654396Y-13953146D01*
X12644872Y-13991241D01*
X12635348Y-14010288D01*
X12625824Y-14019812D01*
X12606777Y-14029336D01*
X12587729Y-14029336D01*
X12568681Y-14019812D01*
X12559158Y-14010288D01*
X12549634Y-13991241D01*
X12540110Y-13953146D01*
X12540110Y-13905527D01*
X12549634Y-13867431D01*
X12559158Y-13848384D01*
X12568681Y-13838860D01*
X12587729Y-13829336D01*
X12730586Y-13829336D02*
X12730586Y-13867431D01*
X12806777Y-13829336D02*
X12806777Y-13867431D01*
X13102015Y-14105527D02*
X13092491Y-14096003D01*
X13073443Y-14067431D01*
X13063919Y-14048384D01*
X13054396Y-14019812D01*
X13044872Y-13972193D01*
X13044872Y-13934098D01*
X13054396Y-13886479D01*
X13063919Y-13857908D01*
X13073443Y-13838860D01*
X13092491Y-13810288D01*
X13102015Y-13800765D01*
X13263919Y-13896003D02*
X13263919Y-14029336D01*
X13216300Y-13819812D02*
X13168681Y-13962669D01*
X13292491Y-13962669D01*
X13521062Y-14029336D02*
X13521062Y-13829336D01*
X13606777Y-14029336D02*
X13606777Y-13924574D01*
X13597253Y-13905527D01*
X13578205Y-13896003D01*
X13549634Y-13896003D01*
X13530586Y-13905527D01*
X13521062Y-13915050D01*
X13730586Y-14029336D02*
X13711538Y-14019812D01*
X13702015Y-14010288D01*
X13692491Y-13991241D01*
X13692491Y-13934098D01*
X13702015Y-13915050D01*
X13711538Y-13905527D01*
X13730586Y-13896003D01*
X13759158Y-13896003D01*
X13778205Y-13905527D01*
X13787729Y-13915050D01*
X13797253Y-13934098D01*
X13797253Y-13991241D01*
X13787729Y-14010288D01*
X13778205Y-14019812D01*
X13759158Y-14029336D01*
X13730586Y-14029336D01*
X13911538Y-14029336D02*
X13892491Y-14019812D01*
X13882967Y-14000765D01*
X13882967Y-13829336D01*
X14063919Y-14019812D02*
X14044872Y-14029336D01*
X14006777Y-14029336D01*
X13987729Y-14019812D01*
X13978205Y-14000765D01*
X13978205Y-13924574D01*
X13987729Y-13905527D01*
X14006777Y-13896003D01*
X14044872Y-13896003D01*
X14063919Y-13905527D01*
X14073443Y-13924574D01*
X14073443Y-13943622D01*
X13978205Y-13962669D01*
X14149634Y-14019812D02*
X14168681Y-14029336D01*
X14206777Y-14029336D01*
X14225824Y-14019812D01*
X14235348Y-14000765D01*
X14235348Y-13991241D01*
X14225824Y-13972193D01*
X14206777Y-13962669D01*
X14178205Y-13962669D01*
X14159158Y-13953146D01*
X14149634Y-13934098D01*
X14149634Y-13924574D01*
X14159158Y-13905527D01*
X14178205Y-13896003D01*
X14206777Y-13896003D01*
X14225824Y-13905527D01*
X14302015Y-14105527D02*
X14311538Y-14096003D01*
X14330586Y-14067431D01*
X14340110Y-14048384D01*
X14349634Y-14019812D01*
X14359158Y-13972193D01*
X14359158Y-13934098D01*
X14349634Y-13886479D01*
X14340110Y-13857908D01*
X14330586Y-13838860D01*
X14311538Y-13810288D01*
X14302015Y-13800765D01*
X14663919Y-14105527D02*
X14654396Y-14096003D01*
X14635348Y-14067431D01*
X14625824Y-14048384D01*
X14616300Y-14019812D01*
X14606777Y-13972193D01*
X14606777Y-13934098D01*
X14616300Y-13886479D01*
X14625824Y-13857908D01*
X14635348Y-13838860D01*
X14654396Y-13810288D01*
X14663919Y-13800765D01*
X14740110Y-13896003D02*
X14740110Y-14029336D01*
X14740110Y-13915050D02*
X14749634Y-13905527D01*
X14768681Y-13896003D01*
X14797253Y-13896003D01*
X14816300Y-13905527D01*
X14825824Y-13924574D01*
X14825824Y-14029336D01*
X14949634Y-14029336D02*
X14930586Y-14019812D01*
X14921062Y-14010288D01*
X14911538Y-13991241D01*
X14911538Y-13934098D01*
X14921062Y-13915050D01*
X14930586Y-13905527D01*
X14949634Y-13896003D01*
X14978205Y-13896003D01*
X14997253Y-13905527D01*
X15006777Y-13915050D01*
X15016300Y-13934098D01*
X15016300Y-13991241D01*
X15006777Y-14010288D01*
X14997253Y-14019812D01*
X14978205Y-14029336D01*
X14949634Y-14029336D01*
X15073443Y-13896003D02*
X15149634Y-13896003D01*
X15102015Y-13829336D02*
X15102015Y-14000765D01*
X15111538Y-14019812D01*
X15130586Y-14029336D01*
X15149634Y-14029336D01*
X15368681Y-13896003D02*
X15368681Y-14096003D01*
X15368681Y-13905527D02*
X15387729Y-13896003D01*
X15425824Y-13896003D01*
X15444872Y-13905527D01*
X15454396Y-13915050D01*
X15463919Y-13934098D01*
X15463919Y-13991241D01*
X15454396Y-14010288D01*
X15444872Y-14019812D01*
X15425824Y-14029336D01*
X15387729Y-14029336D01*
X15368681Y-14019812D01*
X15578205Y-14029336D02*
X15559158Y-14019812D01*
X15549634Y-14000765D01*
X15549634Y-13829336D01*
X15740110Y-14029336D02*
X15740110Y-13924574D01*
X15730586Y-13905527D01*
X15711538Y-13896003D01*
X15673443Y-13896003D01*
X15654396Y-13905527D01*
X15740110Y-14019812D02*
X15721062Y-14029336D01*
X15673443Y-14029336D01*
X15654396Y-14019812D01*
X15644872Y-14000765D01*
X15644872Y-13981717D01*
X15654396Y-13962669D01*
X15673443Y-13953146D01*
X15721062Y-13953146D01*
X15740110Y-13943622D01*
X15806777Y-13896003D02*
X15882967Y-13896003D01*
X15835348Y-13829336D02*
X15835348Y-14000765D01*
X15844872Y-14019812D01*
X15863919Y-14029336D01*
X15882967Y-14029336D01*
X16025824Y-14019812D02*
X16006777Y-14029336D01*
X15968681Y-14029336D01*
X15949634Y-14019812D01*
X15940110Y-14000765D01*
X15940110Y-13924574D01*
X15949634Y-13905527D01*
X15968681Y-13896003D01*
X16006777Y-13896003D01*
X16025824Y-13905527D01*
X16035348Y-13924574D01*
X16035348Y-13943622D01*
X15940110Y-13962669D01*
X16206777Y-14029336D02*
X16206777Y-13829336D01*
X16206777Y-14019812D02*
X16187729Y-14029336D01*
X16149634Y-14029336D01*
X16130586Y-14019812D01*
X16121062Y-14010288D01*
X16111538Y-13991241D01*
X16111538Y-13934098D01*
X16121062Y-13915050D01*
X16130586Y-13905527D01*
X16149634Y-13896003D01*
X16187729Y-13896003D01*
X16206777Y-13905527D01*
X16282967Y-14105527D02*
X16292491Y-14096003D01*
X16311538Y-14067431D01*
X16321062Y-14048384D01*
X16330586Y-14019812D01*
X16340110Y-13972193D01*
X16340110Y-13934098D01*
X16330586Y-13886479D01*
X16321062Y-13857908D01*
X16311538Y-13838860D01*
X16292491Y-13810288D01*
X16282967Y-13800765D01*
M02*
