M48
; DRILL file {KiCad (6.0.4)} date Sat Mar 19 22:36:42 2022
; FORMAT={-:-/ absolute / metric / decimal}
; #@! TF.CreationDate,2022-03-19T22:36:42+01:00
; #@! TF.GenerationSoftware,Kicad,Pcbnew,(6.0.4)
; #@! TF.FileFunction,Plated,1,2,PTH
FMAT,2
METRIC
; #@! TA.AperFunction,Plated,PTH,ComponentDrill
T1C1.000
; #@! TA.AperFunction,Plated,PTH,ComponentDrill
T2C1.016
; #@! TA.AperFunction,Plated,PTH,ComponentDrill
T3C1.500
%
G90
G05
T1
X190.5Y-83.82
X190.5Y-86.32
T2
X98.425Y-94.615
X98.425Y-97.155
X98.425Y-99.695
X98.425Y-102.235
X98.425Y-104.775
X98.425Y-107.315
X98.425Y-109.855
X98.425Y-112.395
X121.285Y-94.615
X121.285Y-97.155
X121.285Y-99.695
X121.285Y-102.235
X121.285Y-104.775
X121.285Y-107.315
X121.285Y-109.855
X121.285Y-112.395
X125.806Y-111.984
X125.806Y-114.524
X125.806Y-117.064
X125.806Y-119.604
X130.886Y-104.364
X130.886Y-106.904
X130.886Y-109.444
X130.886Y-111.984
X130.886Y-114.524
X130.886Y-117.064
X130.886Y-119.604
X130.886Y-122.144
X130.886Y-124.684
X130.886Y-127.224
X138.506Y-104.364
X138.506Y-106.904
X138.506Y-109.444
X138.506Y-111.984
X138.506Y-114.524
X138.506Y-117.064
X138.506Y-119.604
X138.506Y-122.144
X138.506Y-124.684
X138.506Y-127.224
X142.316Y-111.984
X142.316Y-114.524
X142.316Y-117.064
X142.316Y-119.604
X146.126Y-111.984
X146.126Y-114.524
X146.126Y-117.064
X146.126Y-119.604
X149.936Y-104.364
X149.936Y-106.904
X149.936Y-109.444
X149.936Y-111.984
X149.936Y-114.524
X149.936Y-117.064
X149.936Y-119.604
X149.936Y-122.144
X149.936Y-124.684
X149.936Y-127.224
X157.556Y-104.364
X157.556Y-106.904
X157.556Y-109.444
X157.556Y-111.984
X157.556Y-114.524
X157.556Y-117.064
X157.556Y-119.604
X157.556Y-122.144
X157.556Y-124.684
X157.556Y-127.224
X161.366Y-111.984
X161.366Y-114.524
X161.366Y-117.064
X161.366Y-119.604
X165.176Y-111.984
X165.176Y-114.524
X165.176Y-117.064
X165.176Y-119.604
X168.986Y-104.364
X168.986Y-106.904
X168.986Y-109.444
X168.986Y-111.984
X168.986Y-114.524
X168.986Y-117.064
X168.986Y-119.604
X168.986Y-122.144
X168.986Y-124.684
X168.986Y-127.224
X176.606Y-104.364
X176.606Y-106.904
X176.606Y-109.444
X176.606Y-111.984
X176.606Y-114.524
X176.606Y-117.064
X176.606Y-119.604
X176.606Y-122.144
X176.606Y-124.684
X176.606Y-127.224
X180.416Y-111.984
X180.416Y-114.524
X180.416Y-117.064
X180.416Y-119.604
X184.226Y-111.984
X184.226Y-114.524
X184.226Y-117.064
X184.226Y-119.604
X186.766Y-98.014
X188.036Y-104.364
X188.036Y-106.904
X188.036Y-109.444
X188.036Y-111.984
X188.036Y-114.524
X188.036Y-117.064
X188.036Y-119.604
X188.036Y-122.144
X188.036Y-124.684
X188.036Y-127.224
X189.306Y-98.014
X191.846Y-98.014
X194.386Y-98.014
X195.656Y-104.364
X195.656Y-106.904
X195.656Y-109.444
X195.656Y-111.984
X195.656Y-114.524
X195.656Y-117.064
X195.656Y-119.604
X195.656Y-122.144
X195.656Y-124.684
X195.656Y-127.224
X196.926Y-98.014
X199.466Y-111.984
X199.466Y-114.524
X199.466Y-117.064
X199.466Y-119.604
T3
X144.094Y-83.028
X144.094Y-100.3
X183.718Y-83.028
X183.718Y-100.3
T0
M30
