%FSLAX45Y45*%
G04 Gerber Fmt 4.5, Leading zero omitted, Abs format (unit mm)*
G04 Created by KiCad (PCBNEW (6.0.4)) date 2022-03-19 22:36:43*
%MOMM*%
%LPD*%
G01*
G04 APERTURE LIST*
%TA.AperFunction,Profile*%
%ADD10C,0.050000*%
%TD*%
%ADD11C,0.200000*%
%ADD12C,0.100000*%
%ADD13C,0.101600*%
%ADD14C,0.150000*%
G04 APERTURE END LIST*
D10*
X9532610Y-12976360D02*
X20167610Y-12976360D01*
X20167610Y-12976360D02*
X20167610Y-8024360D01*
X20167610Y-8024360D02*
X9532610Y-8024360D01*
X9532610Y-8024360D02*
X9532610Y-12976360D01*
D11*
D12*
X19000000Y-8332000D02*
X19100000Y-8432000D01*
X19100000Y-8332000D02*
X19000000Y-8432000D01*
X19000000Y-8582000D02*
X19100000Y-8682000D01*
X19100000Y-8582000D02*
X19000000Y-8682000D01*
D13*
X9893300Y-9461500D02*
G75*
G03*
X9893300Y-9461500I-50800J0D01*
G01*
X9893300Y-9715500D02*
G75*
G03*
X9893300Y-9715500I-50800J0D01*
G01*
X9893300Y-9969500D02*
G75*
G03*
X9893300Y-9969500I-50800J0D01*
G01*
X9893300Y-10223500D02*
G75*
G03*
X9893300Y-10223500I-50800J0D01*
G01*
X9893300Y-10477500D02*
G75*
G03*
X9893300Y-10477500I-50800J0D01*
G01*
X9893300Y-10731500D02*
G75*
G03*
X9893300Y-10731500I-50800J0D01*
G01*
X9893300Y-10985500D02*
G75*
G03*
X9893300Y-10985500I-50800J0D01*
G01*
X9893300Y-11239500D02*
G75*
G03*
X9893300Y-11239500I-50800J0D01*
G01*
X12179300Y-9461500D02*
G75*
G03*
X12179300Y-9461500I-50800J0D01*
G01*
X12179300Y-9715500D02*
G75*
G03*
X12179300Y-9715500I-50800J0D01*
G01*
X12179300Y-9969500D02*
G75*
G03*
X12179300Y-9969500I-50800J0D01*
G01*
X12179300Y-10223500D02*
G75*
G03*
X12179300Y-10223500I-50800J0D01*
G01*
X12179300Y-10477500D02*
G75*
G03*
X12179300Y-10477500I-50800J0D01*
G01*
X12179300Y-10731500D02*
G75*
G03*
X12179300Y-10731500I-50800J0D01*
G01*
X12179300Y-10985500D02*
G75*
G03*
X12179300Y-10985500I-50800J0D01*
G01*
X12179300Y-11239500D02*
G75*
G03*
X12179300Y-11239500I-50800J0D01*
G01*
X12631410Y-11198360D02*
G75*
G03*
X12631410Y-11198360I-50800J0D01*
G01*
X12631410Y-11452360D02*
G75*
G03*
X12631410Y-11452360I-50800J0D01*
G01*
X12631410Y-11706360D02*
G75*
G03*
X12631410Y-11706360I-50800J0D01*
G01*
X12631410Y-11960360D02*
G75*
G03*
X12631410Y-11960360I-50800J0D01*
G01*
X13139410Y-10436360D02*
G75*
G03*
X13139410Y-10436360I-50800J0D01*
G01*
X13139410Y-10690360D02*
G75*
G03*
X13139410Y-10690360I-50800J0D01*
G01*
X13139410Y-10944360D02*
G75*
G03*
X13139410Y-10944360I-50800J0D01*
G01*
X13139410Y-11198360D02*
G75*
G03*
X13139410Y-11198360I-50800J0D01*
G01*
X13139410Y-11452360D02*
G75*
G03*
X13139410Y-11452360I-50800J0D01*
G01*
X13139410Y-11706360D02*
G75*
G03*
X13139410Y-11706360I-50800J0D01*
G01*
X13139410Y-11960360D02*
G75*
G03*
X13139410Y-11960360I-50800J0D01*
G01*
X13139410Y-12214360D02*
G75*
G03*
X13139410Y-12214360I-50800J0D01*
G01*
X13139410Y-12468360D02*
G75*
G03*
X13139410Y-12468360I-50800J0D01*
G01*
X13139410Y-12722360D02*
G75*
G03*
X13139410Y-12722360I-50800J0D01*
G01*
X13901410Y-10436360D02*
G75*
G03*
X13901410Y-10436360I-50800J0D01*
G01*
X13901410Y-10690360D02*
G75*
G03*
X13901410Y-10690360I-50800J0D01*
G01*
X13901410Y-10944360D02*
G75*
G03*
X13901410Y-10944360I-50800J0D01*
G01*
X13901410Y-11198360D02*
G75*
G03*
X13901410Y-11198360I-50800J0D01*
G01*
X13901410Y-11452360D02*
G75*
G03*
X13901410Y-11452360I-50800J0D01*
G01*
X13901410Y-11706360D02*
G75*
G03*
X13901410Y-11706360I-50800J0D01*
G01*
X13901410Y-11960360D02*
G75*
G03*
X13901410Y-11960360I-50800J0D01*
G01*
X13901410Y-12214360D02*
G75*
G03*
X13901410Y-12214360I-50800J0D01*
G01*
X13901410Y-12468360D02*
G75*
G03*
X13901410Y-12468360I-50800J0D01*
G01*
X13901410Y-12722360D02*
G75*
G03*
X13901410Y-12722360I-50800J0D01*
G01*
X14282410Y-11198360D02*
G75*
G03*
X14282410Y-11198360I-50800J0D01*
G01*
X14282410Y-11452360D02*
G75*
G03*
X14282410Y-11452360I-50800J0D01*
G01*
X14282410Y-11706360D02*
G75*
G03*
X14282410Y-11706360I-50800J0D01*
G01*
X14282410Y-11960360D02*
G75*
G03*
X14282410Y-11960360I-50800J0D01*
G01*
X14663410Y-11198360D02*
G75*
G03*
X14663410Y-11198360I-50800J0D01*
G01*
X14663410Y-11452360D02*
G75*
G03*
X14663410Y-11452360I-50800J0D01*
G01*
X14663410Y-11706360D02*
G75*
G03*
X14663410Y-11706360I-50800J0D01*
G01*
X14663410Y-11960360D02*
G75*
G03*
X14663410Y-11960360I-50800J0D01*
G01*
X15044410Y-10436360D02*
G75*
G03*
X15044410Y-10436360I-50800J0D01*
G01*
X15044410Y-10690360D02*
G75*
G03*
X15044410Y-10690360I-50800J0D01*
G01*
X15044410Y-10944360D02*
G75*
G03*
X15044410Y-10944360I-50800J0D01*
G01*
X15044410Y-11198360D02*
G75*
G03*
X15044410Y-11198360I-50800J0D01*
G01*
X15044410Y-11452360D02*
G75*
G03*
X15044410Y-11452360I-50800J0D01*
G01*
X15044410Y-11706360D02*
G75*
G03*
X15044410Y-11706360I-50800J0D01*
G01*
X15044410Y-11960360D02*
G75*
G03*
X15044410Y-11960360I-50800J0D01*
G01*
X15044410Y-12214360D02*
G75*
G03*
X15044410Y-12214360I-50800J0D01*
G01*
X15044410Y-12468360D02*
G75*
G03*
X15044410Y-12468360I-50800J0D01*
G01*
X15044410Y-12722360D02*
G75*
G03*
X15044410Y-12722360I-50800J0D01*
G01*
X15806410Y-10436360D02*
G75*
G03*
X15806410Y-10436360I-50800J0D01*
G01*
X15806410Y-10690360D02*
G75*
G03*
X15806410Y-10690360I-50800J0D01*
G01*
X15806410Y-10944360D02*
G75*
G03*
X15806410Y-10944360I-50800J0D01*
G01*
X15806410Y-11198360D02*
G75*
G03*
X15806410Y-11198360I-50800J0D01*
G01*
X15806410Y-11452360D02*
G75*
G03*
X15806410Y-11452360I-50800J0D01*
G01*
X15806410Y-11706360D02*
G75*
G03*
X15806410Y-11706360I-50800J0D01*
G01*
X15806410Y-11960360D02*
G75*
G03*
X15806410Y-11960360I-50800J0D01*
G01*
X15806410Y-12214360D02*
G75*
G03*
X15806410Y-12214360I-50800J0D01*
G01*
X15806410Y-12468360D02*
G75*
G03*
X15806410Y-12468360I-50800J0D01*
G01*
X15806410Y-12722360D02*
G75*
G03*
X15806410Y-12722360I-50800J0D01*
G01*
X16187410Y-11198360D02*
G75*
G03*
X16187410Y-11198360I-50800J0D01*
G01*
X16187410Y-11452360D02*
G75*
G03*
X16187410Y-11452360I-50800J0D01*
G01*
X16187410Y-11706360D02*
G75*
G03*
X16187410Y-11706360I-50800J0D01*
G01*
X16187410Y-11960360D02*
G75*
G03*
X16187410Y-11960360I-50800J0D01*
G01*
X16568410Y-11198360D02*
G75*
G03*
X16568410Y-11198360I-50800J0D01*
G01*
X16568410Y-11452360D02*
G75*
G03*
X16568410Y-11452360I-50800J0D01*
G01*
X16568410Y-11706360D02*
G75*
G03*
X16568410Y-11706360I-50800J0D01*
G01*
X16568410Y-11960360D02*
G75*
G03*
X16568410Y-11960360I-50800J0D01*
G01*
X16949410Y-10436360D02*
G75*
G03*
X16949410Y-10436360I-50800J0D01*
G01*
X16949410Y-10690360D02*
G75*
G03*
X16949410Y-10690360I-50800J0D01*
G01*
X16949410Y-10944360D02*
G75*
G03*
X16949410Y-10944360I-50800J0D01*
G01*
X16949410Y-11198360D02*
G75*
G03*
X16949410Y-11198360I-50800J0D01*
G01*
X16949410Y-11452360D02*
G75*
G03*
X16949410Y-11452360I-50800J0D01*
G01*
X16949410Y-11706360D02*
G75*
G03*
X16949410Y-11706360I-50800J0D01*
G01*
X16949410Y-11960360D02*
G75*
G03*
X16949410Y-11960360I-50800J0D01*
G01*
X16949410Y-12214360D02*
G75*
G03*
X16949410Y-12214360I-50800J0D01*
G01*
X16949410Y-12468360D02*
G75*
G03*
X16949410Y-12468360I-50800J0D01*
G01*
X16949410Y-12722360D02*
G75*
G03*
X16949410Y-12722360I-50800J0D01*
G01*
X17711410Y-10436360D02*
G75*
G03*
X17711410Y-10436360I-50800J0D01*
G01*
X17711410Y-10690360D02*
G75*
G03*
X17711410Y-10690360I-50800J0D01*
G01*
X17711410Y-10944360D02*
G75*
G03*
X17711410Y-10944360I-50800J0D01*
G01*
X17711410Y-11198360D02*
G75*
G03*
X17711410Y-11198360I-50800J0D01*
G01*
X17711410Y-11452360D02*
G75*
G03*
X17711410Y-11452360I-50800J0D01*
G01*
X17711410Y-11706360D02*
G75*
G03*
X17711410Y-11706360I-50800J0D01*
G01*
X17711410Y-11960360D02*
G75*
G03*
X17711410Y-11960360I-50800J0D01*
G01*
X17711410Y-12214360D02*
G75*
G03*
X17711410Y-12214360I-50800J0D01*
G01*
X17711410Y-12468360D02*
G75*
G03*
X17711410Y-12468360I-50800J0D01*
G01*
X17711410Y-12722360D02*
G75*
G03*
X17711410Y-12722360I-50800J0D01*
G01*
X18092410Y-11198360D02*
G75*
G03*
X18092410Y-11198360I-50800J0D01*
G01*
X18092410Y-11452360D02*
G75*
G03*
X18092410Y-11452360I-50800J0D01*
G01*
X18092410Y-11706360D02*
G75*
G03*
X18092410Y-11706360I-50800J0D01*
G01*
X18092410Y-11960360D02*
G75*
G03*
X18092410Y-11960360I-50800J0D01*
G01*
X18473410Y-11198360D02*
G75*
G03*
X18473410Y-11198360I-50800J0D01*
G01*
X18473410Y-11452360D02*
G75*
G03*
X18473410Y-11452360I-50800J0D01*
G01*
X18473410Y-11706360D02*
G75*
G03*
X18473410Y-11706360I-50800J0D01*
G01*
X18473410Y-11960360D02*
G75*
G03*
X18473410Y-11960360I-50800J0D01*
G01*
X18727410Y-9801360D02*
G75*
G03*
X18727410Y-9801360I-50800J0D01*
G01*
X18854410Y-10436360D02*
G75*
G03*
X18854410Y-10436360I-50800J0D01*
G01*
X18854410Y-10690360D02*
G75*
G03*
X18854410Y-10690360I-50800J0D01*
G01*
X18854410Y-10944360D02*
G75*
G03*
X18854410Y-10944360I-50800J0D01*
G01*
X18854410Y-11198360D02*
G75*
G03*
X18854410Y-11198360I-50800J0D01*
G01*
X18854410Y-11452360D02*
G75*
G03*
X18854410Y-11452360I-50800J0D01*
G01*
X18854410Y-11706360D02*
G75*
G03*
X18854410Y-11706360I-50800J0D01*
G01*
X18854410Y-11960360D02*
G75*
G03*
X18854410Y-11960360I-50800J0D01*
G01*
X18854410Y-12214360D02*
G75*
G03*
X18854410Y-12214360I-50800J0D01*
G01*
X18854410Y-12468360D02*
G75*
G03*
X18854410Y-12468360I-50800J0D01*
G01*
X18854410Y-12722360D02*
G75*
G03*
X18854410Y-12722360I-50800J0D01*
G01*
X18981410Y-9801360D02*
G75*
G03*
X18981410Y-9801360I-50800J0D01*
G01*
X19235410Y-9801360D02*
G75*
G03*
X19235410Y-9801360I-50800J0D01*
G01*
X19489410Y-9801360D02*
G75*
G03*
X19489410Y-9801360I-50800J0D01*
G01*
X19616410Y-10436360D02*
G75*
G03*
X19616410Y-10436360I-50800J0D01*
G01*
X19616410Y-10690360D02*
G75*
G03*
X19616410Y-10690360I-50800J0D01*
G01*
X19616410Y-10944360D02*
G75*
G03*
X19616410Y-10944360I-50800J0D01*
G01*
X19616410Y-11198360D02*
G75*
G03*
X19616410Y-11198360I-50800J0D01*
G01*
X19616410Y-11452360D02*
G75*
G03*
X19616410Y-11452360I-50800J0D01*
G01*
X19616410Y-11706360D02*
G75*
G03*
X19616410Y-11706360I-50800J0D01*
G01*
X19616410Y-11960360D02*
G75*
G03*
X19616410Y-11960360I-50800J0D01*
G01*
X19616410Y-12214360D02*
G75*
G03*
X19616410Y-12214360I-50800J0D01*
G01*
X19616410Y-12468360D02*
G75*
G03*
X19616410Y-12468360I-50800J0D01*
G01*
X19616410Y-12722360D02*
G75*
G03*
X19616410Y-12722360I-50800J0D01*
G01*
X19743410Y-9801360D02*
G75*
G03*
X19743410Y-9801360I-50800J0D01*
G01*
X19997410Y-11198360D02*
G75*
G03*
X19997410Y-11198360I-50800J0D01*
G01*
X19997410Y-11452360D02*
G75*
G03*
X19997410Y-11452360I-50800J0D01*
G01*
X19997410Y-11706360D02*
G75*
G03*
X19997410Y-11706360I-50800J0D01*
G01*
X19997410Y-11960360D02*
G75*
G03*
X19997410Y-11960360I-50800J0D01*
G01*
D14*
X14409410Y-8227760D02*
X14409410Y-8377760D01*
X14334410Y-8302760D02*
X14484410Y-8302760D01*
X14409410Y-9954960D02*
X14409410Y-10104960D01*
X14334410Y-10029960D02*
X14484410Y-10029960D01*
X18371810Y-8227760D02*
X18371810Y-8377760D01*
X18296810Y-8302760D02*
X18446810Y-8302760D01*
X18371810Y-9954960D02*
X18371810Y-10104960D01*
X18296810Y-10029960D02*
X18446810Y-10029960D01*
D11*
X9787729Y-13289336D02*
X9787729Y-13089336D01*
X9835348Y-13089336D01*
X9863920Y-13098860D01*
X9882967Y-13117908D01*
X9892491Y-13136955D01*
X9902015Y-13175050D01*
X9902015Y-13203622D01*
X9892491Y-13241717D01*
X9882967Y-13260765D01*
X9863920Y-13279812D01*
X9835348Y-13289336D01*
X9787729Y-13289336D01*
X9987729Y-13289336D02*
X9987729Y-13156003D01*
X9987729Y-13194098D02*
X9997253Y-13175050D01*
X10006777Y-13165527D01*
X10025824Y-13156003D01*
X10044872Y-13156003D01*
X10111539Y-13289336D02*
X10111539Y-13156003D01*
X10111539Y-13089336D02*
X10102015Y-13098860D01*
X10111539Y-13108384D01*
X10121062Y-13098860D01*
X10111539Y-13089336D01*
X10111539Y-13108384D01*
X10235348Y-13289336D02*
X10216300Y-13279812D01*
X10206777Y-13260765D01*
X10206777Y-13089336D01*
X10340110Y-13289336D02*
X10321062Y-13279812D01*
X10311539Y-13260765D01*
X10311539Y-13089336D01*
X10568681Y-13289336D02*
X10568681Y-13089336D01*
X10635348Y-13232193D01*
X10702015Y-13089336D01*
X10702015Y-13289336D01*
X10882967Y-13289336D02*
X10882967Y-13184574D01*
X10873443Y-13165527D01*
X10854396Y-13156003D01*
X10816300Y-13156003D01*
X10797253Y-13165527D01*
X10882967Y-13279812D02*
X10863920Y-13289336D01*
X10816300Y-13289336D01*
X10797253Y-13279812D01*
X10787729Y-13260765D01*
X10787729Y-13241717D01*
X10797253Y-13222669D01*
X10816300Y-13213146D01*
X10863920Y-13213146D01*
X10882967Y-13203622D01*
X10978205Y-13156003D02*
X10978205Y-13356003D01*
X10978205Y-13165527D02*
X10997253Y-13156003D01*
X11035348Y-13156003D01*
X11054396Y-13165527D01*
X11063920Y-13175050D01*
X11073443Y-13194098D01*
X11073443Y-13251241D01*
X11063920Y-13270288D01*
X11054396Y-13279812D01*
X11035348Y-13289336D01*
X10997253Y-13289336D01*
X10978205Y-13279812D01*
X11159158Y-13270288D02*
X11168681Y-13279812D01*
X11159158Y-13289336D01*
X11149634Y-13279812D01*
X11159158Y-13270288D01*
X11159158Y-13289336D01*
X11159158Y-13165527D02*
X11168681Y-13175050D01*
X11159158Y-13184574D01*
X11149634Y-13175050D01*
X11159158Y-13165527D01*
X11159158Y-13184574D01*
D12*
X9430110Y-13568860D02*
X9530110Y-13668860D01*
X9530110Y-13568860D02*
X9430110Y-13668860D01*
D11*
X9892491Y-13709336D02*
X9778205Y-13709336D01*
X9835348Y-13709336D02*
X9835348Y-13509336D01*
X9816300Y-13537908D01*
X9797253Y-13556955D01*
X9778205Y-13566479D01*
X9978205Y-13690288D02*
X9987729Y-13699812D01*
X9978205Y-13709336D01*
X9968681Y-13699812D01*
X9978205Y-13690288D01*
X9978205Y-13709336D01*
X10111539Y-13509336D02*
X10130586Y-13509336D01*
X10149634Y-13518860D01*
X10159158Y-13528384D01*
X10168681Y-13547431D01*
X10178205Y-13585527D01*
X10178205Y-13633146D01*
X10168681Y-13671241D01*
X10159158Y-13690288D01*
X10149634Y-13699812D01*
X10130586Y-13709336D01*
X10111539Y-13709336D01*
X10092491Y-13699812D01*
X10082967Y-13690288D01*
X10073443Y-13671241D01*
X10063920Y-13633146D01*
X10063920Y-13585527D01*
X10073443Y-13547431D01*
X10082967Y-13528384D01*
X10092491Y-13518860D01*
X10111539Y-13509336D01*
X10302015Y-13509336D02*
X10321062Y-13509336D01*
X10340110Y-13518860D01*
X10349634Y-13528384D01*
X10359158Y-13547431D01*
X10368681Y-13585527D01*
X10368681Y-13633146D01*
X10359158Y-13671241D01*
X10349634Y-13690288D01*
X10340110Y-13699812D01*
X10321062Y-13709336D01*
X10302015Y-13709336D01*
X10282967Y-13699812D01*
X10273443Y-13690288D01*
X10263920Y-13671241D01*
X10254396Y-13633146D01*
X10254396Y-13585527D01*
X10263920Y-13547431D01*
X10273443Y-13528384D01*
X10282967Y-13518860D01*
X10302015Y-13509336D01*
X10492491Y-13509336D02*
X10511539Y-13509336D01*
X10530586Y-13518860D01*
X10540110Y-13528384D01*
X10549634Y-13547431D01*
X10559158Y-13585527D01*
X10559158Y-13633146D01*
X10549634Y-13671241D01*
X10540110Y-13690288D01*
X10530586Y-13699812D01*
X10511539Y-13709336D01*
X10492491Y-13709336D01*
X10473443Y-13699812D01*
X10463920Y-13690288D01*
X10454396Y-13671241D01*
X10444872Y-13633146D01*
X10444872Y-13585527D01*
X10454396Y-13547431D01*
X10463920Y-13528384D01*
X10473443Y-13518860D01*
X10492491Y-13509336D01*
X10644872Y-13709336D02*
X10644872Y-13576003D01*
X10644872Y-13595050D02*
X10654396Y-13585527D01*
X10673443Y-13576003D01*
X10702015Y-13576003D01*
X10721062Y-13585527D01*
X10730586Y-13604574D01*
X10730586Y-13709336D01*
X10730586Y-13604574D02*
X10740110Y-13585527D01*
X10759158Y-13576003D01*
X10787729Y-13576003D01*
X10806777Y-13585527D01*
X10816300Y-13604574D01*
X10816300Y-13709336D01*
X10911539Y-13709336D02*
X10911539Y-13576003D01*
X10911539Y-13595050D02*
X10921062Y-13585527D01*
X10940110Y-13576003D01*
X10968681Y-13576003D01*
X10987729Y-13585527D01*
X10997253Y-13604574D01*
X10997253Y-13709336D01*
X10997253Y-13604574D02*
X11006777Y-13585527D01*
X11025824Y-13576003D01*
X11054396Y-13576003D01*
X11073443Y-13585527D01*
X11082967Y-13604574D01*
X11082967Y-13709336D01*
X11473443Y-13499812D02*
X11302015Y-13756955D01*
X11730586Y-13509336D02*
X11749634Y-13509336D01*
X11768681Y-13518860D01*
X11778205Y-13528384D01*
X11787729Y-13547431D01*
X11797253Y-13585527D01*
X11797253Y-13633146D01*
X11787729Y-13671241D01*
X11778205Y-13690288D01*
X11768681Y-13699812D01*
X11749634Y-13709336D01*
X11730586Y-13709336D01*
X11711538Y-13699812D01*
X11702015Y-13690288D01*
X11692491Y-13671241D01*
X11682967Y-13633146D01*
X11682967Y-13585527D01*
X11692491Y-13547431D01*
X11702015Y-13528384D01*
X11711538Y-13518860D01*
X11730586Y-13509336D01*
X11882967Y-13690288D02*
X11892491Y-13699812D01*
X11882967Y-13709336D01*
X11873443Y-13699812D01*
X11882967Y-13690288D01*
X11882967Y-13709336D01*
X12016300Y-13509336D02*
X12035348Y-13509336D01*
X12054396Y-13518860D01*
X12063919Y-13528384D01*
X12073443Y-13547431D01*
X12082967Y-13585527D01*
X12082967Y-13633146D01*
X12073443Y-13671241D01*
X12063919Y-13690288D01*
X12054396Y-13699812D01*
X12035348Y-13709336D01*
X12016300Y-13709336D01*
X11997253Y-13699812D01*
X11987729Y-13690288D01*
X11978205Y-13671241D01*
X11968681Y-13633146D01*
X11968681Y-13585527D01*
X11978205Y-13547431D01*
X11987729Y-13528384D01*
X11997253Y-13518860D01*
X12016300Y-13509336D01*
X12149634Y-13509336D02*
X12273443Y-13509336D01*
X12206777Y-13585527D01*
X12235348Y-13585527D01*
X12254396Y-13595050D01*
X12263919Y-13604574D01*
X12273443Y-13623622D01*
X12273443Y-13671241D01*
X12263919Y-13690288D01*
X12254396Y-13699812D01*
X12235348Y-13709336D01*
X12178205Y-13709336D01*
X12159158Y-13699812D01*
X12149634Y-13690288D01*
X12368681Y-13709336D02*
X12406777Y-13709336D01*
X12425824Y-13699812D01*
X12435348Y-13690288D01*
X12454396Y-13661717D01*
X12463919Y-13623622D01*
X12463919Y-13547431D01*
X12454396Y-13528384D01*
X12444872Y-13518860D01*
X12425824Y-13509336D01*
X12387729Y-13509336D01*
X12368681Y-13518860D01*
X12359158Y-13528384D01*
X12349634Y-13547431D01*
X12349634Y-13595050D01*
X12359158Y-13614098D01*
X12368681Y-13623622D01*
X12387729Y-13633146D01*
X12425824Y-13633146D01*
X12444872Y-13623622D01*
X12454396Y-13614098D01*
X12463919Y-13595050D01*
X12635348Y-13576003D02*
X12635348Y-13709336D01*
X12587729Y-13499812D02*
X12540110Y-13642669D01*
X12663919Y-13642669D01*
X12730586Y-13509336D02*
X12730586Y-13547431D01*
X12806777Y-13509336D02*
X12806777Y-13547431D01*
X13102015Y-13785527D02*
X13092491Y-13776003D01*
X13073443Y-13747431D01*
X13063919Y-13728384D01*
X13054396Y-13699812D01*
X13044872Y-13652193D01*
X13044872Y-13614098D01*
X13054396Y-13566479D01*
X13063919Y-13537908D01*
X13073443Y-13518860D01*
X13092491Y-13490288D01*
X13102015Y-13480765D01*
X13168681Y-13528384D02*
X13178205Y-13518860D01*
X13197253Y-13509336D01*
X13244872Y-13509336D01*
X13263919Y-13518860D01*
X13273443Y-13528384D01*
X13282967Y-13547431D01*
X13282967Y-13566479D01*
X13273443Y-13595050D01*
X13159158Y-13709336D01*
X13282967Y-13709336D01*
X13521062Y-13709336D02*
X13521062Y-13509336D01*
X13606777Y-13709336D02*
X13606777Y-13604574D01*
X13597253Y-13585527D01*
X13578205Y-13576003D01*
X13549634Y-13576003D01*
X13530586Y-13585527D01*
X13521062Y-13595050D01*
X13730586Y-13709336D02*
X13711538Y-13699812D01*
X13702015Y-13690288D01*
X13692491Y-13671241D01*
X13692491Y-13614098D01*
X13702015Y-13595050D01*
X13711538Y-13585527D01*
X13730586Y-13576003D01*
X13759158Y-13576003D01*
X13778205Y-13585527D01*
X13787729Y-13595050D01*
X13797253Y-13614098D01*
X13797253Y-13671241D01*
X13787729Y-13690288D01*
X13778205Y-13699812D01*
X13759158Y-13709336D01*
X13730586Y-13709336D01*
X13911538Y-13709336D02*
X13892491Y-13699812D01*
X13882967Y-13680765D01*
X13882967Y-13509336D01*
X14063919Y-13699812D02*
X14044872Y-13709336D01*
X14006777Y-13709336D01*
X13987729Y-13699812D01*
X13978205Y-13680765D01*
X13978205Y-13604574D01*
X13987729Y-13585527D01*
X14006777Y-13576003D01*
X14044872Y-13576003D01*
X14063919Y-13585527D01*
X14073443Y-13604574D01*
X14073443Y-13623622D01*
X13978205Y-13642669D01*
X14149634Y-13699812D02*
X14168681Y-13709336D01*
X14206777Y-13709336D01*
X14225824Y-13699812D01*
X14235348Y-13680765D01*
X14235348Y-13671241D01*
X14225824Y-13652193D01*
X14206777Y-13642669D01*
X14178205Y-13642669D01*
X14159158Y-13633146D01*
X14149634Y-13614098D01*
X14149634Y-13604574D01*
X14159158Y-13585527D01*
X14178205Y-13576003D01*
X14206777Y-13576003D01*
X14225824Y-13585527D01*
X14302015Y-13785527D02*
X14311538Y-13776003D01*
X14330586Y-13747431D01*
X14340110Y-13728384D01*
X14349634Y-13699812D01*
X14359158Y-13652193D01*
X14359158Y-13614098D01*
X14349634Y-13566479D01*
X14340110Y-13537908D01*
X14330586Y-13518860D01*
X14311538Y-13490288D01*
X14302015Y-13480765D01*
D13*
X9530110Y-13882860D02*
G75*
G03*
X9530110Y-13882860I-50800J0D01*
G01*
D11*
X9892491Y-13973336D02*
X9778205Y-13973336D01*
X9835348Y-13973336D02*
X9835348Y-13773336D01*
X9816300Y-13801908D01*
X9797253Y-13820955D01*
X9778205Y-13830479D01*
X9978205Y-13954288D02*
X9987729Y-13963812D01*
X9978205Y-13973336D01*
X9968681Y-13963812D01*
X9978205Y-13954288D01*
X9978205Y-13973336D01*
X10111539Y-13773336D02*
X10130586Y-13773336D01*
X10149634Y-13782860D01*
X10159158Y-13792384D01*
X10168681Y-13811431D01*
X10178205Y-13849527D01*
X10178205Y-13897146D01*
X10168681Y-13935241D01*
X10159158Y-13954288D01*
X10149634Y-13963812D01*
X10130586Y-13973336D01*
X10111539Y-13973336D01*
X10092491Y-13963812D01*
X10082967Y-13954288D01*
X10073443Y-13935241D01*
X10063920Y-13897146D01*
X10063920Y-13849527D01*
X10073443Y-13811431D01*
X10082967Y-13792384D01*
X10092491Y-13782860D01*
X10111539Y-13773336D01*
X10368681Y-13973336D02*
X10254396Y-13973336D01*
X10311539Y-13973336D02*
X10311539Y-13773336D01*
X10292491Y-13801908D01*
X10273443Y-13820955D01*
X10254396Y-13830479D01*
X10540110Y-13773336D02*
X10502015Y-13773336D01*
X10482967Y-13782860D01*
X10473443Y-13792384D01*
X10454396Y-13820955D01*
X10444872Y-13859050D01*
X10444872Y-13935241D01*
X10454396Y-13954288D01*
X10463920Y-13963812D01*
X10482967Y-13973336D01*
X10521062Y-13973336D01*
X10540110Y-13963812D01*
X10549634Y-13954288D01*
X10559158Y-13935241D01*
X10559158Y-13887622D01*
X10549634Y-13868574D01*
X10540110Y-13859050D01*
X10521062Y-13849527D01*
X10482967Y-13849527D01*
X10463920Y-13859050D01*
X10454396Y-13868574D01*
X10444872Y-13887622D01*
X10644872Y-13973336D02*
X10644872Y-13840003D01*
X10644872Y-13859050D02*
X10654396Y-13849527D01*
X10673443Y-13840003D01*
X10702015Y-13840003D01*
X10721062Y-13849527D01*
X10730586Y-13868574D01*
X10730586Y-13973336D01*
X10730586Y-13868574D02*
X10740110Y-13849527D01*
X10759158Y-13840003D01*
X10787729Y-13840003D01*
X10806777Y-13849527D01*
X10816300Y-13868574D01*
X10816300Y-13973336D01*
X10911539Y-13973336D02*
X10911539Y-13840003D01*
X10911539Y-13859050D02*
X10921062Y-13849527D01*
X10940110Y-13840003D01*
X10968681Y-13840003D01*
X10987729Y-13849527D01*
X10997253Y-13868574D01*
X10997253Y-13973336D01*
X10997253Y-13868574D02*
X11006777Y-13849527D01*
X11025824Y-13840003D01*
X11054396Y-13840003D01*
X11073443Y-13849527D01*
X11082967Y-13868574D01*
X11082967Y-13973336D01*
X11473443Y-13763812D02*
X11302015Y-14020955D01*
X11730586Y-13773336D02*
X11749634Y-13773336D01*
X11768681Y-13782860D01*
X11778205Y-13792384D01*
X11787729Y-13811431D01*
X11797253Y-13849527D01*
X11797253Y-13897146D01*
X11787729Y-13935241D01*
X11778205Y-13954288D01*
X11768681Y-13963812D01*
X11749634Y-13973336D01*
X11730586Y-13973336D01*
X11711538Y-13963812D01*
X11702015Y-13954288D01*
X11692491Y-13935241D01*
X11682967Y-13897146D01*
X11682967Y-13849527D01*
X11692491Y-13811431D01*
X11702015Y-13792384D01*
X11711538Y-13782860D01*
X11730586Y-13773336D01*
X11882967Y-13954288D02*
X11892491Y-13963812D01*
X11882967Y-13973336D01*
X11873443Y-13963812D01*
X11882967Y-13954288D01*
X11882967Y-13973336D01*
X12016300Y-13773336D02*
X12035348Y-13773336D01*
X12054396Y-13782860D01*
X12063919Y-13792384D01*
X12073443Y-13811431D01*
X12082967Y-13849527D01*
X12082967Y-13897146D01*
X12073443Y-13935241D01*
X12063919Y-13954288D01*
X12054396Y-13963812D01*
X12035348Y-13973336D01*
X12016300Y-13973336D01*
X11997253Y-13963812D01*
X11987729Y-13954288D01*
X11978205Y-13935241D01*
X11968681Y-13897146D01*
X11968681Y-13849527D01*
X11978205Y-13811431D01*
X11987729Y-13792384D01*
X11997253Y-13782860D01*
X12016300Y-13773336D01*
X12254396Y-13840003D02*
X12254396Y-13973336D01*
X12206777Y-13763812D02*
X12159158Y-13906669D01*
X12282967Y-13906669D01*
X12397253Y-13773336D02*
X12416300Y-13773336D01*
X12435348Y-13782860D01*
X12444872Y-13792384D01*
X12454396Y-13811431D01*
X12463919Y-13849527D01*
X12463919Y-13897146D01*
X12454396Y-13935241D01*
X12444872Y-13954288D01*
X12435348Y-13963812D01*
X12416300Y-13973336D01*
X12397253Y-13973336D01*
X12378205Y-13963812D01*
X12368681Y-13954288D01*
X12359158Y-13935241D01*
X12349634Y-13897146D01*
X12349634Y-13849527D01*
X12359158Y-13811431D01*
X12368681Y-13792384D01*
X12378205Y-13782860D01*
X12397253Y-13773336D01*
X12587729Y-13773336D02*
X12606777Y-13773336D01*
X12625824Y-13782860D01*
X12635348Y-13792384D01*
X12644872Y-13811431D01*
X12654396Y-13849527D01*
X12654396Y-13897146D01*
X12644872Y-13935241D01*
X12635348Y-13954288D01*
X12625824Y-13963812D01*
X12606777Y-13973336D01*
X12587729Y-13973336D01*
X12568681Y-13963812D01*
X12559158Y-13954288D01*
X12549634Y-13935241D01*
X12540110Y-13897146D01*
X12540110Y-13849527D01*
X12549634Y-13811431D01*
X12559158Y-13792384D01*
X12568681Y-13782860D01*
X12587729Y-13773336D01*
X12730586Y-13773336D02*
X12730586Y-13811431D01*
X12806777Y-13773336D02*
X12806777Y-13811431D01*
X13102015Y-14049527D02*
X13092491Y-14040003D01*
X13073443Y-14011431D01*
X13063919Y-13992384D01*
X13054396Y-13963812D01*
X13044872Y-13916193D01*
X13044872Y-13878098D01*
X13054396Y-13830479D01*
X13063919Y-13801908D01*
X13073443Y-13782860D01*
X13092491Y-13754288D01*
X13102015Y-13744765D01*
X13282967Y-13973336D02*
X13168681Y-13973336D01*
X13225824Y-13973336D02*
X13225824Y-13773336D01*
X13206777Y-13801908D01*
X13187729Y-13820955D01*
X13168681Y-13830479D01*
X13349634Y-13773336D02*
X13473443Y-13773336D01*
X13406777Y-13849527D01*
X13435348Y-13849527D01*
X13454396Y-13859050D01*
X13463919Y-13868574D01*
X13473443Y-13887622D01*
X13473443Y-13935241D01*
X13463919Y-13954288D01*
X13454396Y-13963812D01*
X13435348Y-13973336D01*
X13378205Y-13973336D01*
X13359158Y-13963812D01*
X13349634Y-13954288D01*
X13540110Y-13773336D02*
X13663919Y-13773336D01*
X13597253Y-13849527D01*
X13625824Y-13849527D01*
X13644872Y-13859050D01*
X13654396Y-13868574D01*
X13663919Y-13887622D01*
X13663919Y-13935241D01*
X13654396Y-13954288D01*
X13644872Y-13963812D01*
X13625824Y-13973336D01*
X13568681Y-13973336D01*
X13549634Y-13963812D01*
X13540110Y-13954288D01*
X13902015Y-13973336D02*
X13902015Y-13773336D01*
X13987729Y-13973336D02*
X13987729Y-13868574D01*
X13978205Y-13849527D01*
X13959158Y-13840003D01*
X13930586Y-13840003D01*
X13911538Y-13849527D01*
X13902015Y-13859050D01*
X14111538Y-13973336D02*
X14092491Y-13963812D01*
X14082967Y-13954288D01*
X14073443Y-13935241D01*
X14073443Y-13878098D01*
X14082967Y-13859050D01*
X14092491Y-13849527D01*
X14111538Y-13840003D01*
X14140110Y-13840003D01*
X14159158Y-13849527D01*
X14168681Y-13859050D01*
X14178205Y-13878098D01*
X14178205Y-13935241D01*
X14168681Y-13954288D01*
X14159158Y-13963812D01*
X14140110Y-13973336D01*
X14111538Y-13973336D01*
X14292491Y-13973336D02*
X14273443Y-13963812D01*
X14263919Y-13944765D01*
X14263919Y-13773336D01*
X14444872Y-13963812D02*
X14425824Y-13973336D01*
X14387729Y-13973336D01*
X14368681Y-13963812D01*
X14359158Y-13944765D01*
X14359158Y-13868574D01*
X14368681Y-13849527D01*
X14387729Y-13840003D01*
X14425824Y-13840003D01*
X14444872Y-13849527D01*
X14454396Y-13868574D01*
X14454396Y-13887622D01*
X14359158Y-13906669D01*
X14530586Y-13963812D02*
X14549634Y-13973336D01*
X14587729Y-13973336D01*
X14606777Y-13963812D01*
X14616300Y-13944765D01*
X14616300Y-13935241D01*
X14606777Y-13916193D01*
X14587729Y-13906669D01*
X14559158Y-13906669D01*
X14540110Y-13897146D01*
X14530586Y-13878098D01*
X14530586Y-13868574D01*
X14540110Y-13849527D01*
X14559158Y-13840003D01*
X14587729Y-13840003D01*
X14606777Y-13849527D01*
X14682967Y-14049527D02*
X14692491Y-14040003D01*
X14711538Y-14011431D01*
X14721062Y-13992384D01*
X14730586Y-13963812D01*
X14740110Y-13916193D01*
X14740110Y-13878098D01*
X14730586Y-13830479D01*
X14721062Y-13801908D01*
X14711538Y-13782860D01*
X14692491Y-13754288D01*
X14682967Y-13744765D01*
D14*
X9455110Y-14071860D02*
X9455110Y-14221860D01*
X9380110Y-14146860D02*
X9530110Y-14146860D01*
D11*
X9892491Y-14237336D02*
X9778205Y-14237336D01*
X9835348Y-14237336D02*
X9835348Y-14037336D01*
X9816300Y-14065908D01*
X9797253Y-14084955D01*
X9778205Y-14094479D01*
X9978205Y-14218288D02*
X9987729Y-14227812D01*
X9978205Y-14237336D01*
X9968681Y-14227812D01*
X9978205Y-14218288D01*
X9978205Y-14237336D01*
X10168681Y-14037336D02*
X10073443Y-14037336D01*
X10063920Y-14132574D01*
X10073443Y-14123050D01*
X10092491Y-14113527D01*
X10140110Y-14113527D01*
X10159158Y-14123050D01*
X10168681Y-14132574D01*
X10178205Y-14151622D01*
X10178205Y-14199241D01*
X10168681Y-14218288D01*
X10159158Y-14227812D01*
X10140110Y-14237336D01*
X10092491Y-14237336D01*
X10073443Y-14227812D01*
X10063920Y-14218288D01*
X10302015Y-14037336D02*
X10321062Y-14037336D01*
X10340110Y-14046860D01*
X10349634Y-14056384D01*
X10359158Y-14075431D01*
X10368681Y-14113527D01*
X10368681Y-14161146D01*
X10359158Y-14199241D01*
X10349634Y-14218288D01*
X10340110Y-14227812D01*
X10321062Y-14237336D01*
X10302015Y-14237336D01*
X10282967Y-14227812D01*
X10273443Y-14218288D01*
X10263920Y-14199241D01*
X10254396Y-14161146D01*
X10254396Y-14113527D01*
X10263920Y-14075431D01*
X10273443Y-14056384D01*
X10282967Y-14046860D01*
X10302015Y-14037336D01*
X10492491Y-14037336D02*
X10511539Y-14037336D01*
X10530586Y-14046860D01*
X10540110Y-14056384D01*
X10549634Y-14075431D01*
X10559158Y-14113527D01*
X10559158Y-14161146D01*
X10549634Y-14199241D01*
X10540110Y-14218288D01*
X10530586Y-14227812D01*
X10511539Y-14237336D01*
X10492491Y-14237336D01*
X10473443Y-14227812D01*
X10463920Y-14218288D01*
X10454396Y-14199241D01*
X10444872Y-14161146D01*
X10444872Y-14113527D01*
X10454396Y-14075431D01*
X10463920Y-14056384D01*
X10473443Y-14046860D01*
X10492491Y-14037336D01*
X10644872Y-14237336D02*
X10644872Y-14104003D01*
X10644872Y-14123050D02*
X10654396Y-14113527D01*
X10673443Y-14104003D01*
X10702015Y-14104003D01*
X10721062Y-14113527D01*
X10730586Y-14132574D01*
X10730586Y-14237336D01*
X10730586Y-14132574D02*
X10740110Y-14113527D01*
X10759158Y-14104003D01*
X10787729Y-14104003D01*
X10806777Y-14113527D01*
X10816300Y-14132574D01*
X10816300Y-14237336D01*
X10911539Y-14237336D02*
X10911539Y-14104003D01*
X10911539Y-14123050D02*
X10921062Y-14113527D01*
X10940110Y-14104003D01*
X10968681Y-14104003D01*
X10987729Y-14113527D01*
X10997253Y-14132574D01*
X10997253Y-14237336D01*
X10997253Y-14132574D02*
X11006777Y-14113527D01*
X11025824Y-14104003D01*
X11054396Y-14104003D01*
X11073443Y-14113527D01*
X11082967Y-14132574D01*
X11082967Y-14237336D01*
X11473443Y-14027812D02*
X11302015Y-14284955D01*
X11730586Y-14037336D02*
X11749634Y-14037336D01*
X11768681Y-14046860D01*
X11778205Y-14056384D01*
X11787729Y-14075431D01*
X11797253Y-14113527D01*
X11797253Y-14161146D01*
X11787729Y-14199241D01*
X11778205Y-14218288D01*
X11768681Y-14227812D01*
X11749634Y-14237336D01*
X11730586Y-14237336D01*
X11711538Y-14227812D01*
X11702015Y-14218288D01*
X11692491Y-14199241D01*
X11682967Y-14161146D01*
X11682967Y-14113527D01*
X11692491Y-14075431D01*
X11702015Y-14056384D01*
X11711538Y-14046860D01*
X11730586Y-14037336D01*
X11882967Y-14218288D02*
X11892491Y-14227812D01*
X11882967Y-14237336D01*
X11873443Y-14227812D01*
X11882967Y-14218288D01*
X11882967Y-14237336D01*
X12016300Y-14037336D02*
X12035348Y-14037336D01*
X12054396Y-14046860D01*
X12063919Y-14056384D01*
X12073443Y-14075431D01*
X12082967Y-14113527D01*
X12082967Y-14161146D01*
X12073443Y-14199241D01*
X12063919Y-14218288D01*
X12054396Y-14227812D01*
X12035348Y-14237336D01*
X12016300Y-14237336D01*
X11997253Y-14227812D01*
X11987729Y-14218288D01*
X11978205Y-14199241D01*
X11968681Y-14161146D01*
X11968681Y-14113527D01*
X11978205Y-14075431D01*
X11987729Y-14056384D01*
X11997253Y-14046860D01*
X12016300Y-14037336D01*
X12263919Y-14037336D02*
X12168681Y-14037336D01*
X12159158Y-14132574D01*
X12168681Y-14123050D01*
X12187729Y-14113527D01*
X12235348Y-14113527D01*
X12254396Y-14123050D01*
X12263919Y-14132574D01*
X12273443Y-14151622D01*
X12273443Y-14199241D01*
X12263919Y-14218288D01*
X12254396Y-14227812D01*
X12235348Y-14237336D01*
X12187729Y-14237336D01*
X12168681Y-14227812D01*
X12159158Y-14218288D01*
X12368681Y-14237336D02*
X12406777Y-14237336D01*
X12425824Y-14227812D01*
X12435348Y-14218288D01*
X12454396Y-14189717D01*
X12463919Y-14151622D01*
X12463919Y-14075431D01*
X12454396Y-14056384D01*
X12444872Y-14046860D01*
X12425824Y-14037336D01*
X12387729Y-14037336D01*
X12368681Y-14046860D01*
X12359158Y-14056384D01*
X12349634Y-14075431D01*
X12349634Y-14123050D01*
X12359158Y-14142098D01*
X12368681Y-14151622D01*
X12387729Y-14161146D01*
X12425824Y-14161146D01*
X12444872Y-14151622D01*
X12454396Y-14142098D01*
X12463919Y-14123050D01*
X12654396Y-14237336D02*
X12540110Y-14237336D01*
X12597253Y-14237336D02*
X12597253Y-14037336D01*
X12578205Y-14065908D01*
X12559158Y-14084955D01*
X12540110Y-14094479D01*
X12730586Y-14037336D02*
X12730586Y-14075431D01*
X12806777Y-14037336D02*
X12806777Y-14075431D01*
X13102015Y-14313527D02*
X13092491Y-14304003D01*
X13073443Y-14275431D01*
X13063919Y-14256384D01*
X13054396Y-14227812D01*
X13044872Y-14180193D01*
X13044872Y-14142098D01*
X13054396Y-14094479D01*
X13063919Y-14065908D01*
X13073443Y-14046860D01*
X13092491Y-14018288D01*
X13102015Y-14008765D01*
X13263919Y-14104003D02*
X13263919Y-14237336D01*
X13216300Y-14027812D02*
X13168681Y-14170669D01*
X13292491Y-14170669D01*
X13521062Y-14237336D02*
X13521062Y-14037336D01*
X13606777Y-14237336D02*
X13606777Y-14132574D01*
X13597253Y-14113527D01*
X13578205Y-14104003D01*
X13549634Y-14104003D01*
X13530586Y-14113527D01*
X13521062Y-14123050D01*
X13730586Y-14237336D02*
X13711538Y-14227812D01*
X13702015Y-14218288D01*
X13692491Y-14199241D01*
X13692491Y-14142098D01*
X13702015Y-14123050D01*
X13711538Y-14113527D01*
X13730586Y-14104003D01*
X13759158Y-14104003D01*
X13778205Y-14113527D01*
X13787729Y-14123050D01*
X13797253Y-14142098D01*
X13797253Y-14199241D01*
X13787729Y-14218288D01*
X13778205Y-14227812D01*
X13759158Y-14237336D01*
X13730586Y-14237336D01*
X13911538Y-14237336D02*
X13892491Y-14227812D01*
X13882967Y-14208765D01*
X13882967Y-14037336D01*
X14063919Y-14227812D02*
X14044872Y-14237336D01*
X14006777Y-14237336D01*
X13987729Y-14227812D01*
X13978205Y-14208765D01*
X13978205Y-14132574D01*
X13987729Y-14113527D01*
X14006777Y-14104003D01*
X14044872Y-14104003D01*
X14063919Y-14113527D01*
X14073443Y-14132574D01*
X14073443Y-14151622D01*
X13978205Y-14170669D01*
X14149634Y-14227812D02*
X14168681Y-14237336D01*
X14206777Y-14237336D01*
X14225824Y-14227812D01*
X14235348Y-14208765D01*
X14235348Y-14199241D01*
X14225824Y-14180193D01*
X14206777Y-14170669D01*
X14178205Y-14170669D01*
X14159158Y-14161146D01*
X14149634Y-14142098D01*
X14149634Y-14132574D01*
X14159158Y-14113527D01*
X14178205Y-14104003D01*
X14206777Y-14104003D01*
X14225824Y-14113527D01*
X14302015Y-14313527D02*
X14311538Y-14304003D01*
X14330586Y-14275431D01*
X14340110Y-14256384D01*
X14349634Y-14227812D01*
X14359158Y-14180193D01*
X14359158Y-14142098D01*
X14349634Y-14094479D01*
X14340110Y-14065908D01*
X14330586Y-14046860D01*
X14311538Y-14018288D01*
X14302015Y-14008765D01*
M02*
